<?xml version="1.0" encoding="UTF-8"?>
<svg id="Layer_1" data-name="Layer 1" xmlns="http://www.w3.org/2000/svg" viewBox="0 0 384 384">
  <defs>
    <style>
      .cls-1 {
        fill: none;
      }
    </style>
  </defs>
  <path class="cls-1" d="M384,0v384H0V0h384ZM245.35,59.68c0-26.57-21.54-48.11-48.11-48.11s-48.11,21.54-48.11,48.11,21.54,48.11,48.11,48.11,48.11-21.54,48.11-48.11ZM245.25,186h19.12c16.6,0,25.92-15.39,21.59-30.59-6.24-21.91-26.46-44.07-47.11-53.4-9.97,8.37-21.95,15.32-35.24,16.47-18.23,1.58-34.49-4.47-47.97-16.47-19.14,8.5-35.66,26.08-44.03,45.23-4.59,10.51-7.48,21.16.9,30.86,3.41,3.95,11.69,7.89,16.86,7.89h19.88c-5.94-25,15.07-47.48,40.52-40.89,2.4.62,5.49,2.77,7.81,2.62,2.45-.16,7.64-3.06,11.51-3.52,24.33-2.89,41.23,18.56,36.16,41.79ZM16.25,115c-6.58-5.72-16.45-1.39-15.43,7.53l33.9,129.62c9.93,30.12,45.89,43.12,56.04,72.59l63-18.76-15.27-48.85-43.27-41.48c-10.72-5.3-20.84,6.61-13.13,16.13l32.25,30c3.09,5.26-.2,10.88-6.55,9.55-7.66-1.62-29.19-27.85-36.85-33.64-5.13-5.91-3.66-12.88-4.77-19.98L16.25,115ZM293.24,324.75c0-.96.2-1.88.6-2.76,12.48-27.15,45.23-40.79,55.25-69.27,11.3-44.33,24.16-88.48,34.13-133.03-1.58-7.36-9.91-9.54-15.47-4.69l-50.44,105.19c1.77,22.88-26.08,34.79-38.68,50.56-5.9,4.16-12.85-3.05-8.97-8.97l31.11-28.88c9.94-10.47-1.03-24.01-13.18-16.18-15.08,13.12-30.09,27.3-43.12,42.38l-14.24,46.88,63,18.76ZM176.06,155.43c-6.87,1.09-13.72,7.69-15.78,14.22-2.91,9.21-.01,16.04,5.84,23.11,8.81,10.65,21.56,20.16,30.76,30.73,9.19-11.35,24.31-20.95,32.93-32.3,17.5-23.02-11.93-49.11-32.29-29.23-6.92-5.59-12.24-7.98-21.47-6.52ZM170.83,318.93l-86.34,26.18c-2.39,1.57-4.23,4.02-4.24,7.01,0,2.31,3.76,14.68,5.08,16.68,1.69,2.56,5.25,4.11,8.27,3.48l86.35-26.21c7.14-3.86,2.9-15.28.42-21.3-1.84-4.46-4.65-6.42-9.53-5.84ZM209.81,318.9c-5.84,1.11-9.53,14.09-9.97,19.31-.31,3.63,1.51,5.8,4.22,7.86l86.35,26.21c3.02.62,6.58-.92,8.27-3.48,1.14-1.73,5.04-13.95,5.11-15.95.12-3.32-1.58-5.99-4.27-7.74-25.89-7.56-51.5-16.62-77.51-23.74-3.44-.94-8.87-3.1-12.19-2.47Z"/>
  <g>
    <g>
      <path d="M293.24,324.75l-63-18.76,14.24-46.88c13.03-15.08,28.05-29.26,43.12-42.38,12.15-7.83,23.12,5.7,13.18,16.18l-31.11,28.88c-3.88,5.92,3.07,13.13,8.97,8.97,12.61-15.77,40.46-27.68,38.68-50.56l50.44-105.19c5.56-4.85,13.88-2.68,15.47,4.69-9.97,44.55-22.82,88.7-34.13,133.03-10.03,28.48-42.78,42.12-55.25,69.27-.4.87-.61,1.8-.6,2.76Z"/>
      <g>
        <path d="M16.25,115l49.92,102.7c1.12,7.09-.36,14.06,4.77,19.98,7.66,5.79,29.19,32.03,36.85,33.64,6.35,1.34,9.64-4.29,6.55-9.55l-32.25-30c-7.71-9.52,2.41-21.43,13.13-16.13l43.27,41.48,15.27,48.85-63,18.76c-10.15-29.47-46.11-42.47-56.04-72.59L.81,122.53c-1.01-8.92,8.85-13.24,15.43-7.53Z"/>
        <g>
          <path d="M209.81,318.9c3.31-.63,8.75,1.53,12.19,2.47,26.02,7.11,51.62,16.18,77.51,23.74,2.69,1.75,4.39,4.42,4.27,7.74-.07,1.99-3.98,14.22-5.11,15.95-1.69,2.56-5.25,4.11-8.27,3.48l-86.35-26.21c-2.71-2.06-4.53-4.22-4.22-7.86.45-5.22,4.13-18.2,9.97-19.31Z"/>
          <path d="M170.83,318.93c4.88-.58,7.68,1.38,9.53,5.84,2.49,6.02,6.73,17.44-.42,21.3l-86.35,26.21c-3.02.62-6.58-.92-8.27-3.48-1.32-2-5.09-14.37-5.08-16.68,0-2.98,1.85-5.44,4.24-7.01l86.34-26.18Z"/>
        </g>
      </g>
    </g>
    <g>
      <path d="M245.25,186c5.07-23.23-11.84-44.69-36.16-41.79-3.86.46-9.05,3.35-11.51,3.52-2.32.16-5.41-2-7.81-2.62-25.44-6.59-46.46,15.89-40.52,40.89h-19.88c-5.17,0-13.45-3.94-16.86-7.89-8.38-9.7-5.49-20.35-.9-30.86,8.37-19.15,24.89-36.73,44.03-45.23,13.48,12,29.74,18.05,47.97,16.47,13.29-1.15,25.27-8.11,35.24-16.47,20.64,9.33,40.86,31.49,47.11,53.4,4.33,15.2-4.98,30.59-21.59,30.59h-19.12Z"/>
      <circle cx="197.24" cy="59.68" r="48.11"/>
      <path d="M176.06,155.43c9.22-1.46,14.54.93,21.47,6.52,20.35-19.88,49.79,6.21,32.29,29.23-8.63,11.35-23.74,20.95-32.93,32.3-9.2-10.56-21.95-20.08-30.76-30.73-5.85-7.07-8.75-13.9-5.84-23.11,2.06-6.53,8.91-13.13,15.78-14.22Z"/>
    </g>
  </g>
</svg>