<?xml version="1.0" encoding="UTF-8"?>
<svg id="Layer_1" data-name="Layer 1" xmlns="http://www.w3.org/2000/svg" viewBox="0 0 384 384">
  <defs>
    <style>
      .cls-1 {
        fill: none;
      }
    </style>
  </defs>
  <path class="cls-1" d="M318.75,0l.43,22.51h8.57s0-22.51,0-22.51h56.25v384H75l.32-22.52h-8.57c.62,7.5-2.23,15.12,0,22.52H0V0h318.75ZM28.46,9v51.79h119.32V9H28.46ZM299.95,32.19c.65-.9-8.75-19.27-9.68-19.87-1.66-1.07-5.94,3.73-8.27,3.44l9.81,19.44,8.14-3.01ZM354.69,35.2l9.73-19.09-7.19-4.02c-.97-.21-1.2.52-1.64,1.13-1.08,1.5-9.1,17.59-9.12,18.62l8.21,3.36ZM220.88,215.25c-3.82.48-8.45-.35-12.38,0l20.68,47.28,94.45-40.54c.23-17.05-13.31-47.42,3.74-60,7.99-5.89,19.02-5.42,23.46,4.29,2.46,5.38,11.19,38.43,12.88,39.64,7.09-.53,10.96-7.31,8.65-13.93l-57.38-138-58.68,23.11c-1.24-.55-3.03-1.11-3.91-2.13-2.78-3.25-.59-16.2-1.15-21.36-1.56-14.35-18.01-22-30.96-17.45-17.46,6.13-21.07,29.99-6.17,41.08,5.03,3.75,15.23,4.24,10.48,13.49l-61.11,25.52,22.51,50.24,5.59-7.52c26.92-25.44,67.71,2.78,53.04,37.29-3.87,9.11-13.73,17.72-23.76,18.99ZM138.75,68.96H38.34s0,24.83,0,24.83h100.41s0-24.83,0-24.83ZM51,164.28c8.83-2.49,14.26-9.12,19.71-15.94l70.22-31.77c.47-1.78-5.79-12.72-7.77-13.86-3.37-1.93-7.13,0-10.51.07-26.61.63-53.3-.85-79.9.35-2.78,3.9-5.34,7.99-6.97,12.53-2.35,6.57-12.29,42.48-11.73,47.39l18.65,57.86c7.71,9.7,16.19-4.7,15.5-12.92l-7.21-43.72ZM171,290.24c13.58-5.94,27.73-11.26,41.01-17.86,4.91-2.44,9.14-3.23,7.39-9.91-3.39-12.96-14.95-30.95-20.03-44.47-1.37-3.64-3.67-7.23-.98-10.99,2.87-4.01,15.14-1.77,20.23-2.27,18.46-1.82,26.08-23.83,13.52-37.5-9.88-10.75-27.04-9.89-36.03,1.49-4.58,5.8-6.21,19.3-15.91,7.71l-23.52-53.72c-1.08-1.51-3.14-1.98-4.79-1.27l-75.18,33.64c-4.65,5.09-8.49,10.89-15.04,13.82-.02,17.08,10.08,37.02,2,53.39-5.3,10.73-21.33,15.37-28.57,3.99l-14.48-44.78c-1.4-1.88-7.51,2.46-8.51,4.22-1.77,3.11-1.72,6.6-.24,9.79l61.7,138.18,50.19-21.71c.21-1.04.15-.96-.48-1.55-3.01-2.84-6.61-5.26-9.25-8.58-13.21-16.58-6.29-41.12,12.97-49.24,24.67-10.41,50.96,11.81,44.01,37.63ZM243.13,266.37c-.39,8.39,3.75,17.6,10.15,22.98l88.73-.21c2.44-4.31,5.56-8.25,7.28-12.97,5.22-14.3,7.58-31.61,12.21-46.31l-19.81-61.93c-10.02-3.5-13.85,6.56-14.72,14.74l6.81,44.08c-11.61,4.47-17.61,13.24-22.52,24.18l-8.25-3.8,3.73-6.76-1.11-.36-62.51,26.36ZM346.5,298.5h-99.75v24.03h99.75v-24.03ZM237.71,330.71v49.54h119.32v-49.54h-119.32ZM40.11,348.08l-10.02,19.19c-.18,1.98,5.64,3.36,7.05,4.66l10.12-19.08c-.04-2.2-5.52-3.34-7.14-4.76ZM101.94,348.8l-8.21,3.36c.02,1.04,8.04,17.12,9.12,18.62.44.61.67,1.34,1.64,1.13l7.19-4.02-9.73-19.09Z"/>
  <polygon points="327.75 0 327.75 22.5 319.18 22.51 318.75 0 327.75 0"/>
  <path d="M66.75,384c-2.23-7.4.61-15.01,0-22.5h8.57s-.32,22.5-.32,22.5h-8.25Z"/>
  <g>
    <g>
      <path d="M51,164.28l7.21,43.72c.68,8.22-7.79,22.62-15.5,12.92l-18.65-57.86c-.56-4.91,9.38-40.82,11.73-47.39,1.63-4.55,4.18-8.63,6.97-12.53,26.6-1.2,53.29.29,79.9-.35,3.38-.08,7.14-2,10.51-.07,1.98,1.13,8.24,12.08,7.77,13.86l-70.22,31.77c-5.45,6.82-10.88,13.45-19.71,15.94Z"/>
      <g>
        <rect x="28.46" y="9" width="119.32" height="51.79"/>
        <rect x="38.34" y="68.96" width="100.41" height="24.82"/>
      </g>
    </g>
    <g>
      <path d="M171,290.24c6.95-25.82-19.34-48.03-44.01-37.63-19.26,8.12-26.19,32.66-12.97,49.24,2.64,3.32,6.24,5.74,9.25,8.58.63.6.69.51.48,1.55l-50.19,21.71L11.86,195.51c-1.48-3.19-1.54-6.68.24-9.79,1.01-1.76,7.12-6.1,8.51-4.22l14.48,44.78c7.24,11.38,23.27,6.74,28.57-3.99,8.08-16.37-2.02-36.31-2-53.39,6.55-2.94,10.39-8.73,15.04-13.82l75.18-33.64c1.65-.7,3.72-.24,4.79,1.27l23.52,53.72c9.71,11.59,11.33-1.9,15.91-7.71,8.98-11.38,26.15-12.24,36.03-1.49,12.56,13.67,4.94,35.68-13.52,37.5-5.08.5-17.35-1.73-20.23,2.27-2.69,3.75-.39,7.35.98,10.99,5.08,13.51,16.63,31.51,20.03,44.47,1.75,6.68-2.48,7.47-7.39,9.91-13.28,6.6-27.42,11.92-41.01,17.86Z"/>
      <g>
        <g>
          <path d="M220.88,215.25c10.03-1.27,19.88-9.88,23.76-18.99,14.67-34.51-26.11-62.73-53.04-37.29l-5.59,7.52-22.51-50.24,61.11-25.52c4.74-9.25-5.45-9.74-10.48-13.49-14.91-11.09-11.29-34.96,6.17-41.08,12.96-4.55,29.41,3.11,30.96,17.45.56,5.16-1.63,18.11,1.15,21.36.88,1.03,2.68,1.58,3.91,2.13l58.68-23.11,57.38,138c2.3,6.62-1.57,13.4-8.65,13.93-1.69-1.21-10.42-34.26-12.88-39.64-4.44-9.71-15.47-10.18-23.46-4.29-17.05,12.57-3.52,42.94-3.74,60l-94.45,40.54-20.68-47.28c3.93-.35,8.55.48,12.38,0Z"/>
          <path d="M243.13,266.37l62.51-26.36,1.11.36-3.73,6.76,8.25,3.8c4.91-10.95,10.91-19.71,22.52-24.18l-6.81-44.08c.87-8.18,4.7-18.24,14.72-14.74l19.81,61.93c-4.64,14.69-7,32-12.21,46.31-1.72,4.72-4.84,8.65-7.28,12.97l-88.73.21c-6.4-5.38-10.54-14.59-10.15-22.98Z"/>
        </g>
        <rect x="237.71" y="330.71" width="119.32" height="49.54"/>
        <rect x="246.75" y="298.5" width="99.75" height="24.03"/>
      </g>
    </g>
  </g>
  <path d="M101.94,348.8l9.73,19.09-7.19,4.02c-.97.21-1.2-.52-1.64-1.13-1.08-1.5-9.1-17.59-9.12-18.62l8.21-3.36Z"/>
  <path d="M354.69,35.2l-8.21-3.36c.02-1.04,8.04-17.12,9.12-18.62.44-.61.67-1.34,1.64-1.13l7.19,4.02-9.73,19.09Z"/>
  <path d="M40.11,348.08c1.62,1.42,7.1,2.57,7.14,4.76l-10.12,19.08c-1.41-1.3-7.23-2.68-7.05-4.66l10.02-19.19Z"/>
  <path d="M299.95,32.19l-8.14,3.01-9.81-19.44c2.33.28,6.61-4.51,8.27-3.44.93.6,10.33,18.97,9.68,19.87Z"/>
</svg>