<?xml version="1.0" encoding="UTF-8"?>
<svg id="Layer_1" data-name="Layer 1" xmlns="http://www.w3.org/2000/svg" viewBox="0 0 384 384">
  <defs>
    <style>
      .cls-1 {
        fill: none;
      }
    </style>
  </defs>
  <path class="cls-1" d="M384,0v384H0V0h384ZM192.6,35.47c-14.03.87-28.69,4.86-41.11,11.39-3.01,1.58-10.25,7.24-12.52,7.73-4.48.98-10.96.86-16.12,1.88C52.71,70.24-.9,152.55,55.87,212.16c-9.87,46.47,22.48,92.41,69.37,99.47,6.91,22.77,31.34,32.44,53,35.5,52.05,7.36,120.57-9.44,139.21-64.54,1.03-3.05,1.17-7.81,2.47-10.28,1.51-2.87,8.18-9.14,10.69-12.56,32.6-44.3,26.47-103.07-9.24-143.51-7.07-8.01-11.87-13.48-18.52-21.98-26.79-34.23-64.43-61.64-110.27-58.79Z"/>
  <path d="M192.6,35.47c45.84-2.85,83.47,24.56,110.27,58.79,6.65,8.49,11.45,13.96,18.52,21.98,35.71,40.44,41.84,99.21,9.24,143.51-2.51,3.41-9.19,9.69-10.69,12.56-1.3,2.47-1.44,7.23-2.47,10.28-18.64,55.1-87.16,71.89-139.21,64.54-21.66-3.06-46.09-12.73-53-35.5-46.89-7.06-79.24-53.01-69.37-99.47C-.9,152.55,52.71,70.24,122.85,56.47c5.16-1.01,11.64-.9,16.12-1.88,2.27-.5,9.51-6.15,12.52-7.73,12.42-6.53,27.08-10.52,41.11-11.39ZM283.5,88.49c-30.32-34.1-80.1-53.68-123.75-32.98.11,1.12,1.11,1.17,1.91,1.46,5.93,2.16,11.98,3.29,18.1,5.9,13.14,5.61,25.33,13.71,35.23,24.01,21.99-9.28,46.76-7.33,68.52,1.61ZM204.75,92.99c-9.55-9.64-22.79-17.29-35.61-21.75-5.3-1.84-21.12-6.45-25.85-4.83-3.54,1.21-12.62,12.37-14.89,15.85-7.26,11.09-10.83,22.48-9.92,35.89.23,3.36,2.08,13.91,3.85,16.4s3.42.52,5.57.45c3.2-.1,6.41.22,9.6-.14,11.75-15.08,30.05-21.66,48.5-24.25,5.54-6.52,10.69-13.94,18.77-17.62ZM125.25,67.51c-55.84,9.21-108,80.74-65.62,131.24,8.12-25.81,25.85-50.13,52.12-59.25-11.07-24.96-3.49-51.91,13.5-71.98ZM288.76,189.75c29.69-16.71,32.3-61.78,5.18-82.06-19.73-14.76-48.54-19.54-71.94-11.68l3.79,15.7c24.02,2.23,48.31,23.44,51.63,47.75.37,2.72-.47,6.43.23,8.77.33,1.1,5.66,7.12,6.99,9.51,1.99,3.61,3.9,7.82,4.12,12.01ZM202.5,109.5h11.25c.03-2.06-.65-4.56-1.43-6.44-.3-.73.43-1.32-1.2-1.08-3.33,1.85-6.4,4.42-8.61,7.52ZM212.25,121.51c-6.38-.57-12.96-1.67-19.15.72-3.29,7.04-4.59,14.76-4.1,22.52,10.03-4.01,19-13.34,23.25-23.24ZM264.74,159c-5.88-18-21.52-34.47-41.18-35.93-4.45,15.88-17.64,26.39-31.44,34.13.44.9-.02,3.62,1.75,3.31,2.32-.4,8.34-4.02,11.43-5.08,15.34-5.27,32.63-6.16,48.2-1.31,3.9,1.21,7.62,3.04,11.23,4.88ZM180,123.75c-10.3,1.05-21.41,5.77-28.5,13.49,5.88,1.17,10.93,4.49,15.69,7.95,1.77,1.28,4.18,4.58,6.12,5.2.97.31,4.01-.06,4.36-.47.4-.47-.8-10.01-.65-12.28.29-4.49,1.88-9.52,2.98-13.88ZM320.24,254.99c26.42-34.42,26.21-80.78,3.38-117-.21,5.6.77,11.13.28,16.79-1.63,18.68-12.56,33.4-27.42,43.83-1.35.95-7.23,3.7-7.54,4.08-.53.65-1.77,5.75-2.66,7.47-1.42,2.75-3.22,5.21-5.01,7.72,13.6,5.38,27.14,12.17,34.62,25.36l4.35,11.76ZM156.75,152.99c-3.19-2.71-12.92-8.31-14.99-2.61,4.61,2.33,9.91,2.86,14.99,2.61ZM153.65,231.66c2.07-3.38-7.12-6.23-9.58-7.85-16.4-10.82-22.95-36.76-20.12-55.23.62-4.07,1.91-7.98,3.2-11.84l-8.99-7.45c-21.58,6.49-37.12,25.27-45.03,45.72-.83,2.16-4.3,11.61-4.15,13.09.33,3.2,17.21,14.68,20.78,16.75,16.51,9.57,37.04,14.69,55.89,9.68,1.17-.31,7.74-2.49,7.98-2.88ZM154.5,216c1.25-16.49,10.52-30.45,20.7-42.78l-6.22-9.61c-10.21,1.15-20.56,1.18-30.5-1.55-4.67,9.07-3.62,21.76-.84,31.43,2.49,8.65,8.44,18.71,16.87,22.5ZM278.22,194.95c-5.91-34.98-52.47-38.93-78.69-24.67-.82,1.2,3.11,5.59,4.08,6.72,14.1,16.39,40.25,24.66,61.3,21.53,4.56-.68,8.93-2.24,13.3-3.59ZM273.75,208.51c-31.95,7.6-65.64-5.03-84.74-31.51,2.19,11.91,1.99,22.7-2.25,34.14-1.51,4.07-3.96,7.5-5.26,11.61l38.59,2.22c13.71-9.24,30.89-11.87,47.18-9.93,2.75-1.48,5.3-3.56,6.48-6.53ZM178.5,199.12c.42-3.37-.31-7.42,0-10.88-8.21,8.22-11.14,20.1-13.51,31.12.73.88,2.83.41,3.75,0,3.33-1.49,9.29-16.49,9.76-20.24ZM65.25,223.88c-.57,3.84,0,10.06,0,14.25,0,.91,1.64,6.94,2.04,8.46,7.24,27.74,28.5,46.24,56.08,52.67,1.52-18.18,6.32-36.29,16.14-51.75-27.32,3.75-52.81-8.23-73.13-25.5-.21-.09-1.09,1.67-1.12,1.87ZM217.7,293.04c3.48,2.87,25.69,2.86,30.91,2.45,14.9-1.18,33.98-9.12,46.37-17.38,2.17-1.45,12.97-9.55,13.63-11.12,2.89-6.89-2.62-19.52-7.56-24.66-5.43-5.64-22.34-14.84-30.01-15.04-2.34-.06-6.31,2.81-8.89,3.73-7.6,2.69-15.97,4.55-24.03,5.22-8.82.74-11.85-2.86-17.79,5.46-6.49,9.1-11.85,26.51-9.37,37.46.67,2.97,4.6,12.1,6.74,13.87ZM165.86,237.86c.99,15.64,9.52,30.37,21.99,39.64,7.41-10.04,17.09-32.58,3.66-41.13-7.56-4.81-18.05-1.94-25.64,1.49ZM156,246l-4.48,4.14c-10.24,14.71-15.35,32.78-16.52,50.61,15.41,0,33.11-2.41,44.2-13.98-2.96-4.19-6.91-7.46-10-11.59-6.22-8.3-11.41-18.9-13.19-29.19ZM237.76,308.24c12.83,5.01,26.29,7.32,40.01,8.05,2.4-.38,13.76-11.53,15.87-14.03,1.66-1.97,10.53-14.23,9.36-15.76-13.68,9.95-29.78,15.95-46.32,19.3l-18.92,2.44ZM259.5,325.51c-14.19-1.33-28.06-6.48-39.69-14.7-2.47-1.75-5.92-5.79-8.04-6.96-2.68-1.48-7.43-2.32-10.54-3.71-3.87-1.73-7.55-3.89-11.23-5.98-4.82,2.39-8.66,6.6-13.53,9.45-11.65,6.83-24.96,9.62-38.48,9.15,2.2,3.95,5.1,7.61,8.64,10.48,23.09,18.67,74.66,15.45,101.61,7.14,3.64-1.12,8.5-2.32,11.25-4.87Z"/>
</svg>