<?xml version="1.0" encoding="UTF-8"?>
<svg id="Layer_1" data-name="Layer 1" xmlns="http://www.w3.org/2000/svg" viewBox="0 0 384 384">
  <defs>
    <style>
      .cls-1 {
        fill: none;
      }
    </style>
  </defs>
  <path class="cls-1" d="M384,0v384H0V0h384ZM313.5,87.75h-17.62c-2.77,0-3.52,4.87-1.46,6.72,4.18,3.23,24.98,26.77,27.74,27.06,1.76.18,2.86-.94,4.11-1.88,4.6-3.47,20.92-19.78,24.37-24.37,8.07-10.73-13.82-6.87-19.14-7.51-7.19-53.85-66.13-83.65-114.5-57.88-7.42,3.96-23.5,13.08-16,23.01,6.7,8.87,15.12-1.45,21.07-5.19,36.36-22.82,84-1.74,91.43,40.06ZM221.83,139c0-60.16-48.77-108.93-108.93-108.93S3.97,78.84,3.97,139s48.77,108.93,108.93,108.93,108.93-48.77,108.93-108.93ZM179,259.75c-5.19-5.23-15.58-2.53-16.28,5.37-.53,6.01,6.84,17.56,10.37,22.67,44.99,65.12,145.41,64.42,189.19-1.64s3.43-150.05-71.25-165.05c-14.26-2.86-41.09-4.1-54.45,1.85-9.95,4.43-6.49,19.25,5.97,17.97s20.61-3.87,33.86-2.95c68.83,4.81,109.94,84.91,67.41,141.71-39.93,53.32-123.3,49.05-158.13-7.5-2.05-3.33-4.29-10.01-6.69-12.44ZM246,205.5c5.22-13.12,19.45-22.75,33.39-23.99,9.44-.84,30.59,4.74,28.07-10.85-.83-5.12-6.45-6.76-10.84-7.15-31.4-2.83-60.06,11.1-70.24,41.86-8.52-.35-24.47-1.31-20.53,12.16.64,2.2,4.6,5.97,6.78,5.97h10.88v9h-11.62c-1.94,0-5.74,3.73-6.21,5.78-3.31,14.33,13.16,12.31,22.24,12.32,11.85,34.84,44.04,48.02,78.68,37.6,6.6-1.98,15.32-4.33,13.51-13.15-2.68-13.03-21.65-2.08-30.22-1.31-18.96,1.71-34.83-5.89-43.11-23.24h37.12c3.1,0,6.67-5.42,6.73-8.61.07-3.84-3.43-9.39-7.48-9.39h-41.62v-9h49.12c.82,0,4.05-2.47,4.76-3.49,2.63-3.73,2.37-8.41-.98-11.54-.95-.88-4.29-2.97-5.28-2.97h-43.12ZM77.25,296.25h16.88c3.56,0,4.44-4.28,2.21-6.72l-27.75-27.07c-3.31-.06-4.11,3.01-5.92,4.58-3.69,3.2-23.76,21.47-24.29,24.5-1.27,7.26,16.74,4.01,20.86,4.71,7.3,50.99,60.01,80.75,107.99,61.11,5.59-2.29,20.75-11.16,23.58-16.17,3.67-6.51-2.23-14.71-9.51-13.29-3.84.75-13.15,9.29-18.27,11.76-35.87,17.3-78.85-4.5-85.78-43.41Z"/>
  <path d="M179,259.75c2.4,2.42,4.64,9.1,6.69,12.44,34.82,56.54,118.2,60.81,158.13,7.5,42.54-56.8,1.42-136.9-67.41-141.71-13.25-.93-21.72,1.7-33.86,2.95s-15.92-13.53-5.97-17.97c13.36-5.96,40.19-4.72,54.45-1.85,74.68,15,114.48,99.81,71.25,165.05s-144.2,66.77-189.19,1.64c-3.53-5.11-10.9-16.66-10.37-22.67.7-7.9,11.1-10.61,16.28-5.37Z"/>
  <path d="M246,205.5h43.12c.99,0,4.33,2.09,5.28,2.97,3.35,3.13,3.61,7.81.98,11.54-.72,1.02-3.94,3.49-4.76,3.49h-49.12v9h41.62c4.05,0,7.55,5.55,7.48,9.39-.06,3.19-3.63,8.61-6.73,8.61h-37.12c8.28,17.35,24.15,24.95,43.11,23.24,8.56-.77,27.53-11.72,30.22,1.31,1.81,8.82-6.91,11.16-13.51,13.15-34.63,10.42-66.82-2.76-78.68-37.6-9.08-.01-25.55,2.01-22.24-12.32.47-2.05,4.27-5.78,6.21-5.78h11.62v-9h-10.88c-2.18,0-6.13-3.77-6.78-5.97-3.94-13.47,12.01-12.5,20.53-12.16,10.18-30.77,38.83-44.7,70.24-41.86,4.39.4,10.01,2.04,10.84,7.15,2.52,15.58-18.62,10-28.07,10.85-13.94,1.24-28.17,10.87-33.39,23.99Z"/>
  <path d="M77.25,296.25c6.93,38.91,49.91,60.71,85.78,43.41,5.12-2.47,14.44-11.01,18.27-11.76,7.28-1.42,13.18,6.77,9.51,13.29-2.83,5.02-17.99,13.88-23.58,16.17-47.98,19.65-100.69-10.12-107.99-61.11-4.12-.71-22.14,2.55-20.86-4.71.53-3.04,20.6-21.31,24.29-24.5,1.81-1.57,2.61-4.64,5.92-4.58l27.75,27.07c2.23,2.43,1.34,6.72-2.21,6.72h-16.88Z"/>
  <g>
    <path d="M221.83,139c0,60.16-48.77,108.93-108.93,108.93S3.97,199.16,3.97,139,52.74,30.07,112.9,30.07s108.93,48.77,108.93,108.93ZM202.87,139.01c0-49.69-40.28-89.98-89.98-89.98S22.92,89.31,22.92,139.01s40.28,89.98,89.98,89.98,89.98-40.28,89.98-89.98Z"/>
    <path d="M313.5,87.75c-7.44-41.8-55.08-62.88-91.43-40.06-5.95,3.74-14.37,14.05-21.07,5.19-7.49-9.92,8.58-19.05,16-23.01,48.37-25.77,107.31,4.04,114.5,57.88,5.33.65,27.21-3.22,19.14,7.51-3.45,4.59-19.77,20.9-24.37,24.37-1.25.95-2.35,2.07-4.11,1.88-2.76-.29-23.56-23.82-27.74-27.06-2.05-1.85-1.31-6.72,1.46-6.72h17.62Z"/>
    <path d="M122.34,80.17c8.26,1.33,21.05,13.2,21.64,21.55.38,5.42-4.03,10-9.35,10.09-9.47.17-8.12-9.11-15.12-12.68-13.95-7.13-26.57,10.17-17.12,20.12,10.85,11.42,33.09,19.69,40.02,34.98,6.71,14.82,2.24,32.58-11.65,41.38-1.44.91-8.13,3.6-8.37,4-.42.68,0,4.1-.47,5.91-1.85,7.18-12.01,8.92-16.47,2.93-2.64-3.54-1.26-7.47-2.26-8.99-.22-.33-5.75-2.58-7.1-3.4-6.96-4.21-18.44-16.53-13.15-25.03,3.53-5.67,11.6-6.17,15.75-.82,2.47,3.18,1.8,5.99,6.09,8.91,14.18,9.68,29.14-8.45,17.98-20.6s-36.09-20.94-41.21-37.92c-5.12-16.98,4.8-35.77,21.89-40.43-2.55-18.77,21.47-19.07,18.92,0Z"/>
  </g>
</svg>