<svg width="64" height="64" viewBox="0 0 64 64" fill="none" xmlns="http://www.w3.org/2000/svg">
<g id="changes 1" clip-path="url(#clip0_1586_1276)">
<g id="Group">
<path id="Vector" d="M55.875 57.3753H40V41.3753L46.33 47.617C52.4083 42.3336 54.7383 33.8303 52.5033 26.062C50.54 19.2403 45.045 13.617 38.2217 11.5936C37.1717 11.282 35.7367 11.1736 34.84 10.8503C34.7483 10.817 34.6783 10.772 34.6267 10.6886V5.50195C45.1333 6.40362 54.2533 13.9103 57.41 23.9053C60.51 33.7253 57.6767 44.507 50.1283 51.4386L55.8767 57.377L55.875 57.3753Z" fill="#163300"/>
<g id="Group_2">
<path id="Vector_2" d="M24 6.62471V22.6247L17.58 16.383C9.18833 24.0114 8.35166 36.7564 15.5033 45.558C18.0367 48.6747 22.0067 51.3214 25.875 52.4364C27.0333 52.7697 28.28 52.8814 29.375 53.3114V58.498C18.6767 57.568 9.39 49.7964 6.41 39.5247C3.60166 29.8464 6.475 19.3364 13.8717 12.5597L8.12333 6.62305H23.9983L24 6.62471Z" fill="#163300"/>
<path id="Vector_3" d="M43.33 21.7578L46.8833 25.1828L46.945 25.4978L28.1867 44.2478L17.0083 33.0445L20.6867 29.2511L28.295 36.7411L43.33 21.7578Z" fill="#163300"/>
</g>
</g>
</g>
<defs>
<clipPath id="clip0_1586_1276">
<rect width="64" height="64" fill="white"/>
</clipPath>
</defs>
</svg>
