<svg width="61" height="61" viewBox="0 0 61 61" fill="none" xmlns="http://www.w3.org/2000/svg">
<g clip-path="url(#clip0_2562_2520)">
<path fill-rule="evenodd" clip-rule="evenodd" d="M11.8034 0H50.2045C56.7188 0 61.998 5.27941 61.998 11.7995V50.2006C61.998 56.7149 56.7188 62 50.1985 62H11.8034C5.28307 61.994 0.00390625 56.7149 0.00390625 50.1946V11.7995C0.00390625 5.27917 5.28332 0 11.8034 0Z" fill="#50C800"/>
<path fill-rule="evenodd" clip-rule="evenodd" d="M62 40.048V22.1158C61.3007 20.4152 60.2744 18.8683 58.9792 17.563C59.0942 15.6377 58.6642 13.6884 57.6654 11.9508C57.0115 10.8126 55.4314 10.6492 54.5476 11.6299L52.5437 13.8518C52.5315 13.8458 52.5194 13.8458 52.5072 13.8399C52.7676 11.8114 52.4224 9.71704 51.4295 7.84631C50.8121 6.68379 49.4742 6.47797 48.554 7.42227L38.9278 17.1757C38.8189 17.2786 38.7039 17.3874 38.595 17.4965C38.5888 17.5025 38.5767 17.5084 38.5707 17.5146C34.3874 21.3045 27.8671 21.4619 23.8833 17.9808C23.6337 17.708 23.3731 17.4454 23.1022 17.1938L13.4584 7.42847C12.5379 6.48392 11.2001 6.68999 10.5826 7.85251C9.59569 9.71704 9.24455 11.7995 9.49898 13.8156C9.48063 13.8215 9.46252 13.8215 9.44442 13.8277L7.46458 11.6299C6.58079 10.6492 5.00069 10.8126 4.34082 11.9508C3.36008 13.6519 2.93009 15.5591 3.02085 17.4479C1.74543 18.7068 0.72037 20.1962 0 21.8371V40.3324C2.17351 45.291 7.1256 48.7599 12.8831 48.7599H13.5006C19.2097 48.7599 24.1256 45.3515 26.3232 40.4596C28.4362 40.4475 29.9677 40.4415 30.9184 40.4415C32.9766 40.4356 34.581 40.4356 35.7314 40.4356C37.923 45.3393 42.851 48.7599 48.5659 48.7599H49.0018C54.8685 48.7599 59.8932 45.1575 62 40.048Z" fill="#8EE000"/>
<path fill-rule="evenodd" clip-rule="evenodd" d="M13.755 18.4045C19.1551 18.4045 23.5384 22.7813 23.5384 28.1879V33.9817C23.5384 39.3818 19.1611 43.7651 13.755 43.7651C8.35454 43.7651 3.97131 39.388 3.97131 33.9817V28.1879C3.97131 22.7816 8.35454 18.4045 13.755 18.4045ZM48.1242 18.4045C53.5244 18.4045 57.9076 22.7813 57.9076 28.1879V33.9817C57.9076 39.3818 53.5303 43.7651 48.1242 43.7651C42.7238 43.7651 38.3406 39.388 38.3406 33.9817V28.1879C38.3406 22.7816 42.7178 18.4045 48.1242 18.4045Z" fill="white"/>
<path fill-rule="evenodd" clip-rule="evenodd" d="M15.2624 24.0227C17.8232 24.0227 19.9057 26.0993 19.9057 28.6663V33.6246C19.9057 36.1854 17.8292 38.2679 15.2624 38.2679C12.7015 38.2679 10.6188 36.1914 10.6188 33.6246V28.6663C10.6188 26.0993 12.7015 24.0227 15.2624 24.0227Z" fill="#4B4B4B"/>
<path fill-rule="evenodd" clip-rule="evenodd" d="M31.0035 35.2786C33.9395 35.2786 36.3189 37.6579 36.3189 40.5939V42.4406C36.3189 45.3769 33.9395 47.756 31.0035 47.756C28.0672 47.756 25.6879 45.3769 25.6879 42.4406V40.5939C25.6879 37.6579 28.0672 35.2786 31.0035 35.2786Z" fill="#F48000"/>
<path d="M23.2842 40.4395C23.9095 37.1041 27.0009 34.6975 30.6998 34.6975C34.0653 34.6975 37.1091 37.1636 37.7225 40.4395V40.7076C37.7225 40.9162 37.651 40.9994 37.4604 40.9758L30.7059 42.1788H30.3068L23.5462 40.9697C23.3557 40.9936 23.2842 40.9101 23.2842 40.7018V40.4395Z" fill="#FFC200"/>
<path fill-rule="evenodd" clip-rule="evenodd" d="M29.3953 35.8532C29.7484 35.768 30.1101 35.724 30.4734 35.7222C30.8606 35.7222 31.2539 35.77 31.6411 35.8712C32.0228 35.9696 32.3611 36.192 32.6026 36.5036C32.8441 36.8152 32.9751 37.1983 32.9751 37.5925C32.9752 37.7474 32.9448 37.9008 32.8856 38.044C32.8264 38.1871 32.7395 38.3172 32.63 38.4267C32.5204 38.5363 32.3904 38.6231 32.2472 38.6824C32.1041 38.7416 31.9507 38.772 31.7957 38.7719H29.2108C29.0559 38.772 28.9025 38.7416 28.7593 38.6824C28.6162 38.6231 28.4861 38.5363 28.3766 38.4267C28.267 38.3172 28.1802 38.1871 28.1209 38.044C28.0617 37.9008 28.0313 37.7474 28.0314 37.5925C28.0253 36.7705 28.5913 36.0498 29.3953 35.8532Z" fill="#FFE747"/>
<path fill-rule="evenodd" clip-rule="evenodd" d="M45.8647 23.6353C48.3845 23.6353 50.4334 25.6783 50.4334 28.204V33.0823C50.4334 35.6018 48.3904 37.6507 45.8647 37.6507C43.3452 37.6507 41.2963 35.6077 41.2963 33.0823V28.204C41.3021 25.6783 43.3452 23.6353 45.8647 23.6353Z" fill="#4B4B4B"/>
<path d="M11.1563 29.1748C12.7849 29.1748 14.1048 27.86 14.1048 26.2383C14.1048 24.6165 12.7849 23.3018 11.1563 23.3018C9.52804 23.3018 8.20789 24.6165 8.20789 26.2383C8.20789 27.86 9.52804 29.1748 11.1563 29.1748ZM41.5583 29.1748C43.1866 29.1748 44.5067 27.86 44.5067 26.2383C44.5067 24.6165 43.1866 23.3018 41.5583 23.3018C39.9297 23.3018 38.6098 24.6165 38.6098 26.2383C38.6098 27.86 39.9297 29.1748 41.5583 29.1748Z" fill="white"/>
</g>
<defs>
<clipPath id="clip0_2562_2520">
<rect width="61" height="61" fill="white"/>
</clipPath>
</defs>
</svg>
