<?xml version="1.0" encoding="UTF-8"?>
<svg id="Layer_1" data-name="Layer 1" xmlns="http://www.w3.org/2000/svg" viewBox="0 0 387.36 329.25">
  <path d="M0,209.03l5.28-9.47,83.2-83.21c8.91-6.95,19-5.86,27.26,1.52l60.88,60.89L312.43,42.24c0-1.99-16.11-16.04-18.58-19.27-6.16-8.07-2.52-18.2,7.65-19.62,16.03-2.23,36.4-1.78,52.92-2.3,7.78-.25,23.23-3.25,29.27,2.22s3.06,14.94,2.81,21.54c-.68,18.36-.45,38.65-2.25,56.75-.76,7.63-6.38,14.88-14.66,13.95-7.06-.79-18.71-16.94-24.67-21.55h-1.5l-157.3,156.66c-8.3,4.14-15.46,3.15-22.67-2.37l-61.82-61.53-62.66,61.99c-14.24,14.75-33.06,4.76-38.98-12.12v-7.56Z"/>
  <path d="M346.93,326.76c-.96.96-2.48,1.7-3.86,1.81-15.93-1.51-35.22,1.9-50.74,0-2.66-.33-4.5-1.98-5.44-4.38l-.05-160.02,57.71-58.01c1.5,1.79,4.15,3.01,4.2,5.62l-.24,212.41c-.42.88-.89,1.87-1.58,2.56Z"/>
  <path d="M262.48,188.6v133.51c0,2.93-3.32,6.09-6.41,6.45-15.67,1.82-34.69-1.42-50.74.02-2.49-.09-4.16-2.53-5.3-4.54l.05-74.92c2.16-1.74,4.82-3.4,6.82-5.28,19.02-17.84,36.33-37.61,55.58-55.24Z"/>
  <path d="M112.71,211.29c1.32-.33,1.51.55,2.27,1.13,14.7,11.26,28.39,34.34,45.94,41.05,4.64,1.77,8.89,2.57,13.86,2.78l.72,65.87c-.18,2.85-2.68,6.14-5.65,6.45-15.69-1.78-36.36,2.27-51.43-.08-2.67-.42-5.72-4-5.72-6.39v-110.82Z"/>
  <path d="M88.5,324.38c-.51,2.04-3.51,3.92-5.66,4.17-15.59,1.87-34.74-1.45-50.72.02-2.63-.29-4.53-2.01-5.44-4.38l-.16-65.21c10.5-.68,19.14-5.39,26.83-12.12,12.15-10.63,22.76-24.29,35.15-34.82v112.33Z"/>
</svg>