<svg width="65" height="66" viewBox="0 0 65 66" fill="none" xmlns="http://www.w3.org/2000/svg">
<g id="multiple-users-silhouette 1" clip-path="url(#clip0_1586_1204)">
<g id="Group">
<path id="Vector" d="M44.98 38.7348C49.91 43.6748 48.22 50.3148 48.52 56.6348C48.53 56.7948 48.49 56.8848 48.39 57.0048C48.25 57.1648 46.66 57.8148 46.33 57.9448C45.08 58.4148 43.56 58.8248 42.25 59.1048C33.76 60.9348 24.78 59.7548 16.59 57.1748L16.57 46.2448C17.33 39.7148 22.11 35.5248 28.61 35.1848C34.13 34.8948 40.82 34.5648 44.98 38.7348Z" fill="#163300"/>
<g id="Group_2">
<path id="Vector_2" d="M0.110002 36.3154C0.670002 30.7854 5.49 26.0054 11.03 25.5654C14.22 25.3154 17.72 25.7554 20.95 25.5654C20.98 27.5654 21.61 29.5954 22.64 31.3054C23.16 32.1554 23.83 32.8454 24.44 33.6254C20.18 34.9054 16.58 38.3054 15.11 42.5254C14.23 45.0554 14.28 47.5354 14.33 50.1854C9.48 49.9254 4.71 48.8954 0.110002 47.4354C0.370002 43.8754 -0.239998 39.8054 0.110002 36.3154Z" fill="#163300"/>
<path id="Vector_3" d="M63.97 47.2954C59.89 49.3454 55.28 49.9754 50.77 50.3154C50.79 48.3854 50.8 46.4654 50.46 44.5654C49.55 39.5454 45.58 35.0554 40.66 33.6954C40.61 33.5054 40.71 33.4854 40.78 33.3854C42.18 31.3654 43.33 30.3554 43.84 27.7054C43.91 27.3554 44.04 25.6954 44.14 25.6354C47 25.6954 50.12 25.3754 52.95 25.5754C57.3 25.8854 61.35 28.8654 63.01 32.8654C64.82 37.2254 63.67 42.6554 63.97 47.3054V47.2954Z" fill="#163300"/>
<g id="Group_3">
<path id="Vector_4" d="M32.52 34.5852C37.6894 34.5852 41.88 30.3856 41.88 25.2052C41.88 20.0248 37.6894 15.8252 32.52 15.8252C27.3506 15.8252 23.16 20.0248 23.16 25.2052C23.16 30.3856 27.3506 34.5852 32.52 34.5852Z" fill="#163300"/>
<g id="Group_4">
<path id="Vector_5" d="M14.81 6.23492C20.05 5.69492 25.02 9.23492 25.42 14.6549C25.57 16.5949 25.09 16.1449 24 17.3249C23.09 18.3049 22.09 19.9449 21.63 21.2049C21.44 21.7349 21.24 23.1049 21 23.4449C20.83 23.6749 20.03 24.0449 19.73 24.1749C12.46 27.2149 5 20.5749 7.06 12.9849C7.99 9.55492 11.23 6.60492 14.8 6.24492L14.81 6.23492Z" fill="#163300"/>
<path id="Vector_6" d="M44.05 24.045C43.72 20.465 41.63 17.335 38.69 15.365C38.77 5.995 51.41 2.625 56.11 10.785C60.73 18.805 52.35 27.805 44.05 24.045Z" fill="#163300"/>
</g>
</g>
</g>
</g>
</g>
<defs>
<clipPath id="clip0_1586_1204">
<rect width="64.11" height="64.11" fill="white" transform="translate(0 0.945312)"/>
</clipPath>
</defs>
</svg>
