<?xml version="1.0" encoding="UTF-8"?>
<svg id="Layer_1" data-name="Layer 1" xmlns="http://www.w3.org/2000/svg" viewBox="0 0 384 384">
  <defs>
    <style>
      .cls-1 {
        fill: none;
      }
    </style>
  </defs>
  <path class="cls-1" d="M0,246.75c2.04,6.36,6.2,12.38,12.77,14.6,5.61,1.9,31.93,1.92,37.64.19,4.84-1.47,13.33-8.39,13.33-13.67v-36.38h71.62c5.28,12.44,20.35,16.74,30.74,7.68,8,6.04,17.9,6.91,25.61-.13,8.4,6.61,17.67,6.54,26.15.13,10.43,9.13,25.49,4.57,30.74-7.68h71.62v36.38c0,5.27,8.5,12.2,13.33,13.67,5.72,1.74,32.03,1.71,37.64-.19,6.57-2.22,10.73-8.24,12.77-14.6v137.25H0v-137.25ZM128.25,255.75c2.55-12.97-10-24.85-21.77-16.15-4.89,3.61-23.4,22.77-26.98,27.77-3.88,5.43-3.68,10.87.35,16.14,4.43,5.78,20.23,22.27,25.87,26.63,12.2,9.42,24.8-1.56,22.52-15.39h44.62c5.21,0,11.75-5.52,12.39-10.86.47-3.93.42-16.87-.73-20.3s-6.72-7.84-10.16-7.84h-46.12ZM255.75,294.75c-2.38,13.8,10.38,24.67,22.52,15.39,4.95-3.78,21.96-21.51,25.87-26.63,4.03-5.26,4.24-10.7.35-16.14-4.19-5.85-20.08-21.95-25.85-26.65-12.47-10.13-25,.71-22.89,15.02h-46.12c-3.44,0-9.03,4.48-10.16,7.84s-1.2,16.37-.73,20.3c.64,5.34,7.18,10.86,12.39,10.86h44.62Z"/>
  <path class="cls-1" d="M0,137.25V0h384v137.25c-2.04-6.36-6.2-12.38-12.77-14.6-5.61-1.9-31.93-1.92-37.64-.19-4.84,1.47-13.33,8.39-13.33,13.67v36.38h-71.62c-5.27-12.35-20.33-16.87-30.74-7.68-8-6.04-17.9-6.91-25.61.13-8.4-6.61-17.67-6.54-26.15-.13-10.45-9.2-25.48-4.65-30.74,7.68H63.75v-36.38c0-5.27-8.5-12.2-13.33-13.67-5.72-1.74-32.03-1.71-37.64.19-6.57,2.22-10.73,8.24-12.77,14.6ZM128.25,89.25c2.28-13.84-10.32-24.81-22.52-15.39-5.42,4.18-21.62,21.07-25.87,26.63-4.04,5.27-4.24,10.71-.35,16.14s21.89,24.01,26.98,27.77c11.77,8.7,24.32-3.17,21.77-16.15h46.12c3.44,0,9.03-4.48,10.16-7.84s1.2-16.37.73-20.3c-.64-5.34-7.18-10.86-12.39-10.86h-44.62ZM255.75,128.25c-2.14,14.22,10.49,25.09,22.89,15.02,6.19-5.02,20.67-19.95,25.5-26.25,4.21-5.49,4.21-11.04,0-16.53s-20.69-22.66-25.87-26.63c-12.14-9.28-24.9,1.59-22.52,15.39h-44.62c-5.21,0-11.75,5.52-12.39,10.86-.47,3.93-.42,16.87.73,20.3s6.72,7.84,10.16,7.84h46.12Z"/>
  <g>
    <g>
      <path d="M0,137.25c2.04-6.36,6.2-12.38,12.77-14.6,5.61-1.9,31.93-1.92,37.64-.19,4.84,1.47,13.33,8.39,13.33,13.67v36.38h71.62c5.27-12.33,20.29-16.89,30.74-7.68,8.48-6.42,17.75-6.48,26.15.13,7.71-7.04,17.62-6.17,25.61-.13,10.41-9.19,25.47-4.67,30.74,7.68h71.62v-36.38c0-5.27,8.5-12.2,13.33-13.67,5.72-1.74,32.03-1.71,37.64.19,6.57,2.22,10.73,8.24,12.77,14.6v109.5c-2.04,6.36-6.2,12.38-12.77,14.6-5.61,1.9-31.93,1.92-37.64.19-4.84-1.47-13.33-8.39-13.33-13.67v-36.38h-71.62c-5.26,12.26-20.32,16.81-30.74,7.68-8.48,6.42-17.75,6.48-26.15-.13-7.71,7.04-17.62,6.17-25.61.13-10.39,9.06-25.46,4.75-30.74-7.68H63.75v36.38c0,5.27-8.5,12.2-13.33,13.67-5.72,1.74-32.03,1.71-37.64-.19-6.57-2.22-10.73-8.24-12.77-14.6v-109.5ZM49.26,135.99c-1.01-.92-3.24-1.6-4.62-1.76-5.13-.57-21.35-.71-26.22.06-2.58.41-4.71,2.57-5.51,4.99l-.18,104.11c.14,3,2.36,5.36,5.22,6.03,3.72.88,23.36.92,27.38.28,2.32-.37,4.31-2.29,5.51-4.24l-.05-106.91c-.43-.81-.88-1.97-1.53-2.57ZM334.74,248.01c1.01.92,3.24,1.6,4.62,1.76,5.52.62,19.24.6,24.77-.02,3.37-.38,5.86-1.66,6.97-5.03l.18-104.11c-.02-2.63-2.54-5.64-5.05-6.2-3.66-.82-23.41-.69-27.54-.11-2.5.35-4.67,1.83-5.47,4.26v106.88c.43.81.88,1.97,1.53,2.57ZM153.49,172.72c-3.07.16-5.72,2.6-6.32,5.58-.72,3.6-.68,24.63.18,27.97,1.63,6.33,10.19,6.54,12.38.34-.85-8.87,1.2-19.95.06-28.52-.36-2.71-3.41-5.51-6.3-5.36ZM178.99,172.72c-3.69.19-5.74,2.91-6.31,6.33-.85,5.1-.68,18.45-.21,23.85.78,8.93,8.28,11.66,12.76,3.7-.85-8.87,1.2-19.95.06-28.52-.36-2.71-3.41-5.51-6.3-5.36ZM204.49,172.72c-3.21.17-5.49,3.01-5.79,6.11-.85,8.73.71,18.88.06,27.78,3.01,6.85,11.3,5.86,12.55-1.66.77-4.61.77-22.04-.15-26.49-.68-3.26-3.08-5.93-6.67-5.74ZM229.99,172.72c-3.21.17-5.49,3.01-5.79,6.11-.85,8.73.71,18.88.06,27.78,2.41,6.53,11.21,5.81,12.56-.91.72-3.6.68-24.63-.18-27.97-.73-2.83-3.68-5.17-6.65-5.01ZM134.25,185.25H63.75v13.5h70.5v-13.5ZM320.25,185.25h-70.5v13.5h70.5v-13.5Z"/>
      <g>
        <path d="M128.25,255.75h46.12c3.44,0,9.03,4.48,10.16,7.84s1.2,16.37.73,20.3c-.64,5.34-7.18,10.86-12.39,10.86h-44.62c2.28,13.84-10.32,24.81-22.52,15.39-5.64-4.36-21.45-20.85-25.87-26.63-4.04-5.27-4.24-10.71-.35-16.14,3.58-5,22.09-24.16,26.98-27.77,11.77-8.7,24.32,3.17,21.77,16.15ZM115.5,249.75l-25.45,25.23,25.45,25.77v-15.38c0-1.09,5.02-4.12,6.38-4.12h50.62v-12.75h-53.62c-.24,0-3.38-3.14-3.38-3.38v-15.38Z"/>
        <path d="M255.75,294.75h-44.62c-5.21,0-11.75-5.52-12.39-10.86-.47-3.93-.42-16.87.73-20.3s6.72-7.84,10.16-7.84h46.12c-2.11-14.31,10.42-25.14,22.89-15.02,5.78,4.69,21.67,20.79,25.85,26.65,3.89,5.44,3.68,10.88-.35,16.14-3.92,5.11-20.93,22.84-25.87,26.63-12.14,9.28-24.9-1.59-22.52-15.39ZM211.5,281.25h50.62c1.36,0,6.38,3.03,6.38,4.12v14.25l1.5.76,23.95-25.4-25.45-25.23v15.38c0,.24-3.14,3.38-3.38,3.38h-53.62v12.75Z"/>
      </g>
    </g>
    <g>
      <path d="M128.25,89.25h44.62c5.21,0,11.75,5.52,12.39,10.86.47,3.93.42,16.87-.73,20.3s-6.72,7.84-10.16,7.84h-46.12c2.55,12.97-10,24.85-21.77,16.15-5.09-3.76-23.25-22.56-26.98-27.77s-3.68-10.87.35-16.14c4.26-5.55,20.46-22.44,25.87-26.63,12.2-9.42,24.8,1.56,22.52,15.39ZM115.5,83.25l-25.45,25.23,25.45,25.77v-15.38c0-.24,3.14-3.38,3.38-3.38h53.62v-12.75h-50.62c-1.36,0-6.38-3.03-6.38-4.12v-15.38Z"/>
      <path d="M255.75,128.25h-46.12c-3.44,0-9.03-4.48-10.16-7.84s-1.2-16.37-.73-20.3c.64-5.34,7.18-10.86,12.39-10.86h44.62c-2.38-13.8,10.38-24.67,22.52-15.39,5.19,3.96,21.78,21.29,25.87,26.63s4.21,11.05,0,16.53c-4.83,6.3-19.31,21.23-25.5,26.25-12.4,10.07-25.03-.8-22.89-15.02ZM268.5,134.25l25.45-25.77-25.45-25.23v15.38c0,1.09-5.02,4.12-6.38,4.12h-50.62v12.75h53.62c.24,0,3.38,3.14,3.38,3.38v15.38Z"/>
    </g>
  </g>
</svg>