<?xml version="1.0" encoding="UTF-8"?>
<svg id="Layer_1" data-name="Layer 1" xmlns="http://www.w3.org/2000/svg" viewBox="0 0 384 384">
  <defs>
    <style>
      .cls-1 {
        fill: #fff;
      }
    </style>
  </defs>
  <path d="M236.25,0c4.52,2.28,8.3,4.06,9.79,9.34,1.2,121.58,1.18,243.73,0,365.33-1.64,4.97-5.31,7.25-9.8,9.33h-88.5c-4.52-2.28-8.3-4.06-9.79-9.34-1.32-121.41-.92-243.3-.2-364.77,1.32-5.49,5.31-7.6,9.99-9.89h88.5Z"/>
  <path d="M384,120v253.5c-2.2,5.35-5.15,8.3-10.5,10.5h-88.5c-5.48-2.17-9.4-5.47-10.52-11.61l.37-253.16c2.11-5.85,6.66-9.1,12.78-9.72,26.38,1.47,54.9-1.99,81.02-.04,7.65.57,12.22,3.52,15.34,10.53Z"/>
  <path d="M99,384H10.5c-5.35-2.2-8.3-5.15-10.5-10.5v-212.25c3.15-6.99,6.79-9.95,14.59-10.53,26.81-2,56.14,1.51,83.22.1,5.66,1.03,9.38,4.36,11.34,9.66l.37,211.91c-1.11,6.13-5.04,9.44-10.52,11.61Z"/>
  <path class="cls-1" d="M10.5,384H0v-10.5c2.2,5.35,5.15,8.3,10.5,10.5Z"/>
  <path class="cls-1" d="M384,373.5v10.5h-10.5c5.35-2.2,8.3-5.15,10.5-10.5Z"/>
</svg>