<?xml version="1.0" encoding="UTF-8"?>
<svg id="Layer_1" data-name="Layer 1" xmlns="http://www.w3.org/2000/svg" viewBox="0 0 409.6 409.6">
  <defs>
    <style>
      .cls-1 {
        fill: none;
      }
    </style>
  </defs>
  <path class="cls-1" d="M189.23,409H0V0h409.6v201.71c-2.33-4.16-4.82-7.91-10.03-8.72-15.19-2.37-36.05,1.69-51.87-.07-14.33,2.51-14.33,21.45,0,23.96,15.81-1.75,36.68,2.31,51.87-.07,5.21-.81,7.7-4.56,10.03-8.72v200.91h-188.43c14.69-1.65,31.94-16.84,31.94-32.29v-15.55h-95.81v15.55c0,15.45,17.25,30.64,31.94,32.29ZM202.58.98c-4.46.92-8.61,5.34-9.31,9.83-2.38,15.17,1.69,36-.07,51.79,1.73,14.1,21.84,14.03,23.92.73,2.38-15.17-1.69-36,.07-51.79-1.02-7.09-7.48-12.02-14.61-10.56ZM68.5,57.57c-10.49.89-13.38,12.38-7.34,20.49,4.87,6.55,27.37,29,33.93,33.88,4.83,3.6,9.48,5.06,15.07,1.63,7.16-4.4,6.53-12.52,1.96-18.63-5.09-6.81-26.65-28.28-33.48-33.54-2.89-2.22-6.29-4.16-10.13-3.84ZM339.97,57.57c-3.23.26-6.17,2.26-8.62,4.21-7.08,5.62-27.79,26.11-33.06,33.17-4.57,6.12-5.21,14.24,1.96,18.63,5.59,3.43,10.23,1.97,15.07-1.63,6.56-4.88,29.06-27.34,33.93-33.88,1.63-2.19,3.27-4.95,3.5-7.73.54-6.79-5.95-13.3-12.78-12.76ZM199.45,97.5c-87.6,4.95-133.15,105.04-78.85,173.94,11.05,14.02,20.29,19.87,23.7,39.32,1.69,9.61-1.9,21.93,9.14,25.96l102.28.35c11.26-3.14,8.38-10.94,9.38-19.34,3.77-31.52,22.47-37.74,35.53-62.58,38.85-73.87-17.93-162.35-101.18-157.64ZM10.16,193.12c-12.38,2.87-12.31,21.06,0,23.56,6.32,1.28,46.45,1.2,53.27.13,12.84-2.01,13.4-20.65.67-23.69H10.16Z"/>
  <g>
    <path d="M409.6,201.71v6.38c-2.33,4.16-4.82,7.91-10.03,8.72-15.19,2.37-36.05-1.69-51.87.07-14.33-2.51-14.33-21.45,0-23.96,15.81,1.75,36.68-2.31,51.87.07,5.21.81,7.7,4.56,10.03,8.72Z"/>
    <path d="M10.16,193.12h53.93c12.74,3.04,12.17,21.68-.67,23.69-6.82,1.07-46.95,1.15-53.27-.13-12.31-2.5-12.38-20.69,0-23.56Z"/>
  </g>
  <g>
    <path d="M189.23,409c-14.69-1.65-31.94-16.84-31.94-32.29v-15.55h95.81v15.55c0,15.45-17.25,30.64-31.94,32.29-7.07.8-24.87.8-31.94,0Z"/>
    <path d="M199.45,97.5c83.25-4.71,140.03,83.78,101.18,157.64-13.07,24.85-31.76,31.07-35.53,62.58-1.01,8.39,1.88,16.2-9.38,19.34l-102.28-.35c-11.03-4.03-7.45-16.34-9.14-25.96-3.41-19.44-12.65-25.29-23.7-39.32-54.31-68.9-8.76-168.99,78.85-173.94ZM213.71,148.56c-5.5-5.49-16.89-3.3-23.85-1.63-10.77,2.6-22.47,9.82-29.79,18.09s-21.65,32.03-5.37,38.07c15.42,5.71,16.39-16.24,25.36-24.48,9.92-9.12,16.21-7.38,27.75-9.77,8.98-1.86,12.41-13.78,5.9-20.28Z"/>
    <g>
      <path d="M202.58.98c7.13-1.46,13.59,3.47,14.61,10.56-1.76,15.79,2.31,36.62-.07,51.79-2.09,13.3-22.2,13.37-23.92-.73,1.76-15.79-2.31-36.62.07-51.79.7-4.49,4.85-8.92,9.31-9.83Z"/>
      <path d="M68.5,57.57c3.84-.32,7.24,1.62,10.13,3.84,6.83,5.26,28.4,26.73,33.48,33.54,4.57,6.12,5.21,14.24-1.96,18.63-5.59,3.43-10.23,1.97-15.07-1.63-6.56-4.88-29.06-27.34-33.93-33.88-6.04-8.12-3.14-19.61,7.34-20.49Z"/>
      <path d="M339.97,57.57c6.83-.54,13.32,5.97,12.78,12.76-.22,2.78-1.86,5.54-3.5,7.73-4.87,6.55-27.37,29-33.93,33.88-4.83,3.6-9.48,5.06-15.07,1.63-7.16-4.4-6.53-12.52-1.96-18.63,5.27-7.05,25.97-27.55,33.06-33.17,2.46-1.95,5.39-3.95,8.62-4.21Z"/>
    </g>
  </g>
</svg>