<svg width="59" height="56" viewBox="0 0 59 56" fill="none" xmlns="http://www.w3.org/2000/svg">
<path d="M29.6973 0.262207C34.9448 0.262253 39.5964 1.16798 43.6514 2.979C47.7538 4.79 51.0694 7.31556 53.5977 10.5562C56.1261 13.7493 57.6284 17.4914 58.1055 21.7808H51.3076C50.7351 18.6352 49.4952 15.918 47.5869 13.6304C45.6787 11.2951 43.1977 9.50818 40.1445 8.26904C37.0913 6.98223 33.5846 6.33838 29.625 6.33838C24.9978 6.33842 20.9669 7.22064 17.5322 8.98389C14.1451 10.7473 11.5207 13.2499 9.66016 16.4907C7.79977 19.7315 6.86914 23.5683 6.86914 28.0005C6.8692 32.3848 7.7998 36.1973 9.66016 39.438C11.5207 42.6788 14.1451 45.205 17.5322 47.0161C20.9669 48.7794 24.9978 49.6616 29.625 49.6616C33.5846 49.6616 37.0913 49.0414 40.1445 47.8022C43.1977 46.5154 45.6787 44.7285 47.5869 42.4409C49.4951 40.1056 50.7351 37.3411 51.3076 34.1479H58.1055C57.6284 38.3897 56.1261 42.1553 53.5977 45.4438C51.0694 48.6845 47.7538 51.21 43.6514 53.021C39.5964 54.832 34.9448 55.7377 29.6973 55.7378C23.7817 55.7378 18.5811 54.5702 14.0967 52.2349C9.66012 49.8996 6.20138 46.6585 3.7207 42.5122C1.24013 38.3183 6.54549e-05 33.4811 0 28.0005C0 22.472 1.24003 17.6342 3.7207 13.4878C6.20139 9.34147 9.6601 6.10045 14.0967 3.76514C18.5811 1.42982 23.7817 0.262207 29.6973 0.262207ZM32.9297 22.5142L42.2314 17.1177L45.3926 22.604L36.0908 28.0005L45.3926 33.4419L42.2314 38.9282L32.9297 33.5317V44.3237H26.6074V33.5317L17.3057 38.9282L14.1445 33.4419L23.4473 28.0005L14.1445 22.604L17.3057 17.1177L26.6074 22.5142V11.6772H32.9297V22.5142Z" fill="#E7F8F2"/>
</svg>
