<svg width="64" height="64" viewBox="0 0 64 64" fill="none" xmlns="http://www.w3.org/2000/svg">
<g id="travel-agency 1" clip-path="url(#clip0_1586_1302)">
<g id="Group">
<path id="Vector" d="M47.658 29.7547L47.9115 29.8891C49.1859 29.1456 50.4517 28.6862 51.9592 28.8223C52.7928 28.8972 56.0357 30.1596 56.7588 30.6343C57.9889 31.4408 57.9787 33.3089 56.6465 34.0048L47.7176 37.9265L47.624 53.9265C47.1867 56.0227 45.4955 57.4893 43.3586 57.6441C35.9421 58.1851 27.8775 57.2238 20.393 57.6441C18.268 57.4603 16.3998 55.7487 16.2144 53.5896C16.0476 51.6603 16.342 49.4944 16.2246 47.5395C30.2663 44.9312 42.9349 38.0899 55.9387 32.5756L55.8945 31.9971C54.1489 31.3795 52.4696 30.1154 50.5215 30.4982C44.5206 33.2307 38.7205 36.4242 32.815 39.3642C32.2059 39.6671 31.1153 40.3238 30.4942 40.4106C28.2229 40.727 25.2965 38.163 23.2003 37.3719C23.0353 37.3106 22.8839 37.2817 22.7086 37.3038C23.3398 38.5663 26.0961 41.8347 25.6793 43.2043C25.6418 43.3251 25.5534 43.4084 25.4513 43.4765C21.1825 44.8274 16.6142 46.2413 12.1497 46.7687C9.02934 47.1362 0.945974 47.5871 1.25223 42.7313C1.51935 38.4965 9.59081 32.972 12.9885 30.8878C13.533 30.5526 14.1233 30.1545 14.7239 29.9418V31.8134C14.2135 31.9801 13.6895 32.3408 13.2369 32.6352C10.5334 34.3995 3.4079 39.2672 2.90259 42.5101C2.74095 43.5446 3.04891 44.0533 3.91152 44.5603C5.64865 45.5777 8.92896 45.4518 10.9179 45.2868C12.6686 45.1422 14.4772 44.8325 16.1667 44.4225L16.2212 21.8959C16.6754 19.5327 18.399 18.1392 20.7707 17.9623C28.0085 17.4195 35.9217 18.3774 43.2293 17.9691C44.8966 17.7955 47.6597 20.0159 47.6597 21.6475V29.7564L47.658 29.7547ZM40.5461 33.3123L29.0974 30.602C28.7333 30.5356 27.9489 30.4523 27.8384 30.9048L28.2586 31.6892L34.7767 36.2847L35.0574 36.2557C36.5598 35.2468 38.8158 34.6854 40.2603 33.7105C40.4202 33.6016 40.6006 33.5692 40.5478 33.3123H40.5461ZM45.2863 39.0512L39.7329 41.4195L38.9111 49.2187C39.0268 50.4301 40.2059 51.3744 41.0225 50.0711L45.2845 39.0529L45.2863 39.0512Z" fill="#163300"/>
<path id="Vector_2" d="M37.1774 8.23517V16.5942H35.5559V8.23517H28.3199V16.5942H26.6984V8.23517C25.8256 8.30493 24.7911 7.80301 24.6057 6.89616C24.49 6.3313 24.5087 4.17562 24.6057 3.58693C24.7418 2.77196 25.3254 2.31769 26.1285 2.24112C29.7933 1.88723 34.0179 2.52356 37.7439 2.24112C38.3973 2.26665 38.9775 2.65627 39.1799 3.3011C39.3705 3.9051 39.3824 6.00293 39.3007 6.68009C39.1714 7.74857 38.1846 8.29472 37.1774 8.23687V8.23517Z" fill="#163300"/>
<path id="Vector_3" d="M46.7852 17.2176C47.9864 17.09 49.162 16.7735 50.3581 16.6102C53.3679 16.2019 59.8724 15.5315 61.9464 18.2112C64.279 21.2261 59.9455 25.5528 57.766 27.3852C57.3832 27.7068 56.131 28.8467 55.7363 28.7957C55.6053 28.7786 54.2731 28.2121 54.2731 28.1321C55.9506 26.7438 57.7729 25.3622 59.2003 23.7051C65.8052 16.0368 52.245 17.791 48.3505 18.5906C48.2654 18.5787 47.1578 17.711 46.9928 17.5681C46.8635 17.4575 46.7307 17.4473 46.7852 17.2159V17.2176Z" fill="#163300"/>
<path id="Vector_4" d="M25.4513 58.8867V61.8812H22.1438L21.9566 61.694V58.8867H25.4513Z" fill="#163300"/>
<path id="Vector_5" d="M41.9192 58.8867V61.694L41.732 61.8812H38.4245V58.8867H41.9192Z" fill="#163300"/>
</g>
</g>
<defs>
<clipPath id="clip0_1586_1302">
<rect width="64" height="64" fill="white"/>
</clipPath>
</defs>
</svg>
