<?xml version="1.0" encoding="UTF-8"?>
<svg id="Layer_1" data-name="Layer 1" xmlns="http://www.w3.org/2000/svg" viewBox="0 0 36 36">
  <defs>
    <style>
      .cls-1 {
        fill: none;
      }

      .cls-2 {
        fill: #fff;
      }
    </style>
  </defs>
  <path class="cls-1" d="M.02,11.18V0h35.98v36H.02v-9.91c.24.65.6,1.19,1.29,1.41.09.03.51.14.57.14h18.13c-.43-1.28-.47-2.52,0-3.8H1.46s-.54.24-.62.29c-.43.29-.63.73-.82,1.18v-12.94c.39,4.04,5.37,6.06,8.49,3.48,4.02-3.33,1.31-9.82-3.96-9.25C2.29,6.86.26,8.92.02,11.18ZM23.18,11.79c0-2.88-2.33-5.22-5.21-5.22s-5.21,2.34-5.21,5.22,2.33,5.22,5.21,5.22,5.21-2.34,5.21-5.22ZM35.93,11.79c0-2.88-2.33-5.22-5.2-5.22s-5.2,2.34-5.2,5.22,2.33,5.22,5.2,5.22,5.2-2.34,5.2-5.22ZM28.26,25.7c0-2.05-1.66-3.72-3.71-3.72s-3.71,1.67-3.71,3.72,1.66,3.72,3.71,3.72,3.71-1.67,3.71-3.72ZM29.06,27.63h5.01c1.68,0,2.55-2.3,1.15-3.4-.11-.09-.62-.39-.73-.39h-5.44c.51,1.21.47,2.59,0,3.8Z"/>
  <g>
    <g>
      <ellipse cx="24.55" cy="25.7" rx="3.71" ry="3.72"/>
      <g>
        <path d="M.02,25.31c.19-.46.39-.9.82-1.18.08-.05.58-.29.62-.29h18.55c-.47,1.27-.43,2.52,0,3.8H1.88c-.06,0-.47-.11-.57-.14-.69-.22-1.05-.76-1.29-1.41v-.77Z"/>
        <path d="M29.06,27.63c.47-1.21.51-2.59,0-3.8h5.44c.11,0,.62.3.73.39,1.4,1.11.53,3.4-1.15,3.4h-5.01Z"/>
      </g>
    </g>
    <g>
      <g>
        <g>
          <path d="M.02,12.38c-.03-.3-.03-.89,0-1.2.24-2.26,2.27-4.32,4.52-4.57,5.27-.58,7.98,5.92,3.96,9.25C5.4,18.43.42,16.42.02,12.38ZM6.65,9.46c-.69.02-.65.98-.59,1.48.09.81.97.87,1.16.25.06-.21.06-1.13,0-1.34-.07-.23-.33-.39-.57-.38ZM3.58,9.51c-.45.11-.39,1.24-.33,1.63.1.62.94.55,1.09.11.06-.19.06-1.08.03-1.3-.06-.41-.41-.54-.79-.45ZM3.37,12.95c-.43.08-.6.59-.36.97.48.77,1.8,1.15,2.65,1.05.65-.08,2.45-1.07,1.77-1.83-.52-.58-.96.23-1.38.45-.57.3-1.2.31-1.74-.07-.27-.19-.53-.66-.93-.58Z"/>
          <path class="cls-2" d="M3.37,12.95c.41-.08.66.39.93.58.54.38,1.17.37,1.74.07.42-.22.86-1.03,1.38-.45.68.75-1.11,1.75-1.77,1.83-.86.1-2.17-.28-2.65-1.05-.24-.38-.07-.89.36-.97Z"/>
          <path class="cls-2" d="M6.65,9.46c.24,0,.5.16.57.38.06.21.06,1.13,0,1.34-.19.62-1.07.56-1.16-.25-.06-.5-.09-1.46.59-1.48Z"/>
          <path class="cls-2" d="M3.58,9.51c.38-.09.72.04.79.45.03.22.04,1.11-.03,1.3-.14.44-.99.5-1.09-.11-.06-.39-.13-1.52.33-1.63Z"/>
        </g>
        <g>
          <path d="M23.18,11.79c0,2.88-2.33,5.22-5.21,5.22s-5.21-2.34-5.21-5.22,2.33-5.22,5.21-5.22,5.21,2.34,5.21,5.22ZM16.54,9.46c-.69.02-.65.98-.59,1.48.09.81.97.87,1.16.25.06-.21.06-1.13,0-1.34-.07-.23-.33-.39-.57-.38ZM19.42,9.46c-.24,0-.5.16-.57.38-.06.21-.06,1.13,0,1.34.19.62,1.07.56,1.16-.25.06-.5.09-1.46-.59-1.48ZM16.13,12.95c-.68.12-.62,1.08-.01,1.17.57.09,3.14.09,3.71,0,.61-.1.69-1.08-.07-1.18-.6-.08-3.05-.09-3.62.01Z"/>
          <path class="cls-2" d="M16.13,12.95c.57-.1,3.02-.09,3.62-.01.76.11.68,1.09.07,1.18-.57.09-3.14.09-3.71,0-.61-.1-.67-1.05.01-1.17Z"/>
          <path class="cls-2" d="M16.54,9.46c.24,0,.5.16.57.38.06.21.06,1.13,0,1.34-.19.62-1.07.56-1.16-.25-.06-.5-.09-1.46.59-1.48Z"/>
          <path class="cls-2" d="M19.42,9.46c.69.02.65.98.59,1.48-.09.81-.97.87-1.16.25-.06-.21-.06-1.13,0-1.34.07-.23.33-.39.57-.38Z"/>
        </g>
      </g>
      <g>
        <path d="M35.93,11.79c0,2.88-2.33,5.22-5.2,5.22s-5.2-2.34-5.2-5.22,2.33-5.22,5.2-5.22,5.2,2.34,5.2,5.22ZM29.3,9.46c-.24,0-.5.16-.57.38-.06.21-.06,1.13,0,1.34.19.62,1.07.56,1.16-.25.06-.5.09-1.46-.59-1.48ZM31.91,9.51c-.43.13-.38,1.27-.33,1.63.09.55.97.64,1.1.06.05-.24.05-1.35-.06-1.52-.12-.2-.5-.23-.71-.17ZM32.75,13.81c-.76-.82-2-1.04-3.03-.66-.54.2-1.77,1-1.21,1.67.51.6,1.1-.33,1.51-.52.55-.26,1.03-.22,1.55.09.41.25.77.93,1.3.45.35-.32.13-.75-.13-1.03Z"/>
        <path class="cls-2" d="M32.75,13.81c.26.28.49.72.13,1.03-.54.48-.89-.21-1.3-.45-.52-.31-1-.35-1.55-.09-.41.19-1,1.13-1.51.52-.56-.67.67-1.47,1.21-1.67,1.03-.38,2.26-.17,3.03.66Z"/>
        <path class="cls-2" d="M29.3,9.46c.69.02.65.98.59,1.48-.09.81-.97.87-1.16.25-.06-.21-.06-1.13,0-1.34.07-.23.33-.39.57-.38Z"/>
        <path class="cls-2" d="M31.91,9.51c.21-.06.59-.03.71.17.11.18.12,1.29.06,1.52-.13.58-1.02.49-1.1-.06-.06-.36-.1-1.51.33-1.63Z"/>
      </g>
    </g>
  </g>
</svg>