<?xml version="1.0" encoding="UTF-8"?>
<svg id="Layer_1" data-name="Layer 1" xmlns="http://www.w3.org/2000/svg" viewBox="0 0 351.09 351.09">
  <defs>
    <style>
      .cls-1 {
        fill: none;
      }
    </style>
  </defs>
  <g>
    <path d="M168.3,88.49c22.05-1.73,64.63,9.05,74.82,30.82,6.84,14.61,7.06,39.99-14.11,40.87-34.95-2.3-73.62,2.96-108.14,0-23.54-2.02-20.19-34.36-8.88-47.94,10.49-12.6,40.2-22.48,56.31-23.74Z"/>
    <ellipse cx="175.28" cy="40.49" rx="39.78" ry="39.8"/>
  </g>
  <g>
    <path d="M336.72,351.09h-115.61c-14.27-3.95-15.12-17.58-13.51-30.28,3.46-27.19,45.76-41.17,69.22-41.61,21-.39,60.3,11.06,69.83,31.49,6.22,13.33,7,35.09-9.94,40.4Z"/>
    <path d="M129.45,351.09H13.84c-7.24-2.75-11.7-7.52-13.68-15.06.37-4.35-.51-9.44,0-13.69,3.15-26.3,38.37-39.72,61.23-42.42,26.12-3.09,78.15,9.83,81.67,41.47,1.4,12.59.35,25.75-13.61,29.7Z"/>
    <g>
      <ellipse cx="71.85" cy="231.63" rx="39.79" ry="39.8"/>
      <ellipse cx="278.72" cy="231.63" rx="39.79" ry="39.8"/>
      <path d="M183.64,228.44l37.48,29.91c5.52,7.18-1.88,15.97-9.96,12.01l-35.64-27.95-36.11,27.95c-8.55,4.2-16.11-5.98-9.3-12.72l36.98-29.54v-43.66c1.14-10.81,13.91-11.63,16.24-1.2l.31,45.2Z"/>
    </g>
  </g>
  <g>
    <path class="cls-1" d="M.16,322.34V0h350.92v351.09h-14.37c16.94-5.3,16.15-27.06,9.94-40.4-9.53-20.43-48.83-31.89-69.83-31.49-23.46.44-65.77,14.42-69.22,41.61-1.61,12.7-.77,26.33,13.51,30.28h-91.66c13.96-3.94,15.01-17.11,13.61-29.7-3.52-31.64-55.55-44.56-81.67-41.47-22.86,2.71-58.08,16.12-61.23,42.42ZM215.06,40.49c0-21.98-17.81-39.8-39.78-39.8s-39.78,17.82-39.78,39.8,17.81,39.8,39.78,39.8,39.78-17.82,39.78-39.8ZM168.3,88.49c-16.1,1.26-45.81,11.14-56.31,23.74-11.31,13.58-14.66,45.92,8.88,47.94,34.51,2.96,73.18-2.29,108.14,0,21.18-.88,20.95-26.26,14.11-40.87-10.19-21.77-52.77-32.54-74.82-30.82ZM183.64,228.44l-.31-45.2c-2.33-10.43-15.1-9.61-16.26,1.2v43.66s-36.97,29.54-36.97,29.54c-6.81,6.75.75,16.92,9.3,12.72l36.11-27.95,35.64,27.95c8.08,3.96,15.49-4.84,9.96-12.01l-37.48-29.91ZM111.63,231.63c0-21.98-17.81-39.8-39.79-39.8s-39.79,17.82-39.79,39.8,17.81,39.8,39.79,39.8,39.79-17.82,39.79-39.8ZM318.51,231.63c0-21.98-17.81-39.8-39.79-39.8s-39.79,17.82-39.79,39.8,17.81,39.8,39.79,39.8,39.79-17.82,39.79-39.8Z"/>
    <path class="cls-1" d="M13.84,351.09H.16v-15.06c1.98,7.53,6.45,12.3,13.68,15.06Z"/>
  </g>
</svg>