<svg width="64" height="64" viewBox="0 0 64 64" fill="none" xmlns="http://www.w3.org/2000/svg">
<g id="money-flow 1" clip-path="url(#clip0_1586_1242)">
<g id="Group">
<path id="Vector" d="M34 12.8752V22.1252C35.375 22.2052 36.6917 22.6219 38 23.0002V19.5636C38 19.0619 39.0667 18.0002 39.5633 18.0002H50.5C49.4183 16.5919 45.755 15.0586 47.5 12.8136C48.5067 11.5186 49.7567 12.0836 50.8083 12.8786C52.63 14.2569 55.3717 16.5936 57.0017 18.1852C58.385 19.5369 58.3867 20.4602 57.0017 21.8136C55.335 23.4419 52.79 25.5402 50.935 26.9969C50.5467 27.3019 49.97 27.8369 49.51 27.9452C48.085 28.2802 46.8383 27.1402 47.0117 25.6986C47.1783 24.2986 49.7133 23.1252 50.5017 21.9986H42.0017V25.1236C50.0533 30.2336 52.3617 41.2886 47.3533 49.4119C41.885 58.2819 29.9817 60.7436 21.4633 54.6002C11.3467 47.3036 11.5433 31.8919 22.0033 25.1236V21.9986H13.5033C14.315 23.0936 16.8267 24.3019 16.9933 25.6986C17.2033 27.4569 15.28 28.6536 13.815 27.6252C11.705 25.5336 8.95999 23.7586 6.87666 21.6886C5.66666 20.4852 5.66333 19.5169 6.87666 18.3102C8.95999 16.2402 11.7033 14.4619 13.8167 12.3752C15.4717 11.3219 17.315 12.4136 16.995 14.4302C16.805 15.6352 14.23 16.9986 13.5033 18.0002H24.44C24.9367 18.0002 26.0033 19.0619 26.0033 19.5636V23.0002C27.3117 22.6219 28.6283 22.2052 30.0033 22.1252V12.8752C28.5067 13.8802 27.2233 16.7886 25.0817 15.7352C23.7667 15.0886 23.7683 13.6169 24.625 12.5602C26.3417 10.4452 28.955 8.54523 30.75 6.43524C31.5233 5.82357 32.4717 5.85524 33.2567 6.43524C35.38 8.00523 37.4317 11.0436 39.5683 12.7469C40.665 14.1652 39.595 16.1319 37.8183 16.0036C36.4617 15.9069 35.125 13.6019 34.0033 12.8752H34ZM45.995 39.9986C45.995 32.2686 39.7283 26.0002 31.9967 26.0002C24.265 26.0002 17.9983 32.2669 17.9983 39.9986C17.9983 47.7302 24.265 53.9969 31.9967 53.9969C39.7283 53.9969 45.995 47.7302 45.995 39.9986Z" fill="#163300"/>
<path id="Vector_2" d="M34.0133 30.3626C36.0883 30.7909 38.9767 33.7126 37.705 35.8926C37.0333 37.0442 35.3917 37.1759 34.5017 36.1859C33.7567 35.3592 34.405 34.6876 32.9983 34.1892C29.7 33.0226 28.9383 37.5826 31.7 37.9876C33.3 38.2226 34.2117 38.1326 35.6167 39.1959C39.43 42.0859 38.4767 48.0426 34.0217 49.6426C34.15 52.8009 29.825 52.7659 29.9883 49.6359C28.19 49.1675 26.135 47.3926 26.0017 45.4326C25.8333 42.9559 29.005 42.2959 29.8833 44.4276C30.0017 44.7142 29.9367 45.0776 30.1283 45.3076C30.2467 45.4492 30.89 45.7709 31.1 45.8359C34.3533 46.8659 35.015 42.4042 32.305 42.0059C31.985 41.9592 31.65 42.0359 31.33 41.9809C24.9167 40.8559 24.0633 32.7626 29.9833 30.3509C29.845 27.2092 34.1733 27.2109 34.0167 30.3576L34.0133 30.3626Z" fill="#163300"/>
</g>
</g>
<defs>
<clipPath id="clip0_1586_1242">
<rect width="64" height="64" fill="white"/>
</clipPath>
</defs>
</svg>
