<?xml version="1.0" encoding="UTF-8"?>
<svg id="Layer_1" data-name="Layer 1" xmlns="http://www.w3.org/2000/svg" viewBox="0 0 384 335.55">
  <path d="M.98,200.53c4.19-39.14,41.55-47.17,74.34-44.15,9.51.88,18.44,5.13,25.92,10.79-10.31,11.56-19.07,23.75-24.51,38.43-8.83,23.82-7.77,47.04-7.64,71.78.06,10.85-.02,21.72-.14,32.55-1.24.65-2.59.79-3.98.89-11.39.83-29.03.75-40.46,0-12.5-.81-19.59-6.06-23.53-18.04,2.3-29.33-3.08-63.49,0-92.25Z"/>
  <path d="M384,200.53v91.5c-3.94,12.16-11.57,17.96-24.28,18.79-11.23.73-28.54.81-39.72,0-1.38-.1-2.74-.24-3.98-.89-1.1-46.39,7.25-92.57-22.98-131.83-2.78-3.61-6.07-6.95-9.27-10.19,6.32-6.53,16.88-10.7,25.89-11.53,31.84-2.93,61.44,2.11,72.29,36.09l2.05,8.07Z"/>
  <path d="M178.87,155.75c37.57-2.75,70.13,3.19,94.39,33.92,28.95,36.67,18.38,77.19,20.21,120.72-1.86,20.82-18.01,23.52-35.49,24.42-45.92,2.37-93.83-1.86-139.95,0-13.72-.75-25.26-10.36-26.52-24.42-1.91-21.41-.12-45.9,0-67.48,2.76-48.95,39.11-83.63,87.37-87.16Z"/>
  <ellipse cx="192.49" cy="65.26" rx="65.09" ry="65.26"/>
  <ellipse cx="60.82" cy="89.26" rx="41.13" ry="41.24"/>
  <ellipse cx="324.15" cy="89.26" rx="41.13" ry="41.24"/>
</svg>