<?xml version="1.0" encoding="UTF-8"?>
<svg id="Layer_1" data-name="Layer 1" xmlns="http://www.w3.org/2000/svg" viewBox="0 0 384 384">
  <defs>
    <style>
      .cls-1 {
        fill: none;
      }
    </style>
  </defs>
  <path class="cls-1" d="M180.08,384H.15v-180l3.24,23.39c14.3,77.03,76.31,139.04,153.32,153.37l23.38,3.24Z"/>
  <path class="cls-1" d="M384,204v180h-179.93c4.32-1.15,9.26-1.02,13.76-1.61,81.07-10.59,148.02-74.81,162.93-155.01l3.24-23.39Z"/>
  <path class="cls-1" d="M180.08,0C85.24,5.55,5.7,85.1.15,180V0h179.93Z"/>
  <path class="cls-1" d="M204.07,0h179.93v180l-3.24-23.39C365.81,76.23,298.99,12.35,217.83,1.61c-4.51-.6-9.44-.45-13.76-1.61Z"/>
  <g>
    <path d="M204.07,0c4.32,1.16,9.26,1.01,13.76,1.61,81.16,10.74,147.98,74.62,162.93,155.01l3.24,23.39v24l-3.24,23.39c-14.91,80.2-81.86,144.42-162.93,155.01-4.51.59-9.44.46-13.76,1.61h-23.99l-23.38-3.24C79.69,366.43,17.68,304.42,3.38,227.39L.15,204c.34-7.93-.46-16.09,0-24C5.7,85.1,85.24,5.55,180.08,0h23.99ZM361.46,191.99c0-93.58-75.84-169.45-169.39-169.45S22.69,98.41,22.69,191.99s75.84,169.45,169.39,169.45,169.39-75.87,169.39-169.45Z"/>
    <path d="M189.62,113.42c6.45-1.33,12.27,2.92,13.66,9.25l.43,64.82,64.41,64.56c8.58,11.94-5.58,24.92-16.84,15.35l-67.1-67.13c-1.87-2.43-3.09-4.78-3.39-7.86-2.15-21.93,1.65-47.43.08-69.74,1.07-4.38,4.17-8.31,8.74-9.25Z"/>
    <path d="M189.62,45.92c6.58-1.35,12.91,3.27,13.72,9.93.55,4.48.64,22.01-.19,26.1-2.43,11.95-20.75,11.67-22.34-1.31-.55-4.47-.64-22.01.19-26.1s4.7-7.82,8.62-8.62Z"/>
    <path d="M54.67,180.92c3.56-.72,24.59-.68,27.97.18,11.16,2.84,10.69,19.69-.57,21.98-3.56.72-24.58.68-27.97-.18-11.18-2.84-10.67-19.69.57-21.98Z"/>
    <path d="M302.08,180.92c3.56-.72,24.59-.68,27.97.18,11.16,2.84,10.69,19.69-.57,21.98-3.56.72-24.58.68-27.97-.18-11.18-2.84-10.67-19.69.57-21.98Z"/>
    <path d="M189.62,293.42c6.58-1.35,12.91,3.27,13.72,9.93.55,4.48.64,22.01-.19,26.1-2.43,11.95-20.75,11.67-22.34-1.31-.55-4.47-.64-22.01.19-26.1s4.7-7.82,8.62-8.62Z"/>
    <ellipse cx="287.44" cy="287.41" rx="11.25" ry="11.26"/>
    <ellipse cx="96.68" cy="96.57" rx="11.24" ry="11.24"/>
    <ellipse cx="287.48" cy="96.58" rx="11.23" ry="11.23"/>
    <ellipse cx="96.68" cy="287.43" rx="11.22" ry="11.22"/>
  </g>
</svg>