<?xml version="1.0" encoding="UTF-8"?>
<svg id="Layer_1" data-name="Layer 1" xmlns="http://www.w3.org/2000/svg" viewBox="0 0 371.37 368.68">
  <path d="M371.37,177.03v15.24c-3.83,16.38-27.89,15.57-29.76-1.09-.74-6.58-.96-17.71,3.89-22.61,9.07-9.14,23.41-3.62,25.87,8.45Z"/>
  <path d="M57.33,50.98C119.12-8.4,217.77-17.08,288.93,31.12c3.42-3.06,11.65-19.07,15.34-19.61,2.84-.41,3.92,1.53,4.89,3.8,6.38,14.94,8.37,35.57,14.25,51.13.31,9.88-8.99,9.65-16.29,10.42-12.8,1.35-27.96,3.09-40.65,3.62-18.01.76,2.4-17.81,5.44-24.31-16.57-11.29-35.99-19.46-55.73-23.37C133.08,16.33,51.03,69.61,33.34,152.21s28.91,159.05,106.65,182.52c12.03,3.63,36.47,4.87,29.21,24.47-6.16,16.62-32.64,6.18-44.77,1.99C-6.43,316.03-42.73,147.14,57.33,50.98Z"/>
  <path d="M164.62,197.96l-.07-123.6c3.3-11.47,18.47-12.78,23.22-1.53l1.04,110.01,97.15,50.19c13.12,8.94,3.2,27.03-11.33,21.49l-110.01-56.57Z"/>
  <path d="M318.92,273.74c13.28-2.26,22.43,10.43,15.9,22.43-1.42,2.62-7.54,10.09-9.89,11.89-13.33,10.21-29.98-4.55-22.11-19.21,2.72-5.06,10.26-14.12,16.09-15.12Z"/>
  <path d="M237.55,361.86c-3.65,3.77-16.78,7.09-21.85,6.81-12.84-.73-19-16.86-9.58-25.89,4.35-4.17,19.21-7.08,25.02-5.56,10.46,2.72,13.77,17.05,6.4,24.65Z"/>
  <path d="M344.31,222.19c8.83-1.82,18.17,3.03,19.07,12.54.45,4.78-3.24,16.19-5.93,20.2-8.97,13.38-30.82,5.01-26.21-13.88,1.64-6.72,5.38-17.28,13.07-18.86Z"/>
  <path d="M341.42,107.52c12.21-2.05,17.56,8.76,20.16,18.69,3.33,12.71-4.55,22.89-17.99,20.16-8.59-1.74-15.21-18.74-14.25-26.27.72-5.68,6.44-11.64,12.08-12.59Z"/>
  <path d="M276.09,313.66c13.07-2.25,22.83,9.36,17.03,21.38-1.98,4.1-13.8,12.03-18.25,12.96-15.22,3.18-25.47-14.67-13.85-25.46,2.36-2.19,12.13-8.38,15.07-8.88Z"/>
</svg>