<svg width="926" height="414" viewBox="0 0 926 414" fill="none" xmlns="http://www.w3.org/2000/svg">
<rect width="113" height="29" rx="3" fill="#ACEAC2"/>
<path d="M28.4086 15.5625V19.5H27.4029V10.7727H28.4086V13.9773H28.4938C28.6472 13.6392 28.8773 13.3707 29.1841 13.1719C29.4938 12.9702 29.9057 12.8693 30.4199 12.8693C30.8659 12.8693 31.2566 12.9588 31.5918 13.1378C31.927 13.3139 32.187 13.5852 32.3716 13.9517C32.5591 14.3153 32.6529 14.7784 32.6529 15.3409V19.5H31.6472V15.4091C31.6472 14.8892 31.5123 14.4872 31.2424 14.2031C30.9753 13.9162 30.6046 13.7727 30.1301 13.7727C29.8006 13.7727 29.5051 13.8423 29.2438 13.9815C28.9853 14.1207 28.7807 14.3239 28.6301 14.5909C28.4824 14.858 28.4086 15.1818 28.4086 15.5625ZM37.1518 19.6364C36.5609 19.6364 36.0424 19.4957 35.5964 19.2145C35.1532 18.9332 34.8066 18.5398 34.5566 18.0341C34.3095 17.5284 34.1859 16.9375 34.1859 16.2614C34.1859 15.5795 34.3095 14.9844 34.5566 14.4759C34.8066 13.9673 35.1532 13.5724 35.5964 13.2912C36.0424 13.0099 36.5609 12.8693 37.1518 12.8693C37.7427 12.8693 38.2598 13.0099 38.7029 13.2912C39.149 13.5724 39.4956 13.9673 39.7427 14.4759C39.9927 14.9844 40.1177 15.5795 40.1177 16.2614C40.1177 16.9375 39.9927 17.5284 39.7427 18.0341C39.4956 18.5398 39.149 18.9332 38.7029 19.2145C38.2598 19.4957 37.7427 19.6364 37.1518 19.6364ZM37.1518 18.733C37.6007 18.733 37.97 18.6179 38.2598 18.3878C38.5495 18.1577 38.764 17.8551 38.9032 17.4801C39.0424 17.1051 39.112 16.6989 39.112 16.2614C39.112 15.8239 39.0424 15.4162 38.9032 15.0384C38.764 14.6605 38.5495 14.3551 38.2598 14.1222C37.97 13.8892 37.6007 13.7727 37.1518 13.7727C36.7029 13.7727 36.3336 13.8892 36.0439 14.1222C35.7541 14.3551 35.5396 14.6605 35.4004 15.0384C35.2612 15.4162 35.1916 15.8239 35.1916 16.2614C35.1916 16.6989 35.2612 17.1051 35.4004 17.4801C35.5396 17.8551 35.7541 18.1577 36.0439 18.3878C36.3336 18.6179 36.7029 18.733 37.1518 18.733ZM41.6529 19.5V12.9545H42.6245V13.9773H42.7097C42.8461 13.6278 43.0662 13.3565 43.3702 13.1634C43.6742 12.9673 44.0392 12.8693 44.4654 12.8693C44.8972 12.8693 45.2566 12.9673 45.5435 13.1634C45.8333 13.3565 46.0591 13.6278 46.2211 13.9773H46.2892C46.4569 13.6392 46.7083 13.3707 47.0435 13.1719C47.3787 12.9702 47.7807 12.8693 48.2495 12.8693C48.8347 12.8693 49.3134 13.0526 49.6855 13.419C50.0577 13.7827 50.2438 14.3494 50.2438 15.1193V19.5H49.2381V15.1193C49.2381 14.6364 49.106 14.2912 48.8418 14.0838C48.5776 13.8764 48.2665 13.7727 47.9086 13.7727C47.4483 13.7727 47.0918 13.9119 46.839 14.1903C46.5861 14.4659 46.4597 14.8153 46.4597 15.2386V19.5H45.437V15.017C45.437 14.6449 45.3162 14.3452 45.0748 14.1179C44.8333 13.8878 44.5222 13.7727 44.1415 13.7727C43.8801 13.7727 43.6358 13.8423 43.4086 13.9815C43.1841 14.1207 43.0023 14.3139 42.8631 14.5611C42.7267 14.8054 42.6586 15.0881 42.6586 15.4091V19.5H41.6529ZM54.8269 19.6364C54.1962 19.6364 53.6522 19.4972 53.1948 19.2188C52.7402 18.9375 52.3894 18.5455 52.1422 18.0426C51.8979 17.5369 51.7757 16.9489 51.7757 16.2784C51.7757 15.608 51.8979 15.017 52.1422 14.5057C52.3894 13.9915 52.7331 13.5909 53.1735 13.304C53.6167 13.0142 54.1337 12.8693 54.7246 12.8693C55.0655 12.8693 55.4022 12.9261 55.7346 13.0398C56.0669 13.1534 56.3695 13.3381 56.6422 13.5938C56.915 13.8466 57.1323 14.1818 57.2942 14.5994C57.4561 15.017 57.5371 15.5312 57.5371 16.142V16.5682H52.4917V15.6989H56.5144C56.5144 15.3295 56.4405 15 56.2928 14.7102C56.1479 14.4205 55.9405 14.1918 55.6706 14.0241C55.4036 13.8565 55.0882 13.7727 54.7246 13.7727C54.324 13.7727 53.9775 13.8722 53.6848 14.071C53.3951 14.267 53.1721 14.5227 53.0158 14.8381C52.8596 15.1534 52.7814 15.4915 52.7814 15.8523V16.4318C52.7814 16.9261 52.8667 17.3452 53.0371 17.6889C53.2104 18.0298 53.4505 18.2898 53.7573 18.4688C54.0641 18.6449 54.4206 18.733 54.8269 18.733C55.0911 18.733 55.3297 18.696 55.5428 18.6222C55.7587 18.5455 55.9448 18.4318 56.101 18.2812C56.2573 18.1278 56.378 17.9375 56.4632 17.7102L57.4348 17.983C57.3326 18.3125 57.1607 18.6023 56.9192 18.8523C56.6777 19.0994 56.3794 19.2926 56.0243 19.4318C55.6692 19.5682 55.2701 19.6364 54.8269 19.6364ZM59.0669 21.9545V12.9545H60.0385V13.9943H60.1578C60.2317 13.8807 60.334 13.7358 60.4647 13.5597C60.5982 13.3807 60.7885 13.2216 61.0357 13.0824C61.2857 12.9403 61.6238 12.8693 62.0499 12.8693C62.601 12.8693 63.0868 13.0071 63.5073 13.2827C63.9277 13.5582 64.2559 13.9489 64.4917 14.4545C64.7275 14.9602 64.8453 15.5568 64.8453 16.2443C64.8453 16.9375 64.7275 17.5384 64.4917 18.0469C64.2559 18.5526 63.9292 18.9446 63.5115 19.223C63.0939 19.4986 62.6124 19.6364 62.0669 19.6364C61.6465 19.6364 61.3098 19.5668 61.057 19.4276C60.8042 19.2855 60.6096 19.125 60.4732 18.946C60.3368 18.7642 60.2317 18.6136 60.1578 18.4943H60.0726V21.9545H59.0669ZM60.0556 16.2273C60.0556 16.7216 60.128 17.1577 60.2729 17.5355C60.4178 17.9105 60.6294 18.2045 60.9078 18.4176C61.1863 18.6278 61.5272 18.733 61.9306 18.733C62.351 18.733 62.7019 18.6222 62.9831 18.4006C63.2672 18.1761 63.4803 17.875 63.6223 17.4972C63.7672 17.1165 63.8397 16.6932 63.8397 16.2273C63.8397 15.767 63.7686 15.3523 63.6266 14.983C63.4874 14.6108 63.2757 14.3168 62.9917 14.1009C62.7104 13.8821 62.3567 13.7727 61.9306 13.7727C61.5215 13.7727 61.1777 13.8764 60.8993 14.0838C60.6209 14.2884 60.4107 14.5753 60.2686 14.9446C60.1266 15.3111 60.0556 15.7386 60.0556 16.2273ZM68.3056 19.6534C67.8908 19.6534 67.5144 19.5753 67.1763 19.419C66.8382 19.2599 66.5698 19.0312 66.3709 18.733C66.1721 18.4318 66.0726 18.0682 66.0726 17.642C66.0726 17.267 66.1465 16.9631 66.2942 16.7301C66.4419 16.4943 66.6394 16.3097 66.8865 16.1761C67.1337 16.0426 67.4064 15.9432 67.7047 15.8778C68.0059 15.8097 68.3084 15.7557 68.6124 15.7159C69.0101 15.6648 69.3326 15.6264 69.5797 15.6009C69.8297 15.5724 70.0115 15.5256 70.1252 15.4602C70.2417 15.3949 70.2999 15.2812 70.2999 15.1193V15.0852C70.2999 14.6648 70.1848 14.3381 69.9547 14.1051C69.7275 13.8722 69.3823 13.7557 68.9192 13.7557C68.4391 13.7557 68.0627 13.8608 67.79 14.071C67.5172 14.2812 67.3255 14.5057 67.2147 14.7443L66.2601 14.4034C66.4306 14.0057 66.6578 13.696 66.9419 13.4744C67.2289 13.25 67.5414 13.0937 67.8794 13.0057C68.2203 12.9148 68.5556 12.8693 68.8851 12.8693C69.0953 12.8693 69.3368 12.8949 69.6096 12.946C69.8851 12.9943 70.1507 13.0952 70.4064 13.2486C70.665 13.402 70.8794 13.6335 71.0499 13.9432C71.2203 14.2528 71.3056 14.6676 71.3056 15.1875V19.5H70.2999V18.6136H70.2488C70.1806 18.7557 70.0669 18.9077 69.9078 19.0696C69.7488 19.2315 69.5371 19.3693 69.2729 19.483C69.0087 19.5966 68.6863 19.6534 68.3056 19.6534ZM68.459 18.75C68.8567 18.75 69.1919 18.6719 69.4647 18.5156C69.7402 18.3594 69.9476 18.1577 70.0868 17.9105C70.2289 17.6634 70.2999 17.4034 70.2999 17.1307V16.2102C70.2573 16.2614 70.1635 16.3082 70.0186 16.3509C69.8766 16.3906 69.7118 16.4261 69.5243 16.4574C69.3397 16.4858 69.1593 16.5114 68.9831 16.5341C68.8098 16.554 68.6692 16.571 68.5613 16.5852C68.2999 16.6193 68.0556 16.6747 67.8283 16.7514C67.6039 16.8253 67.4221 16.9375 67.2828 17.0881C67.1465 17.2358 67.0783 17.4375 67.0783 17.6932C67.0783 18.0426 67.2076 18.3068 67.4661 18.4858C67.7275 18.6619 68.0584 18.75 68.459 18.75ZM75.7832 22.0909C75.2974 22.0909 74.8798 22.0284 74.5304 21.9034C74.1809 21.7812 73.8897 21.6193 73.6568 21.4176C73.4267 21.2188 73.2434 21.0057 73.1071 20.7784L73.9082 20.2159C73.9991 20.3352 74.1142 20.4716 74.2534 20.625C74.3926 20.7812 74.5829 20.9162 74.8244 21.0298C75.0687 21.1463 75.3883 21.2045 75.7832 21.2045C76.3116 21.2045 76.7477 21.0767 77.0914 20.821C77.4352 20.5653 77.6071 20.1648 77.6071 19.6193V18.2898H77.5218C77.448 18.4091 77.3429 18.5568 77.2065 18.733C77.073 18.9062 76.8798 19.0611 76.627 19.1974C76.377 19.331 76.0389 19.3977 75.6127 19.3977C75.0843 19.3977 74.6099 19.2727 74.1895 19.0227C73.7718 18.7727 73.4409 18.4091 73.1966 17.9318C72.9551 17.4545 72.8343 16.875 72.8343 16.1932C72.8343 15.5227 72.9522 14.9389 73.188 14.4418C73.4238 13.9418 73.752 13.5554 74.1724 13.2827C74.5929 13.0071 75.0787 12.8693 75.6298 12.8693C76.0559 12.8693 76.394 12.9403 76.644 13.0824C76.8968 13.2216 77.09 13.3807 77.2235 13.5597C77.3599 13.7358 77.465 13.8807 77.5389 13.9943H77.6412V12.9545H78.6127V19.6875C78.6127 20.25 78.4849 20.7074 78.2292 21.0597C77.9764 21.4148 77.6355 21.6747 77.2065 21.8395C76.7804 22.0071 76.3059 22.0909 75.7832 22.0909ZM75.7491 18.4943C76.1525 18.4943 76.4934 18.402 76.7718 18.2173C77.0502 18.0327 77.2619 17.767 77.4068 17.4205C77.5517 17.0739 77.6241 16.6591 77.6241 16.1761C77.6241 15.7045 77.5531 15.2884 77.411 14.9276C77.269 14.5668 77.0588 14.2841 76.7804 14.0795C76.502 13.875 76.1582 13.7727 75.7491 13.7727C75.323 13.7727 74.9679 13.8807 74.6838 14.0966C74.4025 14.3125 74.1909 14.6023 74.0488 14.9659C73.9096 15.3295 73.84 15.733 73.84 16.1761C73.84 16.6307 73.911 17.0327 74.0531 17.3821C74.198 17.7287 74.411 18.0014 74.6923 18.2003C74.9764 18.3963 75.3287 18.4943 75.7491 18.4943ZM83.198 19.6364C82.5673 19.6364 82.0233 19.4972 81.5659 19.2188C81.1113 18.9375 80.7605 18.5455 80.5133 18.0426C80.269 17.5369 80.1468 16.9489 80.1468 16.2784C80.1468 15.608 80.269 15.017 80.5133 14.5057C80.7605 13.9915 81.1042 13.5909 81.5446 13.304C81.9877 13.0142 82.5048 12.8693 83.0957 12.8693C83.4366 12.8693 83.7733 12.9261 84.1056 13.0398C84.438 13.1534 84.7406 13.3381 85.0133 13.5938C85.286 13.8466 85.5034 14.1818 85.6653 14.5994C85.8272 15.017 85.9082 15.5312 85.9082 16.142V16.5682H80.8627V15.6989H84.8855C84.8855 15.3295 84.8116 15 84.6639 14.7102C84.519 14.4205 84.3116 14.1918 84.0417 14.0241C83.7747 13.8565 83.4593 13.7727 83.0957 13.7727C82.6951 13.7727 82.3485 13.8722 82.0559 14.071C81.7662 14.267 81.5431 14.5227 81.3869 14.8381C81.2306 15.1534 81.1525 15.4915 81.1525 15.8523V16.4318C81.1525 16.9261 81.2377 17.3452 81.4082 17.6889C81.5815 18.0298 81.8216 18.2898 82.1284 18.4688C82.4352 18.6449 82.7917 18.733 83.198 18.733C83.4622 18.733 83.7008 18.696 83.9139 18.6222C84.1298 18.5455 84.3159 18.4318 84.4721 18.2812C84.6284 18.1278 84.7491 17.9375 84.8343 17.7102L85.8059 17.983C85.7037 18.3125 85.5318 18.6023 85.2903 18.8523C85.0488 19.0994 84.7505 19.2926 84.3954 19.4318C84.0403 19.5682 83.6412 19.6364 83.198 19.6364Z" fill="#205834"/>
<rect x="180" width="88" height="29" rx="3" fill="#205834"/>
<path d="M208.067 10.7727V19.5H207.061V10.7727H208.067ZM209.909 19.5V12.9545H210.914V19.5H209.909ZM210.42 11.8636C210.224 11.8636 210.055 11.7969 209.913 11.6634C209.774 11.5298 209.704 11.3693 209.704 11.1818C209.704 10.9943 209.774 10.8338 209.913 10.7003C210.055 10.5668 210.224 10.5 210.42 10.5C210.616 10.5 210.784 10.5668 210.923 10.7003C211.065 10.8338 211.136 10.9943 211.136 11.1818C211.136 11.3693 211.065 11.5298 210.923 11.6634C210.784 11.7969 210.616 11.8636 210.42 11.8636ZM212.893 19.5V10.7727H213.898V13.9943H213.984C214.058 13.8807 214.16 13.7358 214.29 13.5597C214.424 13.3807 214.614 13.2216 214.862 13.0824C215.112 12.9403 215.45 12.8693 215.876 12.8693C216.427 12.8693 216.913 13.0071 217.333 13.2827C217.754 13.5582 218.082 13.9489 218.317 14.4545C218.553 14.9602 218.671 15.5568 218.671 16.2443C218.671 16.9375 218.553 17.5384 218.317 18.0469C218.082 18.5526 217.755 18.9446 217.337 19.223C216.92 19.4986 216.438 19.6364 215.893 19.6364C215.472 19.6364 215.136 19.5668 214.883 19.4276C214.63 19.2855 214.435 19.125 214.299 18.946C214.163 18.7642 214.058 18.6136 213.984 18.4943H213.864V19.5H212.893ZM213.881 16.2273C213.881 16.7216 213.954 17.1577 214.099 17.5355C214.244 17.9105 214.455 18.2045 214.734 18.4176C215.012 18.6278 215.353 18.733 215.756 18.733C216.177 18.733 216.528 18.6222 216.809 18.4006C217.093 18.1761 217.306 17.875 217.448 17.4972C217.593 17.1165 217.665 16.6932 217.665 16.2273C217.665 15.767 217.594 15.3523 217.452 14.983C217.313 14.6108 217.102 14.3168 216.817 14.1009C216.536 13.8821 216.183 13.7727 215.756 13.7727C215.347 13.7727 215.004 13.8764 214.725 14.0838C214.447 14.2884 214.237 14.5753 214.094 14.9446C213.952 15.3111 213.881 15.7386 213.881 16.2273ZM220.21 19.5V12.9545H221.181V13.9432H221.249C221.369 13.6193 221.585 13.3565 221.897 13.1548C222.21 12.9531 222.562 12.8523 222.954 12.8523C223.028 12.8523 223.12 12.8537 223.231 12.8565C223.342 12.8594 223.425 12.8636 223.482 12.8693V13.892C223.448 13.8835 223.37 13.8707 223.248 13.8537C223.129 13.8338 223.002 13.8239 222.869 13.8239C222.55 13.8239 222.266 13.8906 222.016 14.0241C221.769 14.1548 221.573 14.3366 221.428 14.5696C221.286 14.7997 221.215 15.0625 221.215 15.358V19.5H220.21ZM226.6 19.6534C226.186 19.6534 225.809 19.5753 225.471 19.419C225.133 19.2599 224.865 19.0312 224.666 18.733C224.467 18.4318 224.368 18.0682 224.368 17.642C224.368 17.267 224.441 16.9631 224.589 16.7301C224.737 16.4943 224.934 16.3097 225.181 16.1761C225.429 16.0426 225.701 15.9432 226 15.8778C226.301 15.8097 226.603 15.7557 226.907 15.7159C227.305 15.6648 227.627 15.6264 227.875 15.6009C228.125 15.5724 228.306 15.5256 228.42 15.4602C228.537 15.3949 228.595 15.2812 228.595 15.1193V15.0852C228.595 14.6648 228.48 14.3381 228.25 14.1051C228.022 13.8722 227.677 13.7557 227.214 13.7557C226.734 13.7557 226.358 13.8608 226.085 14.071C225.812 14.2812 225.62 14.5057 225.51 14.7443L224.555 14.4034C224.725 14.0057 224.953 13.696 225.237 13.4744C225.524 13.25 225.836 13.0937 226.174 13.0057C226.515 12.9148 226.85 12.8693 227.18 12.8693C227.39 12.8693 227.632 12.8949 227.904 12.946C228.18 12.9943 228.446 13.0952 228.701 13.2486C228.96 13.402 229.174 13.6335 229.345 13.9432C229.515 14.2528 229.6 14.6676 229.6 15.1875V19.5H228.595V18.6136H228.544C228.475 18.7557 228.362 18.9077 228.203 19.0696C228.044 19.2315 227.832 19.3693 227.568 19.483C227.304 19.5966 226.981 19.6534 226.6 19.6534ZM226.754 18.75C227.152 18.75 227.487 18.6719 227.76 18.5156C228.035 18.3594 228.243 18.1577 228.382 17.9105C228.524 17.6634 228.595 17.4034 228.595 17.1307V16.2102C228.552 16.2614 228.458 16.3082 228.314 16.3509C228.172 16.3906 228.007 16.4261 227.819 16.4574C227.635 16.4858 227.454 16.5114 227.278 16.5341C227.105 16.554 226.964 16.571 226.856 16.5852C226.595 16.6193 226.35 16.6747 226.123 16.7514C225.899 16.8253 225.717 16.9375 225.578 17.0881C225.441 17.2358 225.373 17.4375 225.373 17.6932C225.373 18.0426 225.502 18.3068 225.761 18.4858C226.022 18.6619 226.353 18.75 226.754 18.75ZM231.436 19.5V12.9545H232.408V13.9432H232.476C232.595 13.6193 232.811 13.3565 233.124 13.1548C233.436 12.9531 233.788 12.8523 234.18 12.8523C234.254 12.8523 234.347 12.8537 234.457 12.8565C234.568 12.8594 234.652 12.8636 234.709 12.8693V13.892C234.675 13.8835 234.597 13.8707 234.474 13.8537C234.355 13.8338 234.229 13.8239 234.095 13.8239C233.777 13.8239 233.493 13.8906 233.243 14.0241C232.996 14.1548 232.8 14.3366 232.655 14.5696C232.513 14.7997 232.442 15.0625 232.442 15.358V19.5H231.436ZM236.748 21.9545C236.577 21.9545 236.425 21.9403 236.292 21.9119C236.158 21.8864 236.066 21.8608 236.015 21.8352L236.271 20.9489C236.515 21.0114 236.731 21.0341 236.918 21.017C237.106 21 237.272 20.9162 237.417 20.7656C237.565 20.6179 237.7 20.3778 237.822 20.0455L238.009 19.5341L235.589 12.9545H236.68L238.487 18.1705H238.555L240.362 12.9545H241.452L238.674 20.4545C238.549 20.7926 238.394 21.0724 238.21 21.294C238.025 21.5185 237.81 21.6847 237.566 21.7926C237.325 21.9006 237.052 21.9545 236.748 21.9545Z" fill="#EDFBF2"/>
<rect x="336" width="87" height="29" rx="3" fill="#ACEAC2"/>
<path d="M359.727 19.5V10.7727H360.732V13.9943H360.818C360.892 13.8807 360.994 13.7358 361.124 13.5597C361.258 13.3807 361.448 13.2216 361.695 13.0824C361.945 12.9403 362.284 12.8693 362.71 12.8693C363.261 12.8693 363.747 13.0071 364.167 13.2827C364.588 13.5582 364.916 13.9489 365.151 14.4545C365.387 14.9602 365.505 15.5568 365.505 16.2443C365.505 16.9375 365.387 17.5384 365.151 18.0469C364.916 18.5526 364.589 18.9446 364.171 19.223C363.754 19.4986 363.272 19.6364 362.727 19.6364C362.306 19.6364 361.97 19.5668 361.717 19.4276C361.464 19.2855 361.269 19.125 361.133 18.946C360.997 18.7642 360.892 18.6136 360.818 18.4943H360.698V19.5H359.727ZM360.715 16.2273C360.715 16.7216 360.788 17.1577 360.933 17.5355C361.078 17.9105 361.289 18.2045 361.568 18.4176C361.846 18.6278 362.187 18.733 362.59 18.733C363.011 18.733 363.362 18.6222 363.643 18.4006C363.927 18.1761 364.14 17.875 364.282 17.4972C364.427 17.1165 364.499 16.6932 364.499 16.2273C364.499 15.767 364.428 15.3523 364.286 14.983C364.147 14.6108 363.936 14.3168 363.651 14.1009C363.37 13.8821 363.017 13.7727 362.59 13.7727C362.181 13.7727 361.838 13.8764 361.559 14.0838C361.281 14.2884 361.07 14.5753 360.928 14.9446C360.786 15.3111 360.715 15.7386 360.715 16.2273ZM367.044 19.5V12.9545H368.015V13.9432H368.083C368.203 13.6193 368.419 13.3565 368.731 13.1548C369.044 12.9531 369.396 12.8523 369.788 12.8523C369.862 12.8523 369.954 12.8537 370.065 12.8565C370.176 12.8594 370.259 12.8636 370.316 12.8693V13.892C370.282 13.8835 370.204 13.8707 370.082 13.8537C369.963 13.8338 369.836 13.8239 369.703 13.8239C369.384 13.8239 369.1 13.8906 368.85 14.0241C368.603 14.1548 368.407 14.3366 368.262 14.5696C368.12 14.7997 368.049 15.0625 368.049 15.358V19.5H367.044ZM373.968 19.6364C373.377 19.6364 372.859 19.4957 372.413 19.2145C371.97 18.9332 371.623 18.5398 371.373 18.0341C371.126 17.5284 371.002 16.9375 371.002 16.2614C371.002 15.5795 371.126 14.9844 371.373 14.4759C371.623 13.9673 371.97 13.5724 372.413 13.2912C372.859 13.0099 373.377 12.8693 373.968 12.8693C374.559 12.8693 375.076 13.0099 375.519 13.2912C375.965 13.5724 376.312 13.9673 376.559 14.4759C376.809 14.9844 376.934 15.5795 376.934 16.2614C376.934 16.9375 376.809 17.5284 376.559 18.0341C376.312 18.5398 375.965 18.9332 375.519 19.2145C375.076 19.4957 374.559 19.6364 373.968 19.6364ZM373.968 18.733C374.417 18.733 374.786 18.6179 375.076 18.3878C375.366 18.1577 375.58 17.8551 375.72 17.4801C375.859 17.1051 375.928 16.6989 375.928 16.2614C375.928 15.8239 375.859 15.4162 375.72 15.0384C375.58 14.6605 375.366 14.3551 375.076 14.1222C374.786 13.8892 374.417 13.7727 373.968 13.7727C373.519 13.7727 373.15 13.8892 372.86 14.1222C372.57 14.3551 372.356 14.6605 372.217 15.0384C372.078 15.4162 372.008 15.8239 372.008 16.2614C372.008 16.6989 372.078 17.1051 372.217 17.4801C372.356 17.8551 372.57 18.1577 372.86 18.3878C373.15 18.6179 373.519 18.733 373.968 18.733ZM379.73 19.5L377.735 12.9545H378.792L380.207 17.9659H380.275L381.673 12.9545H382.747L384.127 17.9489H384.195L385.61 12.9545H386.667L384.673 19.5H383.684L382.252 14.4716H382.15L380.718 19.5H379.73ZM392.633 14.4205L391.73 14.6761C391.673 14.5256 391.589 14.3793 391.478 14.2372C391.37 14.0923 391.222 13.973 391.035 13.8793C390.847 13.7855 390.607 13.7386 390.315 13.7386C389.914 13.7386 389.58 13.831 389.313 14.0156C389.049 14.1974 388.917 14.429 388.917 14.7102C388.917 14.9602 389.008 15.1577 389.19 15.3026C389.372 15.4474 389.656 15.5682 390.042 15.6648L391.014 15.9034C391.599 16.0455 392.035 16.2628 392.322 16.5554C392.609 16.8452 392.752 17.2187 392.752 17.6761C392.752 18.0511 392.644 18.3864 392.428 18.6818C392.215 18.9773 391.917 19.2102 391.534 19.3807C391.15 19.5511 390.704 19.6364 390.195 19.6364C389.528 19.6364 388.975 19.4915 388.538 19.2017C388.1 18.9119 387.823 18.4886 387.707 17.9318L388.661 17.6932C388.752 18.0455 388.924 18.3097 389.177 18.4858C389.433 18.6619 389.767 18.75 390.178 18.75C390.647 18.75 391.019 18.6506 391.295 18.4517C391.573 18.25 391.713 18.0085 391.713 17.7273C391.713 17.5 391.633 17.3097 391.474 17.1562C391.315 17 391.07 16.8835 390.741 16.8068L389.65 16.5511C389.051 16.4091 388.61 16.1889 388.329 15.8906C388.051 15.5895 387.911 15.2131 387.911 14.7614C387.911 14.392 388.015 14.0653 388.222 13.7812C388.433 13.4972 388.718 13.2741 389.079 13.1122C389.443 12.9503 389.855 12.8693 390.315 12.8693C390.963 12.8693 391.471 13.0114 391.84 13.2955C392.213 13.5795 392.477 13.9545 392.633 14.4205ZM397.01 19.6364C396.38 19.6364 395.836 19.4972 395.378 19.2188C394.924 18.9375 394.573 18.5455 394.326 18.0426C394.081 17.5369 393.959 16.9489 393.959 16.2784C393.959 15.608 394.081 15.017 394.326 14.5057C394.573 13.9915 394.917 13.5909 395.357 13.304C395.8 13.0142 396.317 12.8693 396.908 12.8693C397.249 12.8693 397.586 12.9261 397.918 13.0398C398.251 13.1534 398.553 13.3381 398.826 13.5938C399.099 13.8466 399.316 14.1818 399.478 14.5994C399.64 15.017 399.721 15.5312 399.721 16.142V16.5682H394.675V15.6989H398.698C398.698 15.3295 398.624 15 398.476 14.7102C398.331 14.4205 398.124 14.1918 397.854 14.0241C397.587 13.8565 397.272 13.7727 396.908 13.7727C396.508 13.7727 396.161 13.8722 395.868 14.071C395.579 14.267 395.356 14.5227 395.199 14.8381C395.043 15.1534 394.965 15.4915 394.965 15.8523V16.4318C394.965 16.9261 395.05 17.3452 395.221 17.6889C395.394 18.0298 395.634 18.2898 395.941 18.4688C396.248 18.6449 396.604 18.733 397.01 18.733C397.275 18.733 397.513 18.696 397.726 18.6222C397.942 18.5455 398.128 18.4318 398.285 18.2812C398.441 18.1278 398.562 17.9375 398.647 17.7102L399.618 17.983C399.516 18.3125 399.344 18.6023 399.103 18.8523C398.861 19.0994 398.563 19.2926 398.208 19.4318C397.853 19.5682 397.454 19.6364 397.01 19.6364Z" fill="#205834"/>
<rect x="228" y="112" width="76" height="29" rx="3" fill="#205834"/>
<path d="M253.353 124.955V125.807H249.824V124.955H253.353ZM250.881 131.5V124.051C250.881 123.676 250.969 123.364 251.145 123.114C251.322 122.864 251.55 122.676 251.831 122.551C252.113 122.426 252.41 122.364 252.722 122.364C252.969 122.364 253.171 122.384 253.327 122.423C253.483 122.463 253.6 122.5 253.677 122.534L253.387 123.403C253.336 123.386 253.265 123.365 253.174 123.339C253.086 123.314 252.969 123.301 252.824 123.301C252.492 123.301 252.252 123.385 252.104 123.553C251.959 123.72 251.887 123.966 251.887 124.29V131.5H250.881ZM257.152 131.636C256.561 131.636 256.042 131.496 255.596 131.214C255.153 130.933 254.807 130.54 254.557 130.034C254.309 129.528 254.186 128.937 254.186 128.261C254.186 127.58 254.309 126.984 254.557 126.476C254.807 125.967 255.153 125.572 255.596 125.291C256.042 125.01 256.561 124.869 257.152 124.869C257.743 124.869 258.26 125.01 258.703 125.291C259.149 125.572 259.496 125.967 259.743 126.476C259.993 126.984 260.118 127.58 260.118 128.261C260.118 128.937 259.993 129.528 259.743 130.034C259.496 130.54 259.149 130.933 258.703 131.214C258.26 131.496 257.743 131.636 257.152 131.636ZM257.152 130.733C257.601 130.733 257.97 130.618 258.26 130.388C258.55 130.158 258.764 129.855 258.903 129.48C259.042 129.105 259.112 128.699 259.112 128.261C259.112 127.824 259.042 127.416 258.903 127.038C258.764 126.661 258.55 126.355 258.26 126.122C257.97 125.889 257.601 125.773 257.152 125.773C256.703 125.773 256.334 125.889 256.044 126.122C255.754 126.355 255.54 126.661 255.4 127.038C255.261 127.416 255.192 127.824 255.192 128.261C255.192 128.699 255.261 129.105 255.4 129.48C255.54 129.855 255.754 130.158 256.044 130.388C256.334 130.618 256.703 130.733 257.152 130.733ZM262.659 122.773V131.5H261.653V122.773H262.659ZM266.972 131.636C266.427 131.636 265.945 131.499 265.528 131.223C265.11 130.945 264.783 130.553 264.547 130.047C264.312 129.538 264.194 128.938 264.194 128.244C264.194 127.557 264.312 126.96 264.547 126.455C264.783 125.949 265.111 125.558 265.532 125.283C265.952 125.007 266.438 124.869 266.989 124.869C267.415 124.869 267.752 124.94 267.999 125.082C268.249 125.222 268.439 125.381 268.57 125.56C268.704 125.736 268.807 125.881 268.881 125.994H268.966V122.773H269.972V131.5H269.001V130.494H268.881C268.807 130.614 268.702 130.764 268.566 130.946C268.43 131.125 268.235 131.286 267.982 131.428C267.729 131.567 267.393 131.636 266.972 131.636ZM267.108 130.733C267.512 130.733 267.853 130.628 268.131 130.418C268.41 130.205 268.621 129.911 268.766 129.536C268.911 129.158 268.983 128.722 268.983 128.227C268.983 127.739 268.912 127.311 268.77 126.945C268.628 126.575 268.418 126.288 268.14 126.084C267.861 125.876 267.518 125.773 267.108 125.773C266.682 125.773 266.327 125.882 266.043 126.101C265.762 126.317 265.55 126.611 265.408 126.983C265.269 127.352 265.199 127.767 265.199 128.227C265.199 128.693 265.27 129.116 265.412 129.497C265.557 129.875 265.77 130.176 266.052 130.401C266.336 130.622 266.688 130.733 267.108 130.733ZM274.698 131.636C274.067 131.636 273.523 131.497 273.066 131.219C272.611 130.938 272.26 130.545 272.013 130.043C271.769 129.537 271.647 128.949 271.647 128.278C271.647 127.608 271.769 127.017 272.013 126.506C272.26 125.991 272.604 125.591 273.045 125.304C273.488 125.014 274.005 124.869 274.596 124.869C274.937 124.869 275.273 124.926 275.606 125.04C275.938 125.153 276.241 125.338 276.513 125.594C276.786 125.847 277.003 126.182 277.165 126.599C277.327 127.017 277.408 127.531 277.408 128.142V128.568H272.363V127.699H276.385C276.385 127.33 276.312 127 276.164 126.71C276.019 126.42 275.812 126.192 275.542 126.024C275.275 125.857 274.959 125.773 274.596 125.773C274.195 125.773 273.849 125.872 273.556 126.071C273.266 126.267 273.043 126.523 272.887 126.838C272.731 127.153 272.653 127.491 272.653 127.852V128.432C272.653 128.926 272.738 129.345 272.908 129.689C273.081 130.03 273.322 130.29 273.628 130.469C273.935 130.645 274.292 130.733 274.698 130.733C274.962 130.733 275.201 130.696 275.414 130.622C275.63 130.545 275.816 130.432 275.972 130.281C276.128 130.128 276.249 129.937 276.334 129.71L277.306 129.983C277.204 130.312 277.032 130.602 276.79 130.852C276.549 131.099 276.251 131.293 275.895 131.432C275.54 131.568 275.141 131.636 274.698 131.636ZM278.938 131.5V124.955H279.91V125.943H279.978C280.097 125.619 280.313 125.357 280.626 125.155C280.938 124.953 281.29 124.852 281.682 124.852C281.756 124.852 281.849 124.854 281.959 124.857C282.07 124.859 282.154 124.864 282.211 124.869V125.892C282.177 125.884 282.099 125.871 281.976 125.854C281.857 125.834 281.731 125.824 281.597 125.824C281.279 125.824 280.995 125.891 280.745 126.024C280.498 126.155 280.302 126.337 280.157 126.57C280.015 126.8 279.944 127.062 279.944 127.358V131.5H278.938Z" fill="#EDFBF2"/>
<rect x="372" y="112" width="87" height="29" rx="3" fill="#ACEAC2"/>
<path d="M395.727 131.5V122.773H396.732V125.994H396.818C396.892 125.881 396.994 125.736 397.124 125.56C397.258 125.381 397.448 125.222 397.695 125.082C397.945 124.94 398.284 124.869 398.71 124.869C399.261 124.869 399.747 125.007 400.167 125.283C400.588 125.558 400.916 125.949 401.151 126.455C401.387 126.96 401.505 127.557 401.505 128.244C401.505 128.938 401.387 129.538 401.151 130.047C400.916 130.553 400.589 130.945 400.171 131.223C399.754 131.499 399.272 131.636 398.727 131.636C398.306 131.636 397.97 131.567 397.717 131.428C397.464 131.286 397.269 131.125 397.133 130.946C396.997 130.764 396.892 130.614 396.818 130.494H396.698V131.5H395.727ZM396.715 128.227C396.715 128.722 396.788 129.158 396.933 129.536C397.078 129.911 397.289 130.205 397.568 130.418C397.846 130.628 398.187 130.733 398.59 130.733C399.011 130.733 399.362 130.622 399.643 130.401C399.927 130.176 400.14 129.875 400.282 129.497C400.427 129.116 400.499 128.693 400.499 128.227C400.499 127.767 400.428 127.352 400.286 126.983C400.147 126.611 399.936 126.317 399.651 126.101C399.37 125.882 399.017 125.773 398.59 125.773C398.181 125.773 397.838 125.876 397.559 126.084C397.281 126.288 397.07 126.575 396.928 126.945C396.786 127.311 396.715 127.739 396.715 128.227ZM403.044 131.5V124.955H404.015V125.943H404.083C404.203 125.619 404.419 125.357 404.731 125.155C405.044 124.953 405.396 124.852 405.788 124.852C405.862 124.852 405.954 124.854 406.065 124.857C406.176 124.859 406.259 124.864 406.316 124.869V125.892C406.282 125.884 406.204 125.871 406.082 125.854C405.963 125.834 405.836 125.824 405.703 125.824C405.384 125.824 405.1 125.891 404.85 126.024C404.603 126.155 404.407 126.337 404.262 126.57C404.12 126.8 404.049 127.062 404.049 127.358V131.5H403.044ZM409.968 131.636C409.377 131.636 408.859 131.496 408.413 131.214C407.97 130.933 407.623 130.54 407.373 130.034C407.126 129.528 407.002 128.937 407.002 128.261C407.002 127.58 407.126 126.984 407.373 126.476C407.623 125.967 407.97 125.572 408.413 125.291C408.859 125.01 409.377 124.869 409.968 124.869C410.559 124.869 411.076 125.01 411.519 125.291C411.965 125.572 412.312 125.967 412.559 126.476C412.809 126.984 412.934 127.58 412.934 128.261C412.934 128.937 412.809 129.528 412.559 130.034C412.312 130.54 411.965 130.933 411.519 131.214C411.076 131.496 410.559 131.636 409.968 131.636ZM409.968 130.733C410.417 130.733 410.786 130.618 411.076 130.388C411.366 130.158 411.58 129.855 411.72 129.48C411.859 129.105 411.928 128.699 411.928 128.261C411.928 127.824 411.859 127.416 411.72 127.038C411.58 126.661 411.366 126.355 411.076 126.122C410.786 125.889 410.417 125.773 409.968 125.773C409.519 125.773 409.15 125.889 408.86 126.122C408.57 126.355 408.356 126.661 408.217 127.038C408.078 127.416 408.008 127.824 408.008 128.261C408.008 128.699 408.078 129.105 408.217 129.48C408.356 129.855 408.57 130.158 408.86 130.388C409.15 130.618 409.519 130.733 409.968 130.733ZM415.73 131.5L413.735 124.955H414.792L416.207 129.966H416.275L417.673 124.955H418.747L420.127 129.949H420.195L421.61 124.955H422.667L420.673 131.5H419.684L418.252 126.472H418.15L416.718 131.5H415.73ZM428.633 126.42L427.73 126.676C427.673 126.526 427.589 126.379 427.478 126.237C427.37 126.092 427.222 125.973 427.035 125.879C426.847 125.786 426.607 125.739 426.315 125.739C425.914 125.739 425.58 125.831 425.313 126.016C425.049 126.197 424.917 126.429 424.917 126.71C424.917 126.96 425.008 127.158 425.19 127.303C425.372 127.447 425.656 127.568 426.042 127.665L427.014 127.903C427.599 128.045 428.035 128.263 428.322 128.555C428.609 128.845 428.752 129.219 428.752 129.676C428.752 130.051 428.644 130.386 428.428 130.682C428.215 130.977 427.917 131.21 427.534 131.381C427.15 131.551 426.704 131.636 426.195 131.636C425.528 131.636 424.975 131.491 424.538 131.202C424.1 130.912 423.823 130.489 423.707 129.932L424.661 129.693C424.752 130.045 424.924 130.31 425.177 130.486C425.433 130.662 425.767 130.75 426.178 130.75C426.647 130.75 427.019 130.651 427.295 130.452C427.573 130.25 427.713 130.009 427.713 129.727C427.713 129.5 427.633 129.31 427.474 129.156C427.315 129 427.07 128.884 426.741 128.807L425.65 128.551C425.051 128.409 424.61 128.189 424.329 127.891C424.051 127.589 423.911 127.213 423.911 126.761C423.911 126.392 424.015 126.065 424.222 125.781C424.433 125.497 424.718 125.274 425.079 125.112C425.443 124.95 425.855 124.869 426.315 124.869C426.963 124.869 427.471 125.011 427.84 125.295C428.213 125.58 428.477 125.955 428.633 126.42ZM433.01 131.636C432.38 131.636 431.836 131.497 431.378 131.219C430.924 130.938 430.573 130.545 430.326 130.043C430.081 129.537 429.959 128.949 429.959 128.278C429.959 127.608 430.081 127.017 430.326 126.506C430.573 125.991 430.917 125.591 431.357 125.304C431.8 125.014 432.317 124.869 432.908 124.869C433.249 124.869 433.586 124.926 433.918 125.04C434.251 125.153 434.553 125.338 434.826 125.594C435.099 125.847 435.316 126.182 435.478 126.599C435.64 127.017 435.721 127.531 435.721 128.142V128.568H430.675V127.699H434.698C434.698 127.33 434.624 127 434.476 126.71C434.331 126.42 434.124 126.192 433.854 126.024C433.587 125.857 433.272 125.773 432.908 125.773C432.508 125.773 432.161 125.872 431.868 126.071C431.579 126.267 431.356 126.523 431.199 126.838C431.043 127.153 430.965 127.491 430.965 127.852V128.432C430.965 128.926 431.05 129.345 431.221 129.689C431.394 130.03 431.634 130.29 431.941 130.469C432.248 130.645 432.604 130.733 433.01 130.733C433.275 130.733 433.513 130.696 433.726 130.622C433.942 130.545 434.128 130.432 434.285 130.281C434.441 130.128 434.562 129.937 434.647 129.71L435.618 129.983C435.516 130.312 435.344 130.602 435.103 130.852C434.861 131.099 434.563 131.293 434.208 131.432C433.853 131.568 433.454 131.636 433.01 131.636Z" fill="#205834"/>
<rect x="367" y="224" width="98" height="29" rx="3" fill="#205834"/>
<path d="M393.528 239.562V243.5H392.522V234.773H393.528V237.977H393.613C393.766 237.639 393.996 237.371 394.303 237.172C394.613 236.97 395.025 236.869 395.539 236.869C395.985 236.869 396.376 236.959 396.711 237.138C397.046 237.314 397.306 237.585 397.491 237.952C397.678 238.315 397.772 238.778 397.772 239.341V243.5H396.766V239.409C396.766 238.889 396.631 238.487 396.362 238.203C396.094 237.916 395.724 237.773 395.249 237.773C394.92 237.773 394.624 237.842 394.363 237.982C394.104 238.121 393.9 238.324 393.749 238.591C393.602 238.858 393.528 239.182 393.528 239.562ZM399.612 243.5V236.955H400.618V243.5H399.612ZM400.123 235.864C399.927 235.864 399.758 235.797 399.616 235.663C399.477 235.53 399.407 235.369 399.407 235.182C399.407 234.994 399.477 234.834 399.616 234.7C399.758 234.567 399.927 234.5 400.123 234.5C400.319 234.5 400.487 234.567 400.626 234.7C400.768 234.834 400.839 234.994 400.839 235.182C400.839 235.369 400.768 235.53 400.626 235.663C400.487 235.797 400.319 235.864 400.123 235.864ZM405.102 246.091C404.616 246.091 404.198 246.028 403.849 245.903C403.499 245.781 403.208 245.619 402.975 245.418C402.745 245.219 402.562 245.006 402.425 244.778L403.227 244.216C403.317 244.335 403.433 244.472 403.572 244.625C403.711 244.781 403.901 244.916 404.143 245.03C404.387 245.146 404.707 245.205 405.102 245.205C405.63 245.205 406.066 245.077 406.41 244.821C406.754 244.565 406.925 244.165 406.925 243.619V242.29H406.84C406.766 242.409 406.661 242.557 406.525 242.733C406.391 242.906 406.198 243.061 405.945 243.197C405.695 243.331 405.357 243.398 404.931 243.398C404.403 243.398 403.928 243.273 403.508 243.023C403.09 242.773 402.759 242.409 402.515 241.932C402.273 241.455 402.153 240.875 402.153 240.193C402.153 239.523 402.271 238.939 402.506 238.442C402.742 237.942 403.07 237.555 403.491 237.283C403.911 237.007 404.397 236.869 404.948 236.869C405.374 236.869 405.712 236.94 405.962 237.082C406.215 237.222 406.408 237.381 406.542 237.56C406.678 237.736 406.783 237.881 406.857 237.994H406.96V236.955H407.931V243.688C407.931 244.25 407.803 244.707 407.548 245.06C407.295 245.415 406.954 245.675 406.525 245.839C406.099 246.007 405.624 246.091 405.102 246.091ZM405.067 242.494C405.471 242.494 405.812 242.402 406.09 242.217C406.369 242.033 406.58 241.767 406.725 241.42C406.87 241.074 406.942 240.659 406.942 240.176C406.942 239.705 406.871 239.288 406.729 238.928C406.587 238.567 406.377 238.284 406.099 238.08C405.82 237.875 405.477 237.773 405.067 237.773C404.641 237.773 404.286 237.881 404.002 238.097C403.721 238.312 403.509 238.602 403.367 238.966C403.228 239.33 403.158 239.733 403.158 240.176C403.158 240.631 403.229 241.033 403.371 241.382C403.516 241.729 403.729 242.001 404.011 242.2C404.295 242.396 404.647 242.494 405.067 242.494ZM410.778 239.562V243.5H409.772V234.773H410.778V237.977H410.863C411.016 237.639 411.246 237.371 411.553 237.172C411.863 236.97 412.275 236.869 412.789 236.869C413.235 236.869 413.626 236.959 413.961 237.138C414.296 237.314 414.556 237.585 414.741 237.952C414.928 238.315 415.022 238.778 415.022 239.341V243.5H414.016V239.409C414.016 238.889 413.881 238.487 413.612 238.203C413.344 237.916 412.974 237.773 412.499 237.773C412.17 237.773 411.874 237.842 411.613 237.982C411.354 238.121 411.15 238.324 410.999 238.591C410.852 238.858 410.778 239.182 410.778 239.562ZM417.868 234.773V243.5H416.862V234.773H417.868ZM419.71 243.5V236.955H420.715V243.5H419.71ZM420.221 235.864C420.025 235.864 419.856 235.797 419.714 235.663C419.575 235.53 419.505 235.369 419.505 235.182C419.505 234.994 419.575 234.834 419.714 234.7C419.856 234.567 420.025 234.5 420.221 234.5C420.417 234.5 420.585 234.567 420.724 234.7C420.866 234.834 420.937 234.994 420.937 235.182C420.937 235.369 420.866 235.53 420.724 235.663C420.585 235.797 420.417 235.864 420.221 235.864ZM425.199 246.091C424.713 246.091 424.296 246.028 423.946 245.903C423.597 245.781 423.306 245.619 423.073 245.418C422.843 245.219 422.659 245.006 422.523 244.778L423.324 244.216C423.415 244.335 423.53 244.472 423.669 244.625C423.809 244.781 423.999 244.916 424.24 245.03C424.485 245.146 424.804 245.205 425.199 245.205C425.728 245.205 426.164 245.077 426.507 244.821C426.851 244.565 427.023 244.165 427.023 243.619V242.29H426.938C426.864 242.409 426.759 242.557 426.623 242.733C426.489 242.906 426.296 243.061 426.043 243.197C425.793 243.331 425.455 243.398 425.029 243.398C424.5 243.398 424.026 243.273 423.605 243.023C423.188 242.773 422.857 242.409 422.613 241.932C422.371 241.455 422.25 240.875 422.25 240.193C422.25 239.523 422.368 238.939 422.604 238.442C422.84 237.942 423.168 237.555 423.588 237.283C424.009 237.007 424.495 236.869 425.046 236.869C425.472 236.869 425.81 236.94 426.06 237.082C426.313 237.222 426.506 237.381 426.64 237.56C426.776 237.736 426.881 237.881 426.955 237.994H427.057V236.955H428.029V243.688C428.029 244.25 427.901 244.707 427.645 245.06C427.392 245.415 427.051 245.675 426.623 245.839C426.196 246.007 425.722 246.091 425.199 246.091ZM425.165 242.494C425.569 242.494 425.909 242.402 426.188 242.217C426.466 242.033 426.678 241.767 426.823 241.42C426.968 241.074 427.04 240.659 427.04 240.176C427.04 239.705 426.969 239.288 426.827 238.928C426.685 238.567 426.475 238.284 426.196 238.08C425.918 237.875 425.574 237.773 425.165 237.773C424.739 237.773 424.384 237.881 424.1 238.097C423.819 238.312 423.607 238.602 423.465 238.966C423.326 239.33 423.256 239.733 423.256 240.176C423.256 240.631 423.327 241.033 423.469 241.382C423.614 241.729 423.827 242.001 424.108 242.2C424.392 242.396 424.745 242.494 425.165 242.494ZM430.875 239.562V243.5H429.87V234.773H430.875V237.977H430.961C431.114 237.639 431.344 237.371 431.651 237.172C431.961 236.97 432.373 236.869 432.887 236.869C433.333 236.869 433.723 236.959 434.059 237.138C434.394 237.314 434.654 237.585 434.838 237.952C435.026 238.315 435.12 238.778 435.12 239.341V243.5H434.114V239.409C434.114 238.889 433.979 238.487 433.709 238.203C433.442 237.916 433.071 237.773 432.597 237.773C432.267 237.773 431.972 237.842 431.711 237.982C431.452 238.121 431.248 238.324 431.097 238.591C430.949 238.858 430.875 239.182 430.875 239.562ZM439.806 236.955V237.807H436.414V236.955H439.806ZM437.403 235.386H438.408V241.625C438.408 241.909 438.45 242.122 438.532 242.264C438.617 242.403 438.725 242.497 438.856 242.545C438.989 242.591 439.13 242.614 439.278 242.614C439.388 242.614 439.479 242.608 439.55 242.597C439.621 242.582 439.678 242.571 439.721 242.562L439.925 243.466C439.857 243.491 439.762 243.517 439.64 243.543C439.518 243.571 439.363 243.585 439.175 243.585C438.891 243.585 438.613 243.524 438.34 243.402C438.07 243.28 437.846 243.094 437.667 242.844C437.491 242.594 437.403 242.278 437.403 241.898V235.386Z" fill="#EDFBF2"/>
<rect x="532" y="224" width="83" height="29" rx="3" fill="#ACEAC2"/>
<path d="M556.642 243.636C556.051 243.636 555.533 243.496 555.087 243.214C554.643 242.933 554.297 242.54 554.047 242.034C553.8 241.528 553.676 240.937 553.676 240.261C553.676 239.58 553.8 238.984 554.047 238.476C554.297 237.967 554.643 237.572 555.087 237.291C555.533 237.01 556.051 236.869 556.642 236.869C557.233 236.869 557.75 237.01 558.193 237.291C558.639 237.572 558.986 237.967 559.233 238.476C559.483 238.984 559.608 239.58 559.608 240.261C559.608 240.937 559.483 241.528 559.233 242.034C558.986 242.54 558.639 242.933 558.193 243.214C557.75 243.496 557.233 243.636 556.642 243.636ZM556.642 242.733C557.091 242.733 557.46 242.618 557.75 242.388C558.04 242.158 558.254 241.855 558.393 241.48C558.533 241.105 558.602 240.699 558.602 240.261C558.602 239.824 558.533 239.416 558.393 239.038C558.254 238.661 558.04 238.355 557.75 238.122C557.46 237.889 557.091 237.773 556.642 237.773C556.193 237.773 555.824 237.889 555.534 238.122C555.244 238.355 555.03 238.661 554.891 239.038C554.751 239.416 554.682 239.824 554.682 240.261C554.682 240.699 554.751 241.105 554.891 241.48C555.03 241.855 555.244 242.158 555.534 242.388C555.824 242.618 556.193 242.733 556.642 242.733ZM566.261 236.955L563.841 243.5H562.818L560.397 236.955H561.488L563.295 242.17H563.363L565.17 236.955H566.261ZM570.098 243.636C569.468 243.636 568.924 243.497 568.466 243.219C568.012 242.938 567.661 242.545 567.414 242.043C567.169 241.537 567.047 240.949 567.047 240.278C567.047 239.608 567.169 239.017 567.414 238.506C567.661 237.991 568.005 237.591 568.445 237.304C568.888 237.014 569.405 236.869 569.996 236.869C570.337 236.869 570.674 236.926 571.006 237.04C571.338 237.153 571.641 237.338 571.914 237.594C572.186 237.847 572.404 238.182 572.566 238.599C572.728 239.017 572.809 239.531 572.809 240.142V240.568H567.763V239.699H571.786C571.786 239.33 571.712 239 571.564 238.71C571.419 238.42 571.212 238.192 570.942 238.024C570.675 237.857 570.36 237.773 569.996 237.773C569.596 237.773 569.249 237.872 568.956 238.071C568.667 238.267 568.444 238.523 568.287 238.838C568.131 239.153 568.053 239.491 568.053 239.852V240.432C568.053 240.926 568.138 241.345 568.309 241.689C568.482 242.03 568.722 242.29 569.029 242.469C569.336 242.645 569.692 242.733 570.098 242.733C570.363 242.733 570.601 242.696 570.814 242.622C571.03 242.545 571.216 242.432 571.373 242.281C571.529 242.128 571.65 241.937 571.735 241.71L572.706 241.983C572.604 242.312 572.432 242.602 572.191 242.852C571.949 243.099 571.651 243.293 571.296 243.432C570.941 243.568 570.542 243.636 570.098 243.636ZM574.338 243.5V236.955H575.31V237.943H575.378C575.498 237.619 575.713 237.357 576.026 237.155C576.338 236.953 576.691 236.852 577.083 236.852C577.157 236.852 577.249 236.854 577.36 236.857C577.471 236.859 577.554 236.864 577.611 236.869V237.892C577.577 237.884 577.499 237.871 577.377 237.854C577.257 237.834 577.131 237.824 576.998 237.824C576.679 237.824 576.395 237.891 576.145 238.024C575.898 238.155 575.702 238.337 575.557 238.57C575.415 238.8 575.344 239.062 575.344 239.358V243.5H574.338ZM579.809 234.773V243.5H578.803V234.773H579.809ZM583.577 243.653C583.162 243.653 582.786 243.575 582.448 243.419C582.11 243.26 581.841 243.031 581.642 242.733C581.444 242.432 581.344 242.068 581.344 241.642C581.344 241.267 581.418 240.963 581.566 240.73C581.713 240.494 581.911 240.31 582.158 240.176C582.405 240.043 582.678 239.943 582.976 239.878C583.277 239.81 583.58 239.756 583.884 239.716C584.282 239.665 584.604 239.626 584.851 239.601C585.101 239.572 585.283 239.526 585.397 239.46C585.513 239.395 585.571 239.281 585.571 239.119V239.085C585.571 238.665 585.456 238.338 585.226 238.105C584.999 237.872 584.654 237.756 584.191 237.756C583.711 237.756 583.334 237.861 583.061 238.071C582.789 238.281 582.597 238.506 582.486 238.744L581.532 238.403C581.702 238.006 581.929 237.696 582.213 237.474C582.5 237.25 582.813 237.094 583.151 237.006C583.492 236.915 583.827 236.869 584.157 236.869C584.367 236.869 584.608 236.895 584.881 236.946C585.157 236.994 585.422 237.095 585.678 237.249C585.936 237.402 586.151 237.634 586.321 237.943C586.492 238.253 586.577 238.668 586.577 239.188V243.5H585.571V242.614H585.52C585.452 242.756 585.338 242.908 585.179 243.07C585.02 243.232 584.809 243.369 584.544 243.483C584.28 243.597 583.958 243.653 583.577 243.653ZM583.73 242.75C584.128 242.75 584.463 242.672 584.736 242.516C585.012 242.359 585.219 242.158 585.358 241.911C585.5 241.663 585.571 241.403 585.571 241.131V240.21C585.529 240.261 585.435 240.308 585.29 240.351C585.148 240.391 584.983 240.426 584.796 240.457C584.611 240.486 584.431 240.511 584.255 240.534C584.081 240.554 583.941 240.571 583.833 240.585C583.571 240.619 583.327 240.675 583.1 240.751C582.875 240.825 582.694 240.937 582.554 241.088C582.418 241.236 582.35 241.437 582.35 241.693C582.35 242.043 582.479 242.307 582.738 242.486C582.999 242.662 583.33 242.75 583.73 242.75ZM588.826 245.955C588.656 245.955 588.504 245.94 588.37 245.912C588.237 245.886 588.144 245.861 588.093 245.835L588.349 244.949C588.593 245.011 588.809 245.034 588.996 245.017C589.184 245 589.35 244.916 589.495 244.766C589.643 244.618 589.778 244.378 589.9 244.045L590.087 243.534L587.667 236.955H588.758L590.565 242.17H590.633L592.44 236.955H593.531L590.752 244.455C590.627 244.793 590.472 245.072 590.288 245.294C590.103 245.518 589.888 245.685 589.644 245.793C589.403 245.901 589.13 245.955 588.826 245.955Z" fill="#205834"/>
<rect x="674" y="224" width="168" height="29" rx="3" fill="#205834"/>
<path d="M704.949 243.636C704.335 243.636 703.807 243.491 703.363 243.202C702.92 242.912 702.579 242.513 702.341 242.004C702.102 241.496 701.983 240.915 701.983 240.261C701.983 239.597 702.105 239.01 702.349 238.501C702.596 237.99 702.94 237.591 703.381 237.304C703.824 237.014 704.341 236.869 704.932 236.869C705.392 236.869 705.807 236.955 706.176 237.125C706.545 237.295 706.848 237.534 707.084 237.841C707.319 238.148 707.466 238.506 707.523 238.915H706.517C706.44 238.616 706.27 238.352 706.006 238.122C705.744 237.889 705.392 237.773 704.949 237.773C704.557 237.773 704.213 237.875 703.917 238.08C703.625 238.281 703.396 238.567 703.231 238.936C703.069 239.303 702.988 239.733 702.988 240.227C702.988 240.733 703.068 241.173 703.227 241.548C703.389 241.923 703.616 242.214 703.909 242.422C704.204 242.629 704.551 242.733 704.949 242.733C705.21 242.733 705.447 242.688 705.66 242.597C705.873 242.506 706.054 242.375 706.202 242.205C706.349 242.034 706.454 241.83 706.517 241.591H707.523C707.466 241.977 707.325 242.325 707.101 242.635C706.879 242.942 706.585 243.186 706.219 243.368C705.855 243.547 705.432 243.636 704.949 243.636ZM711.652 243.636C711.061 243.636 710.542 243.496 710.096 243.214C709.653 242.933 709.307 242.54 709.057 242.034C708.809 241.528 708.686 240.937 708.686 240.261C708.686 239.58 708.809 238.984 709.057 238.476C709.307 237.967 709.653 237.572 710.096 237.291C710.542 237.01 711.061 236.869 711.652 236.869C712.243 236.869 712.76 237.01 713.203 237.291C713.649 237.572 713.996 237.967 714.243 238.476C714.493 238.984 714.618 239.58 714.618 240.261C714.618 240.937 714.493 241.528 714.243 242.034C713.996 242.54 713.649 242.933 713.203 243.214C712.76 243.496 712.243 243.636 711.652 243.636ZM711.652 242.733C712.101 242.733 712.47 242.618 712.76 242.388C713.05 242.158 713.264 241.855 713.403 241.48C713.542 241.105 713.612 240.699 713.612 240.261C713.612 239.824 713.542 239.416 713.403 239.038C713.264 238.661 713.05 238.355 712.76 238.122C712.47 237.889 712.101 237.773 711.652 237.773C711.203 237.773 710.834 237.889 710.544 238.122C710.254 238.355 710.04 238.661 709.9 239.038C709.761 239.416 709.692 239.824 709.692 240.261C709.692 240.699 709.761 241.105 709.9 241.48C710.04 241.855 710.254 242.158 710.544 242.388C710.834 242.618 711.203 242.733 711.652 242.733ZM716.153 245.955V236.955H717.124V237.994H717.244C717.318 237.881 717.42 237.736 717.551 237.56C717.684 237.381 717.874 237.222 718.122 237.082C718.372 236.94 718.71 236.869 719.136 236.869C719.687 236.869 720.173 237.007 720.593 237.283C721.014 237.558 721.342 237.949 721.578 238.455C721.813 238.96 721.931 239.557 721.931 240.244C721.931 240.938 721.813 241.538 721.578 242.047C721.342 242.553 721.015 242.945 720.597 243.223C720.18 243.499 719.698 243.636 719.153 243.636C718.732 243.636 718.396 243.567 718.143 243.428C717.89 243.286 717.695 243.125 717.559 242.946C717.423 242.764 717.318 242.614 717.244 242.494H717.159V245.955H716.153ZM717.142 240.227C717.142 240.722 717.214 241.158 717.359 241.536C717.504 241.911 717.715 242.205 717.994 242.418C718.272 242.628 718.613 242.733 719.017 242.733C719.437 242.733 719.788 242.622 720.069 242.401C720.353 242.176 720.566 241.875 720.708 241.497C720.853 241.116 720.926 240.693 720.926 240.227C720.926 239.767 720.855 239.352 720.713 238.983C720.573 238.611 720.362 238.317 720.078 238.101C719.796 237.882 719.443 237.773 719.017 237.773C718.607 237.773 718.264 237.876 717.985 238.084C717.707 238.288 717.497 238.575 717.355 238.945C717.213 239.311 717.142 239.739 717.142 240.227ZM723.879 245.955C723.708 245.955 723.556 245.94 723.423 245.912C723.289 245.886 723.197 245.861 723.146 245.835L723.401 244.949C723.646 245.011 723.862 245.034 724.049 245.017C724.237 245 724.403 244.916 724.548 244.766C724.695 244.618 724.83 244.378 724.953 244.045L725.14 243.534L722.72 236.955H723.811L725.617 242.17H725.686L727.492 236.955H728.583L725.805 244.455C725.68 244.793 725.525 245.072 725.34 245.294C725.156 245.518 724.941 245.685 724.697 245.793C724.455 245.901 724.183 245.955 723.879 245.955ZM732.316 234.364L729.504 244.812H728.583L731.396 234.364H732.316ZM738.145 238.42L737.241 238.676C737.184 238.526 737.101 238.379 736.99 238.237C736.882 238.092 736.734 237.973 736.547 237.879C736.359 237.786 736.119 237.739 735.827 237.739C735.426 237.739 735.092 237.831 734.825 238.016C734.561 238.197 734.429 238.429 734.429 238.71C734.429 238.96 734.52 239.158 734.702 239.303C734.883 239.447 735.167 239.568 735.554 239.665L736.525 239.903C737.111 240.045 737.547 240.263 737.834 240.555C738.121 240.845 738.264 241.219 738.264 241.676C738.264 242.051 738.156 242.386 737.94 242.682C737.727 242.977 737.429 243.21 737.045 243.381C736.662 243.551 736.216 243.636 735.707 243.636C735.04 243.636 734.487 243.491 734.05 243.202C733.612 242.912 733.335 242.489 733.219 241.932L734.173 241.693C734.264 242.045 734.436 242.31 734.689 242.486C734.944 242.662 735.278 242.75 735.69 242.75C736.159 242.75 736.531 242.651 736.807 242.452C737.085 242.25 737.224 242.009 737.224 241.727C737.224 241.5 737.145 241.31 736.986 241.156C736.827 241 736.582 240.884 736.253 240.807L735.162 240.551C734.562 240.409 734.122 240.189 733.841 239.891C733.562 239.589 733.423 239.213 733.423 238.761C733.423 238.392 733.527 238.065 733.734 237.781C733.944 237.497 734.23 237.274 734.591 237.112C734.954 236.95 735.366 236.869 735.827 236.869C736.474 236.869 736.983 237.011 737.352 237.295C737.724 237.58 737.988 237.955 738.145 238.42ZM742.624 236.955V237.807H739.232V236.955H742.624ZM740.221 235.386H741.227V241.625C741.227 241.909 741.268 242.122 741.35 242.264C741.436 242.403 741.544 242.497 741.674 242.545C741.808 242.591 741.948 242.614 742.096 242.614C742.207 242.614 742.298 242.608 742.369 242.597C742.44 242.582 742.497 242.571 742.539 242.562L742.744 243.466C742.676 243.491 742.58 243.517 742.458 243.543C742.336 243.571 742.181 243.585 741.994 243.585C741.71 243.585 741.431 243.524 741.159 243.402C740.889 243.28 740.664 243.094 740.485 242.844C740.309 242.594 740.221 242.278 740.221 241.898V235.386ZM746.063 243.653C745.649 243.653 745.272 243.575 744.934 243.419C744.596 243.26 744.328 243.031 744.129 242.733C743.93 242.432 743.83 242.068 743.83 241.642C743.83 241.267 743.904 240.963 744.052 240.73C744.2 240.494 744.397 240.31 744.644 240.176C744.892 240.043 745.164 239.943 745.463 239.878C745.764 239.81 746.066 239.756 746.37 239.716C746.768 239.665 747.09 239.626 747.338 239.601C747.588 239.572 747.769 239.526 747.883 239.46C747.999 239.395 748.058 239.281 748.058 239.119V239.085C748.058 238.665 747.943 238.338 747.713 238.105C747.485 237.872 747.14 237.756 746.677 237.756C746.197 237.756 745.82 237.861 745.548 238.071C745.275 238.281 745.083 238.506 744.972 238.744L744.018 238.403C744.188 238.006 744.416 237.696 744.7 237.474C744.987 237.25 745.299 237.094 745.637 237.006C745.978 236.915 746.313 236.869 746.643 236.869C746.853 236.869 747.095 236.895 747.367 236.946C747.643 236.994 747.909 237.095 748.164 237.249C748.423 237.402 748.637 237.634 748.808 237.943C748.978 238.253 749.063 238.668 749.063 239.188V243.5H748.058V242.614H748.007C747.938 242.756 747.825 242.908 747.666 243.07C747.507 243.232 747.295 243.369 747.031 243.483C746.767 243.597 746.444 243.653 746.063 243.653ZM746.217 242.75C746.615 242.75 746.95 242.672 747.222 242.516C747.498 242.359 747.705 242.158 747.845 241.911C747.987 241.663 748.058 241.403 748.058 241.131V240.21C748.015 240.261 747.921 240.308 747.776 240.351C747.634 240.391 747.47 240.426 747.282 240.457C747.097 240.486 746.917 240.511 746.741 240.534C746.568 240.554 746.427 240.571 746.319 240.585C746.058 240.619 745.813 240.675 745.586 240.751C745.362 240.825 745.18 240.937 745.041 241.088C744.904 241.236 744.836 241.437 744.836 241.693C744.836 242.043 744.965 242.307 745.224 242.486C745.485 242.662 745.816 242.75 746.217 242.75ZM750.899 243.5V236.955H751.871V237.943H751.939C752.058 237.619 752.274 237.357 752.586 237.155C752.899 236.953 753.251 236.852 753.643 236.852C753.717 236.852 753.809 236.854 753.92 236.857C754.031 236.859 754.115 236.864 754.172 236.869V237.892C754.138 237.884 754.059 237.871 753.937 237.854C753.818 237.834 753.692 237.824 753.558 237.824C753.24 237.824 752.956 237.891 752.706 238.024C752.459 238.155 752.263 238.337 752.118 238.57C751.976 238.8 751.905 239.062 751.905 239.358V243.5H750.899ZM758.621 236.955V237.807H755.229V236.955H758.621ZM756.217 235.386H757.223V241.625C757.223 241.909 757.264 242.122 757.346 242.264C757.432 242.403 757.54 242.497 757.67 242.545C757.804 242.591 757.944 242.614 758.092 242.614C758.203 242.614 758.294 242.608 758.365 242.597C758.436 242.582 758.493 242.571 758.535 242.562L758.74 243.466C758.672 243.491 758.577 243.517 758.454 243.543C758.332 243.571 758.177 243.585 757.99 243.585C757.706 243.585 757.427 243.524 757.155 243.402C756.885 243.28 756.66 243.094 756.481 242.844C756.305 242.594 756.217 242.278 756.217 241.898V235.386ZM764.514 239.562V243.5H763.508V236.955H764.48V237.977H764.565C764.719 237.645 764.952 237.378 765.264 237.176C765.577 236.972 765.98 236.869 766.474 236.869C766.917 236.869 767.305 236.96 767.638 237.142C767.97 237.321 768.229 237.594 768.413 237.96C768.598 238.324 768.69 238.784 768.69 239.341V243.5H767.684V239.409C767.684 238.895 767.551 238.494 767.284 238.207C767.017 237.918 766.65 237.773 766.184 237.773C765.863 237.773 765.577 237.842 765.324 237.982C765.074 238.121 764.876 238.324 764.731 238.591C764.586 238.858 764.514 239.182 764.514 239.562ZM773.272 243.636C772.642 243.636 772.097 243.497 771.64 243.219C771.186 242.938 770.835 242.545 770.588 242.043C770.343 241.537 770.221 240.949 770.221 240.278C770.221 239.608 770.343 239.017 770.588 238.506C770.835 237.991 771.178 237.591 771.619 237.304C772.062 237.014 772.579 236.869 773.17 236.869C773.511 236.869 773.847 236.926 774.18 237.04C774.512 237.153 774.815 237.338 775.088 237.594C775.36 237.847 775.578 238.182 775.74 238.599C775.901 239.017 775.982 239.531 775.982 240.142V240.568H770.937V239.699H774.96C774.96 239.33 774.886 239 774.738 238.71C774.593 238.42 774.386 238.192 774.116 238.024C773.849 237.857 773.534 237.773 773.17 237.773C772.769 237.773 772.423 237.872 772.13 238.071C771.84 238.267 771.617 238.523 771.461 238.838C771.305 239.153 771.227 239.491 771.227 239.852V240.432C771.227 240.926 771.312 241.345 771.482 241.689C771.656 242.03 771.896 242.29 772.203 242.469C772.509 242.645 772.866 242.733 773.272 242.733C773.536 242.733 773.775 242.696 773.988 242.622C774.204 242.545 774.39 242.432 774.546 242.281C774.703 242.128 774.823 241.937 774.909 241.71L775.88 241.983C775.778 242.312 775.606 242.602 775.365 242.852C775.123 243.099 774.825 243.293 774.47 243.432C774.115 243.568 773.715 243.636 773.272 243.636ZM778.995 243.5L777.001 236.955H778.058L779.472 241.966H779.541L780.938 236.955H782.012L783.393 241.949H783.461L784.876 236.955H785.933L783.938 243.5H782.95L781.518 238.472H781.416L779.984 243.5H778.995ZM793.296 243.636C792.683 243.636 792.154 243.491 791.711 243.202C791.268 242.912 790.927 242.513 790.688 242.004C790.45 241.496 790.33 240.915 790.33 240.261C790.33 239.597 790.453 239.01 790.697 238.501C790.944 237.99 791.288 237.591 791.728 237.304C792.171 237.014 792.688 236.869 793.279 236.869C793.74 236.869 794.154 236.955 794.524 237.125C794.893 237.295 795.195 237.534 795.431 237.841C795.667 238.148 795.813 238.506 795.87 238.915H794.865C794.788 238.616 794.617 238.352 794.353 238.122C794.092 237.889 793.74 237.773 793.296 237.773C792.904 237.773 792.561 237.875 792.265 238.08C791.972 238.281 791.744 238.567 791.579 238.936C791.417 239.303 791.336 239.733 791.336 240.227C791.336 240.733 791.416 241.173 791.575 241.548C791.737 241.923 791.964 242.214 792.257 242.422C792.552 242.629 792.899 242.733 793.296 242.733C793.558 242.733 793.795 242.688 794.008 242.597C794.221 242.506 794.401 242.375 794.549 242.205C794.697 242.034 794.802 241.83 794.865 241.591H795.87C795.813 241.977 795.673 242.325 795.448 242.635C795.227 242.942 794.933 243.186 794.566 243.368C794.203 243.547 793.779 243.636 793.296 243.636ZM798.346 239.562V243.5H797.34V234.773H798.346V237.977H798.431C798.585 237.639 798.815 237.371 799.122 237.172C799.431 236.97 799.843 236.869 800.357 236.869C800.803 236.869 801.194 236.959 801.529 237.138C801.865 237.314 802.124 237.585 802.309 237.952C802.497 238.315 802.59 238.778 802.59 239.341V243.5H801.585V239.409C801.585 238.889 801.45 238.487 801.18 238.203C800.913 237.916 800.542 237.773 800.068 237.773C799.738 237.773 799.443 237.842 799.181 237.982C798.923 238.121 798.718 238.324 798.568 238.591C798.42 238.858 798.346 239.182 798.346 239.562ZM806.356 243.653C805.942 243.653 805.565 243.575 805.227 243.419C804.889 243.26 804.621 243.031 804.422 242.733C804.223 242.432 804.123 242.068 804.123 241.642C804.123 241.267 804.197 240.963 804.345 240.73C804.493 240.494 804.69 240.31 804.937 240.176C805.184 240.043 805.457 239.943 805.756 239.878C806.057 239.81 806.359 239.756 806.663 239.716C807.061 239.665 807.383 239.626 807.631 239.601C807.881 239.572 808.062 239.526 808.176 239.46C808.292 239.395 808.351 239.281 808.351 239.119V239.085C808.351 238.665 808.236 238.338 808.006 238.105C807.778 237.872 807.433 237.756 806.97 237.756C806.49 237.756 806.113 237.861 805.841 238.071C805.568 238.281 805.376 238.506 805.265 238.744L804.311 238.403C804.481 238.006 804.709 237.696 804.993 237.474C805.28 237.25 805.592 237.094 805.93 237.006C806.271 236.915 806.606 236.869 806.936 236.869C807.146 236.869 807.388 236.895 807.66 236.946C807.936 236.994 808.202 237.095 808.457 237.249C808.716 237.402 808.93 237.634 809.101 237.943C809.271 238.253 809.356 238.668 809.356 239.188V243.5H808.351V242.614H808.3C808.231 242.756 808.118 242.908 807.959 243.07C807.8 243.232 807.588 243.369 807.324 243.483C807.059 243.597 806.737 243.653 806.356 243.653ZM806.51 242.75C806.907 242.75 807.243 242.672 807.515 242.516C807.791 242.359 807.998 242.158 808.138 241.911C808.28 241.663 808.351 241.403 808.351 241.131V240.21C808.308 240.261 808.214 240.308 808.069 240.351C807.927 240.391 807.763 240.426 807.575 240.457C807.39 240.486 807.21 240.511 807.034 240.534C806.861 240.554 806.72 240.571 806.612 240.585C806.351 240.619 806.106 240.675 805.879 240.751C805.655 240.825 805.473 240.937 805.334 241.088C805.197 241.236 805.129 241.437 805.129 241.693C805.129 242.043 805.258 242.307 805.517 242.486C805.778 242.662 806.109 242.75 806.51 242.75ZM814.039 236.955V237.807H810.646V236.955H814.039ZM811.635 235.386H812.641V241.625C812.641 241.909 812.682 242.122 812.764 242.264C812.85 242.403 812.958 242.497 813.088 242.545C813.222 242.591 813.362 242.614 813.51 242.614C813.621 242.614 813.712 242.608 813.783 242.597C813.854 242.582 813.911 242.571 813.953 242.562L814.158 243.466C814.09 243.491 813.994 243.517 813.872 243.543C813.75 243.571 813.595 243.585 813.408 243.585C813.124 243.585 812.845 243.524 812.573 243.402C812.303 243.28 812.078 243.094 811.899 242.844C811.723 242.594 811.635 242.278 811.635 241.898V235.386Z" fill="#EDFBF2"/>
<rect x="676" y="311" width="163" height="29" rx="3" fill="#ACEAC2"/>
<path d="M705.514 326.562V330.5H704.508V323.955H705.48V324.977H705.565C705.719 324.645 705.952 324.378 706.264 324.176C706.577 323.972 706.98 323.869 707.474 323.869C707.917 323.869 708.305 323.96 708.638 324.142C708.97 324.321 709.229 324.594 709.413 324.96C709.598 325.324 709.69 325.784 709.69 326.341V330.5H708.684V326.409C708.684 325.895 708.551 325.494 708.284 325.207C708.017 324.918 707.65 324.773 707.184 324.773C706.863 324.773 706.577 324.842 706.324 324.982C706.074 325.121 705.876 325.324 705.731 325.591C705.586 325.858 705.514 326.182 705.514 326.562ZM714.272 330.636C713.642 330.636 713.097 330.497 712.64 330.219C712.186 329.938 711.835 329.545 711.588 329.043C711.343 328.537 711.221 327.949 711.221 327.278C711.221 326.608 711.343 326.017 711.588 325.506C711.835 324.991 712.178 324.591 712.619 324.304C713.062 324.014 713.579 323.869 714.17 323.869C714.511 323.869 714.847 323.926 715.18 324.04C715.512 324.153 715.815 324.338 716.088 324.594C716.36 324.847 716.578 325.182 716.74 325.599C716.901 326.017 716.982 326.531 716.982 327.142V327.568H711.937V326.699H715.96C715.96 326.33 715.886 326 715.738 325.71C715.593 325.42 715.386 325.192 715.116 325.024C714.849 324.857 714.534 324.773 714.17 324.773C713.769 324.773 713.423 324.872 713.13 325.071C712.84 325.267 712.617 325.523 712.461 325.838C712.305 326.153 712.227 326.491 712.227 326.852V327.432C712.227 327.926 712.312 328.345 712.482 328.689C712.656 329.03 712.896 329.29 713.203 329.469C713.509 329.645 713.866 329.733 714.272 329.733C714.536 329.733 714.775 329.696 714.988 329.622C715.204 329.545 715.39 329.432 715.546 329.281C715.703 329.128 715.823 328.937 715.909 328.71L716.88 328.983C716.778 329.312 716.606 329.602 716.365 329.852C716.123 330.099 715.825 330.293 715.47 330.432C715.115 330.568 714.715 330.636 714.272 330.636ZM719.995 330.5L718.001 323.955H719.058L720.472 328.966H720.541L721.938 323.955H723.012L724.393 328.949H724.461L725.876 323.955H726.933L724.938 330.5H723.95L722.518 325.472H722.416L720.984 330.5H719.995ZM734.296 330.636C733.683 330.636 733.154 330.491 732.711 330.202C732.268 329.912 731.927 329.513 731.688 329.004C731.45 328.496 731.33 327.915 731.33 327.261C731.33 326.597 731.453 326.01 731.697 325.501C731.944 324.99 732.288 324.591 732.728 324.304C733.171 324.014 733.688 323.869 734.279 323.869C734.74 323.869 735.154 323.955 735.524 324.125C735.893 324.295 736.195 324.534 736.431 324.841C736.667 325.148 736.813 325.506 736.87 325.915H735.865C735.788 325.616 735.617 325.352 735.353 325.122C735.092 324.889 734.74 324.773 734.296 324.773C733.904 324.773 733.561 324.875 733.265 325.08C732.972 325.281 732.744 325.567 732.579 325.936C732.417 326.303 732.336 326.733 732.336 327.227C732.336 327.733 732.416 328.173 732.575 328.548C732.737 328.923 732.964 329.214 733.257 329.422C733.552 329.629 733.899 329.733 734.296 329.733C734.558 329.733 734.795 329.688 735.008 329.597C735.221 329.506 735.401 329.375 735.549 329.205C735.697 329.034 735.802 328.83 735.865 328.591H736.87C736.813 328.977 736.673 329.325 736.448 329.635C736.227 329.942 735.933 330.186 735.566 330.368C735.203 330.547 734.779 330.636 734.296 330.636ZM739.346 326.562V330.5H738.34V321.773H739.346V324.977H739.431C739.585 324.639 739.815 324.371 740.122 324.172C740.431 323.97 740.843 323.869 741.357 323.869C741.803 323.869 742.194 323.959 742.529 324.138C742.865 324.314 743.124 324.585 743.309 324.952C743.497 325.315 743.59 325.778 743.59 326.341V330.5H742.585V326.409C742.585 325.889 742.45 325.487 742.18 325.203C741.913 324.916 741.542 324.773 741.068 324.773C740.738 324.773 740.443 324.842 740.181 324.982C739.923 325.121 739.718 325.324 739.568 325.591C739.42 325.858 739.346 326.182 739.346 326.562ZM747.356 330.653C746.942 330.653 746.565 330.575 746.227 330.419C745.889 330.26 745.621 330.031 745.422 329.733C745.223 329.432 745.123 329.068 745.123 328.642C745.123 328.267 745.197 327.963 745.345 327.73C745.493 327.494 745.69 327.31 745.937 327.176C746.184 327.043 746.457 326.943 746.756 326.878C747.057 326.81 747.359 326.756 747.663 326.716C748.061 326.665 748.383 326.626 748.631 326.601C748.881 326.572 749.062 326.526 749.176 326.46C749.292 326.395 749.351 326.281 749.351 326.119V326.085C749.351 325.665 749.236 325.338 749.006 325.105C748.778 324.872 748.433 324.756 747.97 324.756C747.49 324.756 747.113 324.861 746.841 325.071C746.568 325.281 746.376 325.506 746.265 325.744L745.311 325.403C745.481 325.006 745.709 324.696 745.993 324.474C746.28 324.25 746.592 324.094 746.93 324.006C747.271 323.915 747.606 323.869 747.936 323.869C748.146 323.869 748.388 323.895 748.66 323.946C748.936 323.994 749.202 324.095 749.457 324.249C749.716 324.402 749.93 324.634 750.101 324.943C750.271 325.253 750.356 325.668 750.356 326.188V330.5H749.351V329.614H749.3C749.231 329.756 749.118 329.908 748.959 330.07C748.8 330.232 748.588 330.369 748.324 330.483C748.059 330.597 747.737 330.653 747.356 330.653ZM747.51 329.75C747.907 329.75 748.243 329.672 748.515 329.516C748.791 329.359 748.998 329.158 749.138 328.911C749.28 328.663 749.351 328.403 749.351 328.131V327.21C749.308 327.261 749.214 327.308 749.069 327.351C748.927 327.391 748.763 327.426 748.575 327.457C748.39 327.486 748.21 327.511 748.034 327.534C747.861 327.554 747.72 327.571 747.612 327.585C747.351 327.619 747.106 327.675 746.879 327.751C746.655 327.825 746.473 327.937 746.334 328.088C746.197 328.236 746.129 328.437 746.129 328.693C746.129 329.043 746.258 329.307 746.517 329.486C746.778 329.662 747.109 329.75 747.51 329.75ZM755.039 323.955V324.807H751.646V323.955H755.039ZM752.635 322.386H753.641V328.625C753.641 328.909 753.682 329.122 753.764 329.264C753.85 329.403 753.958 329.497 754.088 329.545C754.222 329.591 754.362 329.614 754.51 329.614C754.621 329.614 754.712 329.608 754.783 329.597C754.854 329.582 754.911 329.571 754.953 329.562L755.158 330.466C755.09 330.491 754.994 330.517 754.872 330.543C754.75 330.571 754.595 330.585 754.408 330.585C754.124 330.585 753.845 330.524 753.573 330.402C753.303 330.28 753.078 330.094 752.899 329.844C752.723 329.594 752.635 329.278 752.635 328.898V322.386ZM762.585 330.636C761.994 330.636 761.476 330.496 761.03 330.214C760.587 329.933 760.24 329.54 759.99 329.034C759.743 328.528 759.619 327.937 759.619 327.261C759.619 326.58 759.743 325.984 759.99 325.476C760.24 324.967 760.587 324.572 761.03 324.291C761.476 324.01 761.994 323.869 762.585 323.869C763.176 323.869 763.693 324.01 764.137 324.291C764.583 324.572 764.929 324.967 765.176 325.476C765.426 325.984 765.551 326.58 765.551 327.261C765.551 327.937 765.426 328.528 765.176 329.034C764.929 329.54 764.583 329.933 764.137 330.214C763.693 330.496 763.176 330.636 762.585 330.636ZM762.585 329.733C763.034 329.733 763.404 329.618 763.693 329.388C763.983 329.158 764.198 328.855 764.337 328.48C764.476 328.105 764.546 327.699 764.546 327.261C764.546 326.824 764.476 326.416 764.337 326.038C764.198 325.661 763.983 325.355 763.693 325.122C763.404 324.889 763.034 324.773 762.585 324.773C762.137 324.773 761.767 324.889 761.477 325.122C761.188 325.355 760.973 325.661 760.834 326.038C760.695 326.416 760.625 326.824 760.625 327.261C760.625 327.699 760.695 328.105 760.834 328.48C760.973 328.855 761.188 329.158 761.477 329.388C761.767 329.618 762.137 329.733 762.585 329.733ZM767.086 332.955V323.955H768.058V324.994H768.177C768.251 324.881 768.354 324.736 768.484 324.56C768.618 324.381 768.808 324.222 769.055 324.082C769.305 323.94 769.643 323.869 770.069 323.869C770.621 323.869 771.106 324.007 771.527 324.283C771.947 324.558 772.275 324.949 772.511 325.455C772.747 325.96 772.865 326.557 772.865 327.244C772.865 327.938 772.747 328.538 772.511 329.047C772.275 329.553 771.949 329.945 771.531 330.223C771.113 330.499 770.632 330.636 770.086 330.636C769.666 330.636 769.329 330.567 769.077 330.428C768.824 330.286 768.629 330.125 768.493 329.946C768.356 329.764 768.251 329.614 768.177 329.494H768.092V332.955H767.086ZM768.075 327.227C768.075 327.722 768.148 328.158 768.292 328.536C768.437 328.911 768.649 329.205 768.927 329.418C769.206 329.628 769.547 329.733 769.95 329.733C770.371 329.733 770.721 329.622 771.003 329.401C771.287 329.176 771.5 328.875 771.642 328.497C771.787 328.116 771.859 327.693 771.859 327.227C771.859 326.767 771.788 326.352 771.646 325.983C771.507 325.611 771.295 325.317 771.011 325.101C770.73 324.882 770.376 324.773 769.95 324.773C769.541 324.773 769.197 324.876 768.919 325.084C768.64 325.288 768.43 325.575 768.288 325.945C768.146 326.311 768.075 326.739 768.075 327.227ZM777.143 330.636C776.513 330.636 775.969 330.497 775.511 330.219C775.057 329.938 774.706 329.545 774.459 329.043C774.214 328.537 774.092 327.949 774.092 327.278C774.092 326.608 774.214 326.017 774.459 325.506C774.706 324.991 775.05 324.591 775.49 324.304C775.933 324.014 776.45 323.869 777.041 323.869C777.382 323.869 777.719 323.926 778.051 324.04C778.383 324.153 778.686 324.338 778.959 324.594C779.231 324.847 779.449 325.182 779.611 325.599C779.773 326.017 779.854 326.531 779.854 327.142V327.568H774.808V326.699H778.831C778.831 326.33 778.757 326 778.609 325.71C778.464 325.42 778.257 325.192 777.987 325.024C777.72 324.857 777.405 324.773 777.041 324.773C776.64 324.773 776.294 324.872 776.001 325.071C775.711 325.267 775.488 325.523 775.332 325.838C775.176 326.153 775.098 326.491 775.098 326.852V327.432C775.098 327.926 775.183 328.345 775.354 328.689C775.527 329.03 775.767 329.29 776.074 329.469C776.381 329.645 776.737 329.733 777.143 329.733C777.407 329.733 777.646 329.696 777.859 329.622C778.075 329.545 778.261 329.432 778.417 329.281C778.574 329.128 778.694 328.937 778.78 328.71L779.751 328.983C779.649 329.312 779.477 329.602 779.236 329.852C778.994 330.099 778.696 330.293 778.341 330.432C777.986 330.568 777.586 330.636 777.143 330.636ZM782.389 326.562V330.5H781.383V323.955H782.355V324.977H782.44C782.594 324.645 782.827 324.378 783.139 324.176C783.452 323.972 783.855 323.869 784.349 323.869C784.792 323.869 785.18 323.96 785.513 324.142C785.845 324.321 786.104 324.594 786.288 324.96C786.473 325.324 786.565 325.784 786.565 326.341V330.5H785.559V326.409C785.559 325.895 785.426 325.494 785.159 325.207C784.892 324.918 784.525 324.773 784.059 324.773C783.738 324.773 783.452 324.842 783.199 324.982C782.949 325.121 782.751 325.324 782.606 325.591C782.461 325.858 782.389 326.182 782.389 326.562ZM793.039 325.42L792.136 325.676C792.079 325.526 791.995 325.379 791.884 325.237C791.776 325.092 791.629 324.973 791.441 324.879C791.254 324.786 791.014 324.739 790.721 324.739C790.32 324.739 789.987 324.831 789.72 325.016C789.455 325.197 789.323 325.429 789.323 325.71C789.323 325.96 789.414 326.158 789.596 326.303C789.778 326.447 790.062 326.568 790.448 326.665L791.42 326.903C792.005 327.045 792.441 327.263 792.728 327.555C793.015 327.845 793.159 328.219 793.159 328.676C793.159 329.051 793.051 329.386 792.835 329.682C792.622 329.977 792.323 330.21 791.94 330.381C791.556 330.551 791.11 330.636 790.602 330.636C789.934 330.636 789.382 330.491 788.944 330.202C788.507 329.912 788.23 329.489 788.113 328.932L789.068 328.693C789.159 329.045 789.33 329.31 789.583 329.486C789.839 329.662 790.173 329.75 790.585 329.75C791.053 329.75 791.426 329.651 791.701 329.452C791.98 329.25 792.119 329.009 792.119 328.727C792.119 328.5 792.039 328.31 791.88 328.156C791.721 328 791.477 327.884 791.147 327.807L790.056 327.551C789.457 327.409 789.017 327.189 788.735 326.891C788.457 326.589 788.318 326.213 788.318 325.761C788.318 325.392 788.421 325.065 788.629 324.781C788.839 324.497 789.124 324.274 789.485 324.112C789.849 323.95 790.261 323.869 790.721 323.869C791.369 323.869 791.877 324.011 792.247 324.295C792.619 324.58 792.883 324.955 793.039 325.42ZM802.172 327.824V323.955H803.178V330.5H802.172V329.392H802.104C801.951 329.724 801.712 330.007 801.388 330.24C801.064 330.47 800.655 330.585 800.161 330.585C799.752 330.585 799.388 330.496 799.07 330.317C798.752 330.135 798.502 329.862 798.32 329.499C798.138 329.132 798.047 328.67 798.047 328.114V323.955H799.053V328.045C799.053 328.523 799.187 328.903 799.454 329.188C799.724 329.472 800.067 329.614 800.485 329.614C800.735 329.614 800.989 329.55 801.248 329.422C801.509 329.294 801.728 329.098 801.904 328.834C802.083 328.57 802.172 328.233 802.172 327.824ZM805.02 332.955V323.955H805.992V324.994H806.111C806.185 324.881 806.287 324.736 806.418 324.56C806.551 324.381 806.742 324.222 806.989 324.082C807.239 323.94 807.577 323.869 808.003 323.869C808.554 323.869 809.04 324.007 809.46 324.283C809.881 324.558 810.209 324.949 810.445 325.455C810.681 325.96 810.798 326.557 810.798 327.244C810.798 327.938 810.681 328.538 810.445 329.047C810.209 329.553 809.882 329.945 809.465 330.223C809.047 330.499 808.566 330.636 808.02 330.636C807.6 330.636 807.263 330.567 807.01 330.428C806.757 330.286 806.563 330.125 806.426 329.946C806.29 329.764 806.185 329.614 806.111 329.494H806.026V332.955H805.02ZM806.009 327.227C806.009 327.722 806.081 328.158 806.226 328.536C806.371 328.911 806.583 329.205 806.861 329.418C807.139 329.628 807.48 329.733 807.884 329.733C808.304 329.733 808.655 329.622 808.936 329.401C809.22 329.176 809.433 328.875 809.575 328.497C809.72 328.116 809.793 327.693 809.793 327.227C809.793 326.767 809.722 326.352 809.58 325.983C809.441 325.611 809.229 325.317 808.945 325.101C808.664 324.882 808.31 324.773 807.884 324.773C807.475 324.773 807.131 324.876 806.852 325.084C806.574 325.288 806.364 325.575 806.222 325.945C806.08 326.311 806.009 326.739 806.009 327.227Z" fill="#205834"/>
<rect x="696" y="385" width="123" height="29" rx="3" fill="#ACEAC2"/>
<path d="M724.599 404.636C723.985 404.636 723.457 404.491 723.014 404.202C722.571 403.912 722.23 403.513 721.991 403.004C721.752 402.496 721.633 401.915 721.633 401.261C721.633 400.597 721.755 400.01 722 399.501C722.247 398.99 722.591 398.591 723.031 398.304C723.474 398.014 723.991 397.869 724.582 397.869C725.042 397.869 725.457 397.955 725.826 398.125C726.196 398.295 726.498 398.534 726.734 398.841C726.97 399.148 727.116 399.506 727.173 399.915H726.167C726.091 399.616 725.92 399.352 725.656 399.122C725.395 398.889 725.042 398.773 724.599 398.773C724.207 398.773 723.863 398.875 723.568 399.08C723.275 399.281 723.047 399.567 722.882 399.936C722.72 400.303 722.639 400.733 722.639 401.227C722.639 401.733 722.718 402.173 722.877 402.548C723.039 402.923 723.267 403.214 723.559 403.422C723.855 403.629 724.201 403.733 724.599 403.733C724.86 403.733 725.098 403.688 725.311 403.597C725.524 403.506 725.704 403.375 725.852 403.205C726 403.034 726.105 402.83 726.167 402.591H727.173C727.116 402.977 726.975 403.325 726.751 403.635C726.529 403.942 726.235 404.186 725.869 404.368C725.505 404.547 725.082 404.636 724.599 404.636ZM731.302 404.636C730.711 404.636 730.193 404.496 729.747 404.214C729.304 403.933 728.957 403.54 728.707 403.034C728.46 402.528 728.336 401.937 728.336 401.261C728.336 400.58 728.46 399.984 728.707 399.476C728.957 398.967 729.304 398.572 729.747 398.291C730.193 398.01 730.711 397.869 731.302 397.869C731.893 397.869 732.41 398.01 732.853 398.291C733.299 398.572 733.646 398.967 733.893 399.476C734.143 399.984 734.268 400.58 734.268 401.261C734.268 401.937 734.143 402.528 733.893 403.034C733.646 403.54 733.299 403.933 732.853 404.214C732.41 404.496 731.893 404.636 731.302 404.636ZM731.302 403.733C731.751 403.733 732.12 403.618 732.41 403.388C732.7 403.158 732.914 402.855 733.054 402.48C733.193 402.105 733.262 401.699 733.262 401.261C733.262 400.824 733.193 400.416 733.054 400.038C732.914 399.661 732.7 399.355 732.41 399.122C732.12 398.889 731.751 398.773 731.302 398.773C730.853 398.773 730.484 398.889 730.194 399.122C729.904 399.355 729.69 399.661 729.551 400.038C729.412 400.416 729.342 400.824 729.342 401.261C729.342 401.699 729.412 402.105 729.551 402.48C729.69 402.855 729.904 403.158 730.194 403.388C730.484 403.618 730.853 403.733 731.302 403.733ZM736.809 400.562V404.5H735.803V397.955H736.775V398.977H736.86C737.013 398.645 737.246 398.378 737.559 398.176C737.871 397.972 738.275 397.869 738.769 397.869C739.212 397.869 739.6 397.96 739.933 398.142C740.265 398.321 740.523 398.594 740.708 398.96C740.893 399.324 740.985 399.784 740.985 400.341V404.5H739.979V400.409C739.979 399.895 739.846 399.494 739.579 399.207C739.312 398.918 738.945 398.773 738.479 398.773C738.158 398.773 737.871 398.842 737.619 398.982C737.369 399.121 737.171 399.324 737.026 399.591C736.881 399.858 736.809 400.182 736.809 400.562ZM747.941 397.955L745.52 404.5H744.498L742.077 397.955H743.168L744.975 403.17H745.043L746.85 397.955H747.941ZM751.778 404.636C751.147 404.636 750.603 404.497 750.146 404.219C749.691 403.938 749.341 403.545 749.093 403.043C748.849 402.537 748.727 401.949 748.727 401.278C748.727 400.608 748.849 400.017 749.093 399.506C749.341 398.991 749.684 398.591 750.125 398.304C750.568 398.014 751.085 397.869 751.676 397.869C752.017 397.869 752.353 397.926 752.686 398.04C753.018 398.153 753.321 398.338 753.593 398.594C753.866 398.847 754.083 399.182 754.245 399.599C754.407 400.017 754.488 400.531 754.488 401.142V401.568H749.443V400.699H753.466C753.466 400.33 753.392 400 753.244 399.71C753.099 399.42 752.892 399.192 752.622 399.024C752.355 398.857 752.039 398.773 751.676 398.773C751.275 398.773 750.929 398.872 750.636 399.071C750.346 399.267 750.123 399.523 749.967 399.838C749.811 400.153 749.733 400.491 749.733 400.852V401.432C749.733 401.926 749.818 402.345 749.988 402.689C750.162 403.03 750.402 403.29 750.708 403.469C751.015 403.645 751.372 403.733 751.778 403.733C752.042 403.733 752.281 403.696 752.494 403.622C752.71 403.545 752.896 403.432 753.052 403.281C753.208 403.128 753.329 402.937 753.414 402.71L754.386 402.983C754.284 403.312 754.112 403.602 753.87 403.852C753.629 404.099 753.331 404.293 752.975 404.432C752.62 404.568 752.221 404.636 751.778 404.636ZM756.018 404.5V397.955H756.99V398.943H757.058C757.177 398.619 757.393 398.357 757.706 398.155C758.018 397.953 758.37 397.852 758.762 397.852C758.836 397.852 758.929 397.854 759.039 397.857C759.15 397.859 759.234 397.864 759.291 397.869V398.892C759.257 398.884 759.179 398.871 759.056 398.854C758.937 398.834 758.811 398.824 758.677 398.824C758.359 398.824 758.075 398.891 757.825 399.024C757.578 399.155 757.382 399.337 757.237 399.57C757.095 399.8 757.024 400.062 757.024 400.358V404.5H756.018ZM765.119 399.42L764.216 399.676C764.159 399.526 764.075 399.379 763.964 399.237C763.857 399.092 763.709 398.973 763.521 398.879C763.334 398.786 763.094 398.739 762.801 398.739C762.401 398.739 762.067 398.831 761.8 399.016C761.536 399.197 761.403 399.429 761.403 399.71C761.403 399.96 761.494 400.158 761.676 400.303C761.858 400.447 762.142 400.568 762.528 400.665L763.5 400.903C764.085 401.045 764.521 401.263 764.808 401.555C765.095 401.845 765.239 402.219 765.239 402.676C765.239 403.051 765.131 403.386 764.915 403.682C764.702 403.977 764.403 404.21 764.02 404.381C763.636 404.551 763.19 404.636 762.682 404.636C762.014 404.636 761.462 404.491 761.024 404.202C760.587 403.912 760.31 403.489 760.193 402.932L761.148 402.693C761.239 403.045 761.411 403.31 761.663 403.486C761.919 403.662 762.253 403.75 762.665 403.75C763.134 403.75 763.506 403.651 763.781 403.452C764.06 403.25 764.199 403.009 764.199 402.727C764.199 402.5 764.119 402.31 763.96 402.156C763.801 402 763.557 401.884 763.227 401.807L762.136 401.551C761.537 401.409 761.097 401.189 760.815 400.891C760.537 400.589 760.398 400.213 760.398 399.761C760.398 399.392 760.501 399.065 760.709 398.781C760.919 398.497 761.205 398.274 761.565 398.112C761.929 397.95 762.341 397.869 762.801 397.869C763.449 397.869 763.957 398.011 764.327 398.295C764.699 398.58 764.963 398.955 765.119 399.42ZM768.679 404.653C768.264 404.653 767.887 404.575 767.549 404.419C767.211 404.26 766.943 404.031 766.744 403.733C766.545 403.432 766.446 403.068 766.446 402.642C766.446 402.267 766.52 401.963 766.667 401.73C766.815 401.494 767.012 401.31 767.26 401.176C767.507 401.043 767.779 400.943 768.078 400.878C768.379 400.81 768.681 400.756 768.985 400.716C769.383 400.665 769.706 400.626 769.953 400.601C770.203 400.572 770.385 400.526 770.498 400.46C770.615 400.395 770.673 400.281 770.673 400.119V400.085C770.673 399.665 770.558 399.338 770.328 399.105C770.1 398.872 769.755 398.756 769.292 398.756C768.812 398.756 768.436 398.861 768.163 399.071C767.89 399.281 767.699 399.506 767.588 399.744L766.633 399.403C766.804 399.006 767.031 398.696 767.315 398.474C767.602 398.25 767.914 398.094 768.252 398.006C768.593 397.915 768.929 397.869 769.258 397.869C769.468 397.869 769.71 397.895 769.983 397.946C770.258 397.994 770.524 398.095 770.779 398.249C771.038 398.402 771.252 398.634 771.423 398.943C771.593 399.253 771.679 399.668 771.679 400.188V404.5H770.673V403.614H770.622C770.554 403.756 770.44 403.908 770.281 404.07C770.122 404.232 769.91 404.369 769.646 404.483C769.382 404.597 769.059 404.653 768.679 404.653ZM768.832 403.75C769.23 403.75 769.565 403.672 769.838 403.516C770.113 403.359 770.321 403.158 770.46 402.911C770.602 402.663 770.673 402.403 770.673 402.131V401.21C770.63 401.261 770.537 401.308 770.392 401.351C770.25 401.391 770.085 401.426 769.897 401.457C769.713 401.486 769.532 401.511 769.356 401.534C769.183 401.554 769.042 401.571 768.934 401.585C768.673 401.619 768.429 401.675 768.201 401.751C767.977 401.825 767.795 401.937 767.656 402.088C767.52 402.236 767.451 402.437 767.451 402.693C767.451 403.043 767.581 403.307 767.839 403.486C768.1 403.662 768.431 403.75 768.832 403.75ZM776.361 397.955V398.807H772.969V397.955H776.361ZM773.957 396.386H774.963V402.625C774.963 402.909 775.004 403.122 775.087 403.264C775.172 403.403 775.28 403.497 775.411 403.545C775.544 403.591 775.685 403.614 775.832 403.614C775.943 403.614 776.034 403.608 776.105 403.597C776.176 403.582 776.233 403.571 776.276 403.562L776.48 404.466C776.412 404.491 776.317 404.517 776.195 404.543C776.072 404.571 775.918 404.585 775.73 404.585C775.446 404.585 775.168 404.524 774.895 404.402C774.625 404.28 774.401 404.094 774.222 403.844C774.045 403.594 773.957 403.278 773.957 402.898V396.386ZM777.874 404.5V397.955H778.879V404.5H777.874ZM778.385 396.864C778.189 396.864 778.02 396.797 777.878 396.663C777.739 396.53 777.669 396.369 777.669 396.182C777.669 395.994 777.739 395.834 777.878 395.7C778.02 395.567 778.189 395.5 778.385 395.5C778.581 395.5 778.749 395.567 778.888 395.7C779.03 395.834 779.101 395.994 779.101 396.182C779.101 396.369 779.03 396.53 778.888 396.663C778.749 396.797 778.581 396.864 778.385 396.864ZM783.38 404.636C782.789 404.636 782.271 404.496 781.825 404.214C781.382 403.933 781.035 403.54 780.785 403.034C780.538 402.528 780.414 401.937 780.414 401.261C780.414 400.58 780.538 399.984 780.785 399.476C781.035 398.967 781.382 398.572 781.825 398.291C782.271 398.01 782.789 397.869 783.38 397.869C783.971 397.869 784.488 398.01 784.931 398.291C785.377 398.572 785.724 398.967 785.971 399.476C786.221 399.984 786.346 400.58 786.346 401.261C786.346 401.937 786.221 402.528 785.971 403.034C785.724 403.54 785.377 403.933 784.931 404.214C784.488 404.496 783.971 404.636 783.38 404.636ZM783.38 403.733C783.829 403.733 784.199 403.618 784.488 403.388C784.778 403.158 784.993 402.855 785.132 402.48C785.271 402.105 785.341 401.699 785.341 401.261C785.341 400.824 785.271 400.416 785.132 400.038C784.993 399.661 784.778 399.355 784.488 399.122C784.199 398.889 783.829 398.773 783.38 398.773C782.931 398.773 782.562 398.889 782.272 399.122C781.983 399.355 781.768 399.661 781.629 400.038C781.49 400.416 781.42 400.824 781.42 401.261C781.42 401.699 781.49 402.105 781.629 402.48C781.768 402.855 781.983 403.158 782.272 403.388C782.562 403.618 782.931 403.733 783.38 403.733ZM788.887 400.562V404.5H787.881V397.955H788.853V398.977H788.938C789.092 398.645 789.325 398.378 789.637 398.176C789.95 397.972 790.353 397.869 790.847 397.869C791.29 397.869 791.678 397.96 792.011 398.142C792.343 398.321 792.602 398.594 792.786 398.96C792.971 399.324 793.063 399.784 793.063 400.341V404.5H792.058V400.409C792.058 399.895 791.924 399.494 791.657 399.207C791.39 398.918 791.023 398.773 790.558 398.773C790.237 398.773 789.95 398.842 789.697 398.982C789.447 399.121 789.249 399.324 789.104 399.591C788.96 399.858 788.887 400.182 788.887 400.562Z" fill="#205834"/>
<rect x="862" y="385" width="64" height="29" rx="3" fill="#ACEAC2"/>
<path d="M886.936 404.636C886.306 404.636 885.762 404.497 885.304 404.219C884.85 403.938 884.499 403.545 884.252 403.043C884.007 402.537 883.885 401.949 883.885 401.278C883.885 400.608 884.007 400.017 884.252 399.506C884.499 398.991 884.843 398.591 885.283 398.304C885.726 398.014 886.243 397.869 886.834 397.869C887.175 397.869 887.512 397.926 887.844 398.04C888.176 398.153 888.479 398.338 888.752 398.594C889.024 398.847 889.242 399.182 889.404 399.599C889.566 400.017 889.646 400.531 889.646 401.142V401.568H884.601V400.699H888.624C888.624 400.33 888.55 400 888.402 399.71C888.257 399.42 888.05 399.192 887.78 399.024C887.513 398.857 887.198 398.773 886.834 398.773C886.433 398.773 886.087 398.872 885.794 399.071C885.504 399.267 885.281 399.523 885.125 399.838C884.969 400.153 884.891 400.491 884.891 400.852V401.432C884.891 401.926 884.976 402.345 885.146 402.689C885.32 403.03 885.56 403.29 885.867 403.469C886.173 403.645 886.53 403.733 886.936 403.733C887.2 403.733 887.439 403.696 887.652 403.622C887.868 403.545 888.054 403.432 888.21 403.281C888.367 403.128 888.487 402.937 888.573 402.71L889.544 402.983C889.442 403.312 889.27 403.602 889.029 403.852C888.787 404.099 888.489 404.293 888.134 404.432C887.779 404.568 887.379 404.636 886.936 404.636ZM892.182 400.562V404.5H891.176V397.955H892.148V398.977H892.233C892.387 398.645 892.619 398.378 892.932 398.176C893.244 397.972 893.648 397.869 894.142 397.869C894.585 397.869 894.973 397.96 895.306 398.142C895.638 398.321 895.896 398.594 896.081 398.96C896.266 399.324 896.358 399.784 896.358 400.341V404.5H895.352V400.409C895.352 399.895 895.219 399.494 894.952 399.207C894.685 398.918 894.318 398.773 893.852 398.773C893.531 398.773 893.244 398.842 892.992 398.982C892.742 399.121 892.544 399.324 892.399 399.591C892.254 399.858 892.182 400.182 892.182 400.562ZM900.667 404.636C900.122 404.636 899.64 404.499 899.223 404.223C898.805 403.945 898.479 403.553 898.243 403.047C898.007 402.538 897.889 401.938 897.889 401.244C897.889 400.557 898.007 399.96 898.243 399.455C898.479 398.949 898.807 398.558 899.227 398.283C899.648 398.007 900.133 397.869 900.684 397.869C901.111 397.869 901.447 397.94 901.694 398.082C901.944 398.222 902.135 398.381 902.265 398.56C902.399 398.736 902.503 398.881 902.577 398.994H902.662V395.773H903.667V404.5H902.696V403.494H902.577C902.503 403.614 902.398 403.764 902.261 403.946C902.125 404.125 901.93 404.286 901.677 404.428C901.425 404.567 901.088 404.636 900.667 404.636ZM900.804 403.733C901.207 403.733 901.548 403.628 901.827 403.418C902.105 403.205 902.317 402.911 902.461 402.536C902.606 402.158 902.679 401.722 902.679 401.227C902.679 400.739 902.608 400.311 902.466 399.945C902.324 399.575 902.113 399.288 901.835 399.084C901.557 398.876 901.213 398.773 900.804 398.773C900.378 398.773 900.023 398.882 899.738 399.101C899.457 399.317 899.246 399.611 899.104 399.983C898.964 400.352 898.895 400.767 898.895 401.227C898.895 401.693 898.966 402.116 899.108 402.497C899.253 402.875 899.466 403.176 899.747 403.401C900.031 403.622 900.383 403.733 900.804 403.733Z" fill="#205834"/>
<path d="M116.5 13.5C115.948 13.5 115.5 13.9477 115.5 14.5C115.5 15.0523 115.948 15.5 116.5 15.5V13.5ZM177.207 15.2071C177.598 14.8166 177.598 14.1834 177.207 13.7929L170.843 7.42893C170.453 7.03841 169.819 7.03841 169.429 7.42893C169.038 7.81946 169.038 8.45262 169.429 8.84315L175.086 14.5L169.429 20.1569C169.038 20.5474 169.038 21.1805 169.429 21.5711C169.819 21.9616 170.453 21.9616 170.843 21.5711L177.207 15.2071ZM116.5 15.5H176.5V13.5H116.5V15.5Z" fill="#4BD27B"/>
<path d="M271.5 13.5C270.948 13.5 270.5 13.9477 270.5 14.5C270.5 15.0523 270.948 15.5 271.5 15.5V13.5ZM333.207 15.2071C333.598 14.8166 333.598 14.1834 333.207 13.7929L326.843 7.42893C326.453 7.03841 325.819 7.03841 325.429 7.42893C325.038 7.81946 325.038 8.45262 325.429 8.84315L331.086 14.5L325.429 20.1569C325.038 20.5474 325.038 21.1805 325.429 21.5711C325.819 21.9616 326.453 21.9616 326.843 21.5711L333.207 15.2071ZM271.5 15.5H332.5V13.5H271.5V15.5Z" fill="#4BD27B"/>
<path d="M380.5 32.5C380.5 31.9477 380.052 31.5 379.5 31.5C378.948 31.5 378.5 31.9477 378.5 32.5H380.5ZM265.293 109.207C265.683 109.598 266.317 109.598 266.707 109.207L273.071 102.843C273.462 102.453 273.462 101.819 273.071 101.429C272.681 101.038 272.047 101.038 271.657 101.429L266 107.086L260.343 101.429C259.953 101.038 259.319 101.038 258.929 101.429C258.538 101.819 258.538 102.453 258.929 102.843L265.293 109.207ZM378.5 32.5V46.5H380.5V32.5H378.5ZM355.5 69.5H290V71.5H355.5V69.5ZM265 94.5V108.5H267V94.5H265ZM290 69.5C276.193 69.5 265 80.6929 265 94.5H267C267 81.7975 277.297 71.5 290 71.5V69.5ZM378.5 46.5C378.5 59.2025 368.203 69.5 355.5 69.5V71.5C369.307 71.5 380.5 60.3071 380.5 46.5H378.5Z" fill="#4BD27B"/>
<path d="M307.5 125.5C306.948 125.5 306.5 125.948 306.5 126.5C306.5 127.052 306.948 127.5 307.5 127.5V125.5ZM369.207 127.207C369.598 126.817 369.598 126.183 369.207 125.793L362.843 119.429C362.453 119.038 361.819 119.038 361.429 119.429C361.038 119.819 361.038 120.453 361.429 120.843L367.086 126.5L361.429 132.157C361.038 132.547 361.038 133.181 361.429 133.571C361.819 133.962 362.453 133.962 362.843 133.571L369.207 127.207ZM307.5 127.5H368.5V125.5H307.5V127.5Z" fill="#4BD27B"/>
<path d="M416.5 144.5C416.5 143.948 416.052 143.5 415.5 143.5C414.948 143.5 414.5 143.948 414.5 144.5H416.5ZM364.207 239.207C364.598 238.817 364.598 238.183 364.207 237.793L357.843 231.429C357.453 231.038 356.819 231.038 356.429 231.429C356.038 231.819 356.038 232.453 356.429 232.843L362.086 238.5L356.429 244.157C356.038 244.547 356.038 245.181 356.429 245.571C356.819 245.962 357.453 245.962 357.843 245.571L364.207 239.207ZM414.5 144.5V158.5H416.5V144.5H414.5ZM391.5 181.5H359V183.5H391.5V181.5ZM334 206.5V214.5H336V206.5H334ZM359 239.5H363.5V237.5H359V239.5ZM334 214.5C334 228.307 345.193 239.5 359 239.5V237.5C346.297 237.5 336 227.203 336 214.5H334ZM359 181.5C345.193 181.5 334 192.693 334 206.5H336C336 193.797 346.297 183.5 359 183.5V181.5ZM414.5 158.5C414.5 171.203 404.203 181.5 391.5 181.5V183.5C405.307 183.5 416.5 172.307 416.5 158.5H414.5Z" fill="#4BD27B"/>
<path d="M468.5 237.5C467.948 237.5 467.5 237.948 467.5 238.5C467.5 239.052 467.948 239.5 468.5 239.5V237.5ZM529.207 239.207C529.598 238.817 529.598 238.183 529.207 237.793L522.843 231.429C522.453 231.038 521.819 231.038 521.429 231.429C521.038 231.819 521.038 232.453 521.429 232.843L527.086 238.5L521.429 244.157C521.038 244.547 521.038 245.181 521.429 245.571C521.819 245.962 522.453 245.962 522.843 245.571L529.207 239.207ZM468.5 239.5H528.5V237.5H468.5V239.5Z" fill="#4BD27B"/>
<path d="M618.5 237.5C617.948 237.5 617.5 237.948 617.5 238.5C617.5 239.052 617.948 239.5 618.5 239.5V237.5ZM671.207 239.207C671.598 238.817 671.598 238.183 671.207 237.793L664.843 231.429C664.453 231.038 663.819 231.038 663.429 231.429C663.038 231.819 663.038 232.453 663.429 232.843L669.086 238.5L663.429 244.157C663.038 244.547 663.038 245.181 663.429 245.571C663.819 245.962 664.453 245.962 664.843 245.571L671.207 239.207ZM618.5 239.5H670.5V237.5H618.5V239.5Z" fill="#4BD27B"/>
<path d="M758.5 256.5C758.5 255.948 758.052 255.5 757.5 255.5C756.948 255.5 756.5 255.948 756.5 256.5H758.5ZM756.793 308.207C757.183 308.598 757.817 308.598 758.207 308.207L764.571 301.843C764.962 301.453 764.962 300.819 764.571 300.429C764.181 300.038 763.547 300.038 763.157 300.429L757.5 306.086L751.843 300.429C751.453 300.038 750.819 300.038 750.429 300.429C750.038 300.819 750.038 301.453 750.429 301.843L756.793 308.207ZM756.5 256.5V307.5H758.5V256.5H756.5Z" fill="#4BD27B"/>
<path d="M758.5 343.5C758.5 342.948 758.052 342.5 757.5 342.5C756.948 342.5 756.5 342.948 756.5 343.5H758.5ZM756.793 382.207C757.183 382.598 757.817 382.598 758.207 382.207L764.571 375.843C764.962 375.453 764.962 374.819 764.571 374.429C764.181 374.038 763.547 374.038 763.157 374.429L757.5 380.086L751.843 374.429C751.453 374.038 750.819 374.038 750.429 374.429C750.038 374.819 750.038 375.453 750.429 375.843L756.793 382.207ZM756.5 343.5V381.5H758.5V343.5H756.5Z" fill="#4BD27B"/>
<path d="M822.5 398.5C821.948 398.5 821.5 398.948 821.5 399.5C821.5 400.052 821.948 400.5 822.5 400.5V398.5ZM859.207 400.207C859.598 399.817 859.598 399.183 859.207 398.793L852.843 392.429C852.453 392.038 851.819 392.038 851.429 392.429C851.038 392.819 851.038 393.453 851.429 393.843L857.086 399.5L851.429 405.157C851.038 405.547 851.038 406.181 851.429 406.571C851.819 406.962 852.453 406.962 852.843 406.571L859.207 400.207ZM822.5 400.5H858.5V398.5H822.5V400.5Z" fill="#4BD27B"/>
</svg>
