<svg width="1015" height="132" viewBox="0 0 1015 132" fill="none" xmlns="http://www.w3.org/2000/svg">
<path d="M274.377 13.2343H337.853V42.6041H304.536V55.2363H335.485V81.7638H304.536V94.3959H337.853V123.766H274.377V13.2343Z" fill="#163300"/>
<path d="M230.971 125.66C223.918 125.66 217.707 124.976 212.339 123.608C207.075 122.239 202.286 120.029 197.97 116.976V83.6586C202.601 89.0273 207.444 93.0274 212.497 95.6591C217.549 98.1856 223.023 99.4488 228.918 99.4488C231.971 99.4488 234.34 98.8172 236.024 97.554C237.814 96.1855 238.708 94.2906 238.708 91.8695C238.708 90.0799 237.866 88.5009 236.182 87.1324C234.498 85.6587 231.498 84.027 227.182 82.2375L218.023 78.2899C210.549 75.0266 205.181 71.0264 201.917 66.2894C198.654 61.447 197.022 55.131 197.022 47.3411C197.022 40.604 198.601 34.4985 201.759 29.0245C205.023 23.5506 209.444 19.2346 215.023 16.0766C220.602 12.9185 226.866 11.3395 233.813 11.3395C239.498 11.3395 244.867 11.9185 249.919 13.0764C254.972 14.2344 259.025 15.866 262.078 17.9714V51.4466C258.92 46.9201 255.078 43.4989 250.551 41.183C246.13 38.7618 241.182 37.5512 235.708 37.5512C232.655 37.5512 230.234 38.1828 228.445 39.446C226.655 40.604 225.76 42.2357 225.76 44.341C225.76 46.2358 226.603 47.9728 228.287 49.5518C230.076 51.1308 233.024 52.7624 237.129 54.4467L243.445 57.1311C251.551 60.6049 257.446 64.9735 261.13 70.2369C264.815 75.3951 266.657 82.0269 266.657 90.1326C266.657 97.1855 265.183 103.396 262.236 108.765C259.288 114.134 255.078 118.292 249.604 121.239C244.235 124.187 238.024 125.66 230.971 125.66Z" fill="#163300"/>
<path d="M159.195 13.2343H189.354V123.766H159.195V13.2343Z" fill="#163300"/>
<path d="M24 13.2343H55.5804L63.6334 69.6053L76.5813 13.2343H100.109L114.004 69.6053L121.741 13.2343H152.058L128.373 123.924H102.477L88.2661 62.6576L74.5286 123.924H48.0011L24 13.2343Z" fill="#163300"/>
<rect x="357.5" width="132" height="132" rx="66" fill="#163300"/>
<g clip-path="url(#clip0_1545_40)">
<path fill-rule="evenodd" clip-rule="evenodd" d="M427.584 50.6744C429.931 50.667 432.231 50.0207 434.237 48.8049C436.244 47.5891 437.882 45.8498 438.975 43.7735C440.893 44.7041 442.676 45.892 444.273 47.3045C449.061 51.4544 452.147 57.2271 452.937 63.5137H459.355C458.899 59.0589 457.523 54.7474 455.313 50.8523C453.104 46.9573 450.109 43.5637 446.52 40.8867C444.617 39.4978 442.572 38.3142 440.42 37.3557C440.102 30.4549 434.485 24.9994 427.584 24.9994C420.684 24.9994 415.067 30.4549 414.745 37.3557V37.835C414.745 39.9244 415.228 42.01 416.19 43.7735C417.284 45.8503 418.922 47.5901 420.929 48.8059C422.937 50.0217 425.238 50.6676 427.584 50.6744ZM421.807 35.1091C422.327 34.0138 423.144 33.0867 424.166 32.4338C425.187 31.781 426.372 31.4287 427.584 31.4172C430.149 31.4172 432.396 33.0235 433.362 35.1091C433.68 35.9104 434.002 36.8727 434.002 37.835C434.002 39.2803 433.519 40.5646 432.718 41.5269C431.595 43.1333 429.67 44.2566 427.584 44.2566C425.495 44.2566 423.57 43.1333 422.447 41.5269C421.599 40.4852 421.144 39.1783 421.163 37.835C421.163 36.8727 421.324 36.0714 421.807 35.1091ZM454.701 73.1367C454.626 73.0581 454.544 73.0169 454.461 72.9757C454.373 72.9363 454.292 72.8818 454.222 72.8147C452.458 71.6914 450.369 71.2121 448.444 71.0511C446.093 70.9557 443.759 71.5028 441.695 72.6335C439.631 73.7642 437.914 75.4359 436.728 77.4689C434.324 81.8011 434.482 86.9384 437.05 90.7876C435.287 91.9109 433.358 92.8732 431.273 93.6782C425.26 95.7945 418.671 95.5645 412.82 93.0342C412.82 93.1952 409.612 98.8117 409.612 98.6507C413.691 100.501 418.114 101.471 422.593 101.499C427.072 101.527 431.507 100.611 435.609 98.8117C437.827 97.8901 439.927 96.7045 441.862 95.2808C444.789 96.8188 448.199 97.16 451.373 96.2323C454.548 95.3047 457.237 93.1807 458.876 90.3083C462.407 84.3697 460.479 76.8286 454.701 73.1367ZM453.42 87.0994C452.136 89.346 449.729 90.4693 447.321 90.3083C446.359 90.1473 445.557 89.9863 444.752 89.5032C443.468 88.8667 442.667 87.7434 442.187 86.6201C441.382 84.8528 441.382 82.6062 442.506 80.8388C443.629 78.9142 445.396 77.9519 447.482 77.6299C448.766 77.4689 450.051 77.7909 451.335 78.4312C452.136 78.9142 452.776 79.5545 453.259 80.1985C454.383 82.2841 454.701 84.8528 453.42 87.0994ZM397.094 65.6031C401.748 65.4421 406.403 67.6887 408.81 72.0209C411.375 76.1921 411.057 81.3293 408.488 85.6615C407.526 87.2641 405.92 88.7094 404.156 89.8327C403.995 89.8327 403.834 89.8327 403.673 89.9938C397.735 93.2027 390.193 90.956 386.662 85.0175C385.04 82.1211 384.584 78.7143 385.389 75.4933C386.195 72.2724 388.2 69.4806 390.995 67.6887C390.674 65.2918 390.674 62.8627 390.995 60.4658C391.491 56.0077 392.919 51.7038 395.187 47.8334C397.454 43.9631 400.51 40.6127 404.156 37.9998C404.092 37.8799 404.519 38.6138 405.077 39.5761C405.991 41.1562 407.264 43.3579 407.361 43.4553C402.244 47.2853 398.751 52.8982 397.577 59.1815C397.096 61.2859 396.936 63.4503 397.094 65.6031ZM400.947 83.8942C402.07 83.2539 403.033 82.1306 403.512 81.0073C404.474 79.2437 404.317 76.9971 403.351 75.2298C402.839 74.3364 402.12 73.5787 401.255 73.0204C400.39 72.462 399.404 72.1193 398.379 72.0209C397.094 71.8599 395.81 72.1819 394.526 72.8222C393.724 73.3052 393.084 73.7845 392.601 74.5895C391.156 76.5141 390.995 79.24 392.279 81.4866C393.563 83.7332 395.971 84.8565 398.379 84.6992C399.18 84.6992 400.142 84.3772 400.947 83.8942Z" fill="#9FE870"/>
</g>
<path d="M979.032 125.321C971.979 125.321 965.769 124.637 960.4 123.268C955.136 121.9 950.347 119.689 946.031 116.636V83.3191C950.663 88.6877 955.505 92.6879 960.558 95.3196C965.611 97.846 971.085 99.1093 976.98 99.1093C980.032 99.1093 982.401 98.4777 984.085 97.2144C985.875 95.846 986.769 93.9511 986.769 91.53C986.769 89.7404 985.927 88.1614 984.243 86.7929C982.559 85.3192 979.559 83.6875 975.243 81.898L966.084 77.9504C958.61 74.6871 953.242 70.6869 949.978 65.9499C946.715 61.1075 945.083 54.7915 945.083 47.0016C945.083 40.2645 946.662 34.1589 949.82 28.685C953.084 23.2111 957.505 18.8951 963.084 15.7371C968.663 12.579 974.927 11 981.875 11C987.559 11 992.928 11.579 997.981 12.7369C1003.03 13.8949 1007.09 15.5265 1010.14 17.6319V51.1071C1006.98 46.5806 1003.14 43.1594 998.612 40.8435C994.191 38.4223 989.243 37.2117 983.769 37.2117C980.717 37.2117 978.295 37.8433 976.506 39.1065C974.716 40.2645 973.821 41.8961 973.821 44.0015C973.821 45.8963 974.664 47.6332 976.348 49.2123C978.137 50.7913 981.085 52.4229 985.19 54.1072L991.507 56.7916C999.612 60.2654 1005.51 64.634 1009.19 69.8974C1012.88 75.0555 1014.72 81.6874 1014.72 89.7931C1014.72 96.846 1013.24 103.057 1010.3 108.425C1007.35 113.794 1003.14 117.952 997.665 120.9C992.296 123.847 986.085 125.321 979.032 125.321Z" fill="#163300"/>
<path d="M874.103 12.8948H937.579V42.2646H904.262V54.8967H935.211V81.4243H904.262V94.0564H937.579V123.426H874.103V12.8948Z" fill="#163300"/>
<path d="M805.563 12.8948H835.723V94.0564H865.724V123.426H805.563V12.8948Z" fill="#163300"/>
<path d="M771.781 125.321C761.781 125.321 752.412 123.11 743.675 118.689C735.043 114.268 728.095 107.741 722.832 99.1093C717.673 90.4773 715.094 80.161 715.094 68.1605C715.094 56.1599 717.673 45.8437 722.832 37.2117C728.095 28.5797 735.043 22.0531 743.675 17.6319C752.412 13.2106 761.781 11 771.781 11C775.992 11 780.308 11.4211 784.729 12.2632C789.256 13.1054 793.203 14.2633 796.572 15.7371V51.1071C794.045 47.949 790.677 45.37 786.466 43.3699C782.361 41.3698 777.781 40.3698 772.728 40.3698C767.149 40.3698 762.307 41.5803 758.202 44.0015C754.096 46.4227 750.938 49.7912 748.727 54.1072C746.517 58.3179 745.411 63.0024 745.411 68.1605C745.411 73.3186 746.517 78.0557 748.727 82.3717C750.938 86.5824 754.096 89.8983 758.202 92.3195C762.307 94.7406 767.149 95.9512 772.728 95.9512C777.781 95.9512 782.361 94.9512 786.466 92.9511C790.677 90.951 794.045 88.3719 796.572 85.2139V120.584C793.203 122.058 789.256 123.216 784.729 124.058C780.308 124.9 775.992 125.321 771.781 125.321Z" fill="#163300"/>
<path d="M666.509 60.897C670.509 60.897 673.72 59.897 676.141 57.8969C678.562 55.7915 679.772 53.0546 679.772 49.686C679.772 46.2121 678.562 43.5278 676.141 41.633C673.825 39.6329 670.509 38.6329 666.193 38.6329H662.561V60.897H666.509ZM632.402 12.8948H667.614C681.404 12.8948 691.826 15.4739 698.879 20.632C706.037 25.7902 709.616 33.3168 709.616 43.212C709.616 49.5281 708.247 54.9494 705.51 59.4759C702.773 63.8972 698.931 67.1605 693.984 69.2658C698.721 71.0554 702.51 74.0029 705.353 78.1083C708.195 82.2138 709.616 87.7403 709.616 94.688V123.426H679.457V96.1091C679.457 92.0037 678.404 89.0036 676.299 87.1087C674.299 85.1086 671.246 84.1086 667.14 84.1086H662.561V123.426H632.402V12.8948Z" fill="#163300"/>
<path d="M593.469 12.8948H623.628V123.426H593.469V12.8948Z" fill="#163300"/>
<path d="M559.687 125.321C549.686 125.321 540.317 123.11 531.58 118.689C522.948 114.268 516.001 107.741 510.737 99.1093C505.579 90.4773 503 80.161 503 68.1605C503 56.1599 505.579 45.8437 510.737 37.2117C516.001 28.5797 522.948 22.0531 531.58 17.6319C540.317 13.2106 549.686 11 559.687 11C563.898 11 568.213 11.4211 572.635 12.2632C577.161 13.1054 581.109 14.2633 584.477 15.7371V51.1071C581.951 47.949 578.582 45.37 574.372 43.3699C570.266 41.3698 565.687 40.3698 560.634 40.3698C555.055 40.3698 550.213 41.5803 546.107 44.0015C542.002 46.4227 538.844 49.7912 536.633 54.1072C534.422 58.3179 533.317 63.0024 533.317 68.1605C533.317 73.3186 534.422 78.0557 536.633 82.3717C538.844 86.5824 542.002 89.8983 546.107 92.3195C550.213 94.7406 555.055 95.9512 560.634 95.9512C565.687 95.9512 570.266 94.9512 574.372 92.9511C578.582 90.951 581.951 88.3719 584.477 85.2139V120.584C581.109 122.058 577.161 123.216 572.635 124.058C568.213 124.9 563.898 125.321 559.687 125.321Z" fill="#163300"/>
<defs>
<clipPath id="clip0_1545_40">
<rect width="76.5" height="76.5" fill="white" transform="translate(385 25)"/>
</clipPath>
</defs>
</svg>
