<svg width="35" height="32" viewBox="0 0 35 32" fill="none" xmlns="http://www.w3.org/2000/svg">
<g id="Logo" clip-path="url(#clip0_1580_1132)">
<path id="Vector" d="M79.3334 0.524964H88.1044L83.6918 31.6029H74.921L79.3334 0.524964ZM68.2765 0.524964L62.3576 18.4279L59.7748 0.524964H53.6407L45.8921 18.3748L44.9237 0.524964H36.4219L39.3814 31.6029H46.4303L55.1474 11.9467L58.2144 31.6029H65.1556L76.6169 0.524964H68.2765ZM141.913 18.5873H121.089C121.197 22.6248 123.645 25.281 127.25 25.281C129.968 25.281 132.12 23.8466 133.787 21.1107L140.817 24.2654C138.4 28.9652 133.31 32.0278 127.034 32.0278C118.479 32.0278 112.802 26.3435 112.802 17.2061C112.802 7.16556 119.475 0.0468445 128.891 0.0468445C137.178 0.0468445 142.397 5.5718 142.397 14.178C142.397 15.6123 142.236 17.0467 141.913 18.5873ZM134.11 12.6373C134.11 9.02493 132.066 6.74051 128.783 6.74051C125.394 6.74051 122.595 9.13114 121.842 12.6373H134.11ZM9.00834 9.8901L0.0554047 20.2201H16.0412L17.8376 15.3491H10.9875L15.173 10.5713L15.1864 10.4446L12.4648 5.81928H24.7093L15.2178 31.6029H21.7131L33.1743 0.524991H3.5649L9.00834 9.8901ZM102.364 6.74053C105.457 6.74053 108.169 8.38317 110.536 11.1988L111.78 2.43745C109.574 0.963241 106.587 0.0468445 102.633 0.0468445C94.7764 0.0468445 90.3638 4.58902 90.3638 10.353C90.3638 14.3506 92.624 16.7943 96.3369 18.3748L98.1123 19.1717C101.422 20.5662 102.309 21.2569 102.309 22.7311C102.309 24.2584 100.816 25.2279 98.5428 25.2279C94.7902 25.2412 91.7501 23.3419 89.4631 20.1014L88.1959 29.0281C90.7994 30.9886 94.138 32.0279 98.5428 32.0279C106.009 32.0279 110.596 27.7779 110.596 21.881C110.596 17.8701 108.794 15.2936 104.247 13.2749L102.309 12.3717C99.6194 11.1897 98.7041 10.5389 98.7041 9.23744C98.7041 7.82962 99.9559 6.74053 102.364 6.74053Z" fill="#163300"/>
</g>
<defs>
<clipPath id="clip0_1580_1132">
<rect width="35" height="32" fill="white"/>
</clipPath>
</defs>
</svg>
